<?xml version="1.0" encoding="UTF-8" standalone="no"?>
<!DOCTYPE svg PUBLIC "-//W3C//DTD SVG 1.1//EN" "http://www.w3.org/Graphics/SVG/1.1/DTD/svg11.dtd">
<svg width="100%" height="100%" viewBox="0 0 1024 1024" version="1.1" xmlns="http://www.w3.org/2000/svg" xmlns:xlink="http://www.w3.org/1999/xlink" xml:space="preserve" xmlns:serif="http://www.serif.com/" style="fill-rule:evenodd;clip-rule:evenodd;stroke-linecap:round;stroke-linejoin:round;stroke-miterlimit:1.5;">
    <g transform="matrix(1,0,0,1,-2804,-1076)">
        <g id="favicon-psyrun-1024w" serif:id="favicon-psyrun@1024w" transform="matrix(4.63348,0,0,4.55111,2516.72,912.16)">
            <rect x="62" y="36" width="221" height="225" style="fill:none;"/>
            <g id="squircle" transform="matrix(0.575521,0,0,0.585938,-1655.35,31.3125)">
                <path d="M3224.02,16C3260.09,16 3294.67,30.326 3320.17,55.827C3345.67,81.328 3360,115.914 3360,151.978L3360,248.022C3360,284.086 3345.67,318.672 3320.17,344.173C3294.67,369.674 3260.09,384 3224.02,384L3127.98,384C3091.91,384 3057.33,369.674 3031.83,344.173C3006.33,318.672 2992,284.086 2992,248.022L2992,151.978C2992,115.914 3006.33,81.328 3031.83,55.827C3057.33,30.326 3091.91,16 3127.98,16L3224.02,16Z" style="fill:url(#_Radial1);"/>
                <clipPath id="_clip2">
                    <path d="M3224.02,16C3260.09,16 3294.67,30.326 3320.17,55.827C3345.67,81.328 3360,115.914 3360,151.978L3360,248.022C3360,284.086 3345.67,318.672 3320.17,344.173C3294.67,369.674 3260.09,384 3224.02,384L3127.98,384C3091.91,384 3057.33,369.674 3031.83,344.173C3006.33,318.672 2992,284.086 2992,248.022L2992,151.978C2992,115.914 3006.33,81.328 3031.83,55.827C3057.33,30.326 3091.91,16 3127.98,16L3224.02,16Z"/>
                </clipPath>
                <g clip-path="url(#_clip2)">
                    <g transform="matrix(1,0,0,1,2536,-318.234)">
                        <path d="M-640,489.18C-640,489.18 -483.061,498.938 -300,497.18C-185.768,496.082 -17.093,483.112 -6,483.18C20.594,483.342 188.839,485.966 251.387,488.028C317.021,490.193 388.301,501.797 425.293,489.18C481,470.18 511.007,415.816 530,433C551,452 487.585,487.487 511,507C535,527 595.712,371.708 627,384C655,395 491.312,562.533 520,582C548,601 655.22,371.748 685,390C716,409 526.219,602.958 553,624C581,646 704,395 730,416C757.592,438.286 567.851,624.335 597,649C623,671 737.094,437.883 762,458C788,479 629.021,632.681 658,652C682,668 747,513 771,535C788.272,550.833 729.268,590.46 749,608C767,624 802,504.18 856.72,489.18C908.907,474.874 1132.33,491.716 1166,493.18C1183.71,493.95 1299.24,501.982 1435,501.18C1559.43,500.444 1673.23,486.95 1771,486.18C1843.66,485.607 1920,489.18 1920,489.18" style="fill:none;stroke:rgb(36,36,39);stroke-width:9.38px;"/>
                    </g>
                </g>
            </g>
            <g id="runner-icon" transform="matrix(0.861776,0,0,0.858843,39.5654,37.0094)">
                <g transform="matrix(0.612783,0,0,0.623874,262.883,203.051)">
                    <path d="M-46.474,-64.899C-89.809,-64.899 -124.955,-29.654 -124.955,13.837C-124.955,57.328 -89.809,92.573 -46.474,92.573C-3.138,92.573 31.981,57.328 31.981,13.837C31.981,-29.654 -3.138,-64.899 -46.474,-64.899" style="fill:rgb(102,102,110);fill-rule:nonzero;"/>
                </g>
                <g transform="matrix(0.539922,0,0,0.549695,256.466,201.563)">
                    <path d="M0,27.674L-58.458,63.083C-67.374,68.483 -78.767,62.064 -78.767,51.64L-78.767,-19.177C-78.767,-29.601 -67.374,-36.021 -58.458,-30.62L0,4.788C8.596,9.995 8.596,22.467 0,27.674" style="fill:rgb(107,204,116);fill-rule:nonzero;"/>
                </g>
            </g>
        </g>
    </g>
    <defs>
        <radialGradient id="_Radial1" cx="0" cy="0" r="1" gradientUnits="userSpaceOnUse" gradientTransform="matrix(368,0,0,368,2992,200)"><stop offset="0" style="stop-color:white;stop-opacity:1"/><stop offset="1" style="stop-color:rgb(236,236,236);stop-opacity:1"/></radialGradient>
    </defs>
</svg>
