<?xml version="1.0" encoding="UTF-8" standalone="no"?>
<!DOCTYPE svg PUBLIC "-//W3C//DTD SVG 1.1//EN" "http://www.w3.org/Graphics/SVG/1.1/DTD/svg11.dtd">
<svg width="100%" height="100%" viewBox="0 0 32 32" version="1.1" xmlns="http://www.w3.org/2000/svg" xmlns:xlink="http://www.w3.org/1999/xlink" xml:space="preserve" xmlns:serif="http://www.serif.com/" style="fill-rule:evenodd;clip-rule:evenodd;stroke-linecap:round;stroke-linejoin:round;stroke-miterlimit:1.5;">
    <g id="light-components-ProgressComponent" serif:id="light/components/ProgressComponent" transform="matrix(0.451519,0,0,0.451519,0,0)">
        <rect x="0" y="0" width="70.872" height="70.866" style="fill:none;"/>
        <g transform="matrix(2.21475,0,0,2.12616,0,0.885899)">
            <path d="M30,13.125L30,19.375C30,21.1 28.656,22.5 27,22.5L5,22.5C3.344,22.5 2,21.1 2,19.375L2,13.125C2,11.4 3.344,10 5,10L27,10C28.656,10 30,11.4 30,13.125Z" style="fill:none;"/>
            <clipPath id="_clip1">
                <path d="M30,13.125L30,19.375C30,21.1 28.656,22.5 27,22.5L5,22.5C3.344,22.5 2,21.1 2,19.375L2,13.125C2,11.4 3.344,10 5,10L27,10C28.656,10 30,11.4 30,13.125Z"/>
            </clipPath>
            <g clip-path="url(#_clip1)">
                <g transform="matrix(0.75,0,0,0.735294,1.25,4.11765)">
                    <rect x="1" y="8" width="24" height="17" style="fill:rgb(37,169,234);"/>
                </g>
            </g>
            <path d="M30,13.125L30,19.375C30,21.1 28.656,22.5 27,22.5L5,22.5C3.344,22.5 2,21.1 2,19.375L2,13.125C2,11.4 3.344,10 5,10L27,10C28.656,10 30,11.4 30,13.125Z" style="fill:none;stroke:var(--outline);stroke-width:2.04px;"/>
        </g>
    </g>
</svg>
