<?xml version="1.0" encoding="UTF-8" standalone="no"?>
<!DOCTYPE svg PUBLIC "-//W3C//DTD SVG 1.1//EN" "http://www.w3.org/Graphics/SVG/1.1/DTD/svg11.dtd">
<svg width="100%" height="100%" viewBox="0 0 32 32" version="1.1" xmlns="http://www.w3.org/2000/svg" xmlns:xlink="http://www.w3.org/1999/xlink" xml:space="preserve" xmlns:serif="http://www.serif.com/" style="fill-rule:evenodd;clip-rule:evenodd;stroke-linejoin:round;stroke-miterlimit:2;">
    <g id="EyetrackerRecordComponent" transform="matrix(0.451519,0,0,0.451519,0,0)">
        <rect x="0" y="0" width="70.872" height="70.866" style="fill:none;"/>
        <g transform="matrix(0,0.997716,0.997716,0,35.4361,18.5967)">
            <path d="M16.875,-16.875C7.555,-16.875 0,-9.32 0,0C0,9.32 7.555,16.875 16.875,16.875C26.195,16.875 33.75,9.32 33.75,0C33.75,-9.32 26.195,-16.875 16.875,-16.875" style="fill:rgb(2,169,234);fill-rule:nonzero;"/>
        </g>
        <g transform="matrix(0,-0.997716,-0.997716,0,33.3437,8.27124)">
            <path d="M-26.768,-32.1C-39.941,-24.322 -48.465,-13.622 -48.465,-2.097C-48.465,9.428 -39.941,20.128 -26.768,27.906L-24.948,28.98L-23.235,27.741C-11.846,19.499 -5.983,9.1 -5.983,-2.097C-5.983,-13.294 -11.846,-23.693 -23.235,-31.935L-24.948,-33.174L-26.768,-32.1ZM-25.318,-25.422C-16.953,-18.817 -12.437,-10.816 -12.437,-2.097C-12.437,6.622 -16.952,14.623 -25.318,21.228C-35.241,14.938 -42.011,6.906 -42.011,-2.097C-42.011,-11.1 -35.241,-19.132 -25.318,-25.422ZM-21.749,-2.25C-21.412,-3.135 -21.227,-4.094 -21.227,-5.097C-21.227,-9.514 -24.807,-13.094 -29.224,-13.094C-33.641,-13.094 -37.221,-9.514 -37.221,-5.097C-37.221,-0.68 -33.641,2.9 -29.224,2.9C-28.876,2.9 -28.534,2.878 -28.198,2.835C-28.609,2.194 -28.847,1.432 -28.847,0.614C-28.847,-1.665 -26.999,-3.513 -24.72,-3.513C-23.553,-3.513 -22.499,-3.029 -21.749,-2.25Z" style="fill:var(--outline);"/>
        </g>
    </g>
</svg>
