<?xml version="1.0" encoding="UTF-8" standalone="no"?>
<!DOCTYPE svg PUBLIC "-//W3C//DTD SVG 1.1//EN" "http://www.w3.org/Graphics/SVG/1.1/DTD/svg11.dtd">
<svg width="100%" height="100%" viewBox="0 0 32 32" version="1.1" xmlns="http://www.w3.org/2000/svg" xmlns:xlink="http://www.w3.org/1999/xlink" xml:space="preserve" xmlns:serif="http://www.serif.com/" style="fill-rule:evenodd;clip-rule:evenodd;stroke-linejoin:round;stroke-miterlimit:2;">
    <g id="light-components-CodeComponent" serif:id="light/components/CodeComponent" transform="matrix(0.451519,0,0,0.451519,0,0)">
        <rect x="0" y="0" width="70.872" height="70.866" style="fill:none;"/>
        <g id="Code-Component" serif:id="Code Component" transform="matrix(1.24973,0,0,1.24973,-8.87028,-9.93001)">
            <path d="M10.642,34.042L23.914,29.225L23.914,33.725L16.039,36.081L23.914,38.612L23.914,43.007L10.642,37.962L10.642,34.042Z" style="fill:rgb(242,84,91);fill-rule:nonzero;"/>
            <path d="M25.466,21.561L29.614,21.561L39.651,51.04L35.397,51.04L25.466,21.561Z" style="fill:var(--outline);fill-rule:nonzero;"/>
            <path d="M60.263,37.962L46.974,43.007L46.974,38.612L54.849,36.081L46.974,33.725L46.974,29.225L60.263,34.042L60.263,37.962Z" style="fill:rgb(242,84,91);fill-rule:nonzero;"/>
        </g>
    </g>
</svg>
