<?xml version="1.0" encoding="UTF-8" standalone="no"?>
<!DOCTYPE svg PUBLIC "-//W3C//DTD SVG 1.1//EN" "http://www.w3.org/Graphics/SVG/1.1/DTD/svg11.dtd">
<svg width="100%" height="100%" viewBox="0 0 32 32" version="1.1" xmlns="http://www.w3.org/2000/svg" xmlns:xlink="http://www.w3.org/1999/xlink" xml:space="preserve" xmlns:serif="http://www.serif.com/" style="fill-rule:evenodd;clip-rule:evenodd;stroke-linejoin:round;stroke-miterlimit:2;">
    <g transform="matrix(1,0,0,1,-700,0)">
        <g id="light-btn-compilejs" serif:id="light/btn-compilejs" transform="matrix(0.451519,0,0,0.451519,700,0)">
            <rect x="0" y="0" width="70.872" height="70.866" style="fill:none;"/>
            <g transform="matrix(1,0,0,1,-0.456719,0.941442)">
                <g transform="matrix(1.149,0,0,1.149,10.5905,5.6999)">
                    <path d="M0,50.116C-1.677,50.116 -3.037,48.757 -3.037,47.079L-3.037,3.036C-3.037,1.359 -1.677,0 0,0L44.043,0C45.72,0 47.079,1.359 47.079,3.036L47.079,47.079C47.079,48.757 45.72,50.116 44.043,50.116L0,50.116Z" style="fill:var(--outline);fill-rule:nonzero;"/>
                </g>
                <g transform="matrix(2.21475,0,0,2.21475,-852.678,-79.7309)">
                    <path d="M391.191,41.558L411.223,41.558L411.223,61.59L391.191,61.59L391.191,41.558ZM410.331,51.503C409.869,49.835 408.705,49.002 406.838,49.002C405.815,49.002 404.993,49.309 404.372,49.926C403.751,50.542 403.44,51.333 403.44,52.298C403.44,52.864 403.571,53.369 403.833,53.812C404.095,54.255 404.429,54.596 404.832,54.835C405.236,55.073 405.85,55.34 406.673,55.633C407.313,55.864 407.722,56.083 407.9,56.29C408.078,56.497 408.168,56.732 408.168,56.994C408.168,57.34 408.04,57.62 407.786,57.832C407.532,58.044 407.2,58.15 406.791,58.15C405.894,58.15 405.32,57.61 405.068,56.53L403.007,57.12C403.547,59.087 404.79,60.07 406.736,60.07C407.895,60.07 408.819,59.749 409.509,59.106C410.199,58.464 410.543,57.642 410.543,56.64C410.543,56.068 410.421,55.567 410.177,55.133C409.934,54.701 409.614,54.358 409.218,54.107C408.822,53.855 408.278,53.601 407.586,53.344C406.825,53.05 406.325,52.813 406.087,52.632C405.848,52.451 405.729,52.208 405.729,51.904C405.729,51.642 405.83,51.413 406.032,51.216C406.234,51.019 406.507,50.921 406.854,50.921C407.593,50.921 408.102,51.364 408.38,52.25L410.331,51.503ZM399.428,49.167L399.428,56.294C399.428,57.013 399.361,57.483 399.227,57.706C399.093,57.929 398.819,58.04 398.405,58.04C398.148,58.04 397.831,58.003 397.453,57.93L397.453,59.905C398.056,60.015 398.536,60.07 398.893,60.07C399.716,60.07 400.338,59.92 400.758,59.622C401.177,59.323 401.453,58.92 401.587,58.414C401.721,57.908 401.788,57.201 401.788,56.294L401.788,49.167L399.428,49.167Z" style="fill:var(--yellow);"/>
                </g>
            </g>
            <g>
                <g transform="matrix(0.984618,0,0,0.984618,26.1218,37.2212)">
                    <path d="M0,27.581L-15.812,27.581C-17.748,27.581 -19.318,26.011 -19.318,24.074L-19.318,3.507C-19.318,1.571 -17.748,0 -15.812,0L-12.84,0C-3.812,0 3.507,7.319 3.507,16.347L3.507,24.074C3.507,26.011 1.937,27.581 0,27.581" style="fill:var(--mantle);fill-rule:nonzero;"/>
                </g>
                <g transform="matrix(2.21475,0,0,2.21475,-852.678,0)">
                    <path d="M393.485,15.574L399.105,21.193L399.105,27.172C399.105,28.73 397.837,29.999 396.278,29.999L389.79,29.999C388.231,29.999 386.961,28.73 386.961,27.172L386.961,18.401C386.961,16.842 388.231,15.574 389.79,15.574L393.485,15.574ZM397.457,27.248L397.457,22.627L394.583,22.627C393.025,22.627 391.757,21.358 391.757,19.8L391.749,17.13L389.625,17.13C388.883,17.13 388.281,17.734 388.281,18.474L388.281,27.248C388.281,27.991 388.883,28.595 389.625,28.595L396.113,28.595C396.854,28.595 397.457,27.991 397.457,27.248ZM396.116,26.15C396.525,26.15 396.857,26.482 396.857,26.891C396.857,27.3 396.525,27.631 396.116,27.631L390.161,27.631C389.753,27.631 389.421,27.3 389.421,26.891C389.421,26.482 389.753,26.15 390.161,26.15L396.116,26.15Z" style="fill:var(--outline);"/>
                </g>
                <g transform="matrix(0.984618,0,0,0.984618,17.1593,51.9194)">
                    <path d="M0,2.178L-6.224,4.541C-6.5,4.646 -6.797,4.441 -6.797,4.145L-6.797,2.728C-6.797,2.545 -6.678,2.382 -6.503,2.325L-2.607,1.074L-6.495,-0.089C-6.674,-0.143 -6.797,-0.308 -6.797,-0.495L-6.797,-1.97C-6.797,-2.264 -6.505,-2.468 -6.229,-2.368L-0.006,-0.113C0.162,-0.052 0.273,0.107 0.273,0.285L0.273,1.782C0.273,1.958 0.165,2.116 0,2.178" style="fill:var(--red);fill-rule:nonzero;"/>
                </g>
            </g>
        </g>
    </g>
</svg>
