<?xml version="1.0" encoding="UTF-8" standalone="no"?>
<!DOCTYPE svg PUBLIC "-//W3C//DTD SVG 1.1//EN" "http://www.w3.org/Graphics/SVG/1.1/DTD/svg11.dtd">
<svg width="100%" height="100%" viewBox="0 0 32 32" version="1.1" xmlns="http://www.w3.org/2000/svg" xmlns:xlink="http://www.w3.org/1999/xlink" xml:space="preserve" xmlns:serif="http://www.serif.com/" style="fill-rule:evenodd;clip-rule:evenodd;stroke-linejoin:round;stroke-miterlimit:2;">
    <g transform="matrix(1,0,0,1,-412,-1)">
        <g id="light-btn-monitors" serif:id="light/btn-monitors" transform="matrix(0.451519,0,0,0.451519,412,1)">
            <rect x="0" y="0" width="70.872" height="70.866" style="fill:none;"/>
            <g transform="matrix(1.06118,0,0,1.06118,65.6212,49.9627)">
                <path d="M0,-9.218L0,-3.149C0,-1.409 -1.409,0 -3.149,0L-53.75,0C-55.479,0 -56.89,-1.409 -56.89,-3.149L-56.89,-9.218L0,-9.218Z" style="fill:var(--red);fill-rule:nonzero;"/>
            </g>
            <g transform="matrix(2.21475,0,0,2.21475,-766.302,0)">
                <path d="M358.792,24.059L349.875,24.059C348.222,24.059 346.871,22.713 346.871,21.05L346.871,7.509C346.871,5.846 348.222,4.5 349.875,4.5L374.12,4.5C375.783,4.5 377.129,5.847 377.129,7.509L377.129,21.05C377.129,22.712 375.783,24.059 374.12,24.059L365.208,24.059C366.262,25.778 367.505,27.396 368.98,28.891C369.385,29.303 369.092,30 368.516,30L355.485,30C354.908,30 354.616,29.303 355.02,28.891C356.495,27.396 357.738,25.778 358.792,24.059ZM374.129,7.509C374.129,7.504 374.125,7.5 374.12,7.5L349.875,7.5C349.871,7.5 349.871,7.505 349.871,7.509L349.871,21.05C349.871,21.054 349.871,21.059 349.875,21.059L374.12,21.059C374.125,21.059 374.129,21.055 374.129,21.05L374.129,7.509Z" style="fill:var(--outline);"/>
            </g>
        </g>
    </g>
</svg>
