<?xml version="1.0" encoding="UTF-8" standalone="no"?>
<!DOCTYPE svg PUBLIC "-//W3C//DTD SVG 1.1//EN" "http://www.w3.org/Graphics/SVG/1.1/DTD/svg11.dtd">
<svg width="100%" height="100%" viewBox="0 0 32 32" version="1.1" xmlns="http://www.w3.org/2000/svg" xmlns:xlink="http://www.w3.org/1999/xlink" xml:space="preserve" xmlns:serif="http://www.serif.com/" style="fill-rule:evenodd;clip-rule:evenodd;stroke-linejoin:round;stroke-miterlimit:2;">
    <g transform="matrix(1,0,0,1,-249,0)">
        <g id="light-btn-case" serif:id="light/btn-case" transform="matrix(0.451519,0,0,0.451519,249,0)">
            <rect x="0" y="0" width="70.872" height="70.866" style="fill:none;"/>
            <g transform="matrix(0.700885,0,0,0.700885,-455.613,-152.791)">
                <path d="M686.012,276.715L691.128,276.715L688.824,269.33L673.037,269.33L670.733,276.715L676.153,276.715L676.153,285.998L656.673,285.998L656.673,276.715L660.502,276.715L674.493,234.639L688.079,234.639L701.765,276.715L705.492,276.715L705.492,285.998L686.012,285.998L686.012,276.715ZM675.713,260.657L686.08,260.657L680.862,243.955L675.713,260.657Z" style="fill:var(--outline);"/>
            </g>
            <g transform="matrix(0.700885,0,0,0.700885,-455.613,-152.791)">
                <path d="M730.562,284.101C729.771,284.598 729.049,285.027 728.394,285.388C727.739,285.727 727.084,285.998 726.429,286.201C725.774,286.427 725.096,286.585 724.396,286.675C723.696,286.788 722.928,286.845 722.092,286.845C719.992,286.845 718.106,286.562 716.435,285.998C714.786,285.411 713.386,284.62 712.234,283.626C711.104,282.61 710.235,281.424 709.625,280.069C709.015,278.691 708.71,277.201 708.71,275.597C708.71,273.971 709.015,272.469 709.625,271.091C710.257,269.714 711.161,268.539 712.335,267.568C713.51,266.574 714.944,265.806 716.638,265.264C718.354,264.7 720.308,264.417 722.499,264.417C724.102,264.417 725.559,264.508 726.869,264.688C728.202,264.847 729.432,265.05 730.562,265.298L730.562,264.214C730.562,263.333 730.392,262.577 730.054,261.944C729.715,261.289 729.241,260.759 728.631,260.352C728.021,259.923 727.287,259.618 726.429,259.437C725.57,259.234 724.633,259.132 723.617,259.132C721.494,259.132 719.619,259.347 717.993,259.776C716.389,260.183 714.842,260.781 713.352,261.572L710.099,254.999C712.403,253.418 714.808,252.21 717.315,251.374C719.845,250.539 722.521,250.121 725.345,250.121C727.535,250.121 729.557,250.369 731.409,250.866C733.283,251.34 734.887,252.131 736.219,253.238C737.552,254.322 738.591,255.745 739.336,257.506C740.104,259.268 740.488,261.414 740.488,263.943L740.488,276.715L745.197,276.715L745.197,285.998L730.562,285.998L730.562,284.101ZM722.838,278.85C724.441,278.85 725.898,278.59 727.208,278.07C728.518,277.551 729.636,276.919 730.562,276.173L730.562,271.701L722.431,271.701C721.912,271.701 721.403,271.78 720.906,271.938C720.41,272.097 719.958,272.322 719.551,272.616C719.167,272.91 718.851,273.271 718.603,273.7C718.377,274.129 718.264,274.626 718.264,275.191C718.264,276.23 718.637,277.099 719.382,277.799C720.15,278.499 721.302,278.85 722.838,278.85Z" style="fill:var(--outline);"/>
            </g>
            <g transform="matrix(1.81352,0,0,1.88335,4.18811,56.1003)">
                <rect x="0" y="-1.647" width="34.461" height="3.294" style="fill:var(--red);"/>
            </g>
        </g>
    </g>
</svg>
