<?xml version="1.0" encoding="UTF-8" standalone="no"?>
<!DOCTYPE svg PUBLIC "-//W3C//DTD SVG 1.1//EN" "http://www.w3.org/Graphics/SVG/1.1/DTD/svg11.dtd">
<svg width="100%" height="100%" viewBox="0 0 33 32" version="1.1" xmlns="http://www.w3.org/2000/svg" xmlns:xlink="http://www.w3.org/1999/xlink" xml:space="preserve" xmlns:serif="http://www.serif.com/" style="fill-rule:evenodd;clip-rule:evenodd;stroke-linejoin:round;stroke-miterlimit:2;">
    <g transform="matrix(1,0,0,1,-42,-1)">
        <g id="light-btn-open" serif:id="light/btn-open" transform="matrix(0.451519,0,0,0.451519,42.5465,1)">
            <rect x="0" y="0" width="70.872" height="70.866" style="fill:none;"/>
            <g transform="matrix(1,0,0,1,62.027,15.1597)">
                <path d="M0,34.174L-6.787,12.718C-7.458,10.597 -9.417,9.154 -11.64,9.154L-36.031,9.154C-37.423,7.814 -39.349,6.983 -41.479,6.983L-45.245,6.983L-45.245,3.029C-45.245,1.357 -43.889,0 -42.217,0L-35.488,0C-33.826,0 -32.46,1.358 -32.46,3.029L-3.043,3.029C-1.362,3.029 0,4.391 0,6.072L0,34.174Z" style="fill:var(--red);fill-rule:nonzero;"/>
            </g>
            <g transform="matrix(1,0,0,1,19.5729,27.2325)">
                <path d="M0,25.028L-7.229,2.172C-7.229,0.967 -6.092,0 -4.675,0L0.976,0C2.376,0 3.521,0.967 3.521,2.172L30.814,2.172L37.855,24.443L38.042,25.028L0,25.028ZM42.148,28.04C42.793,27.157 43.133,26.097 43.133,25.028C43.133,24.51 43.057,23.993 42.896,23.492L42.454,22.101L35.667,0.645C34.996,-1.476 33.037,-2.918 30.814,-2.918L6.423,-2.918C5.031,-4.259 3.105,-5.09 0.976,-5.09L-4.675,-5.09C-8.891,-5.09 -12.318,-1.832 -12.318,2.172C-12.318,2.698 -12.233,3.216 -12.081,3.708L-4.853,26.564C-4.183,28.676 -2.223,30.118 0,30.118L38.042,30.118C39.663,30.118 41.189,29.346 42.148,28.04" style="fill:var(--outline);fill-rule:nonzero;"/>
            </g>
        </g>
    </g>
</svg>
