<?xml version="1.0" encoding="UTF-8" standalone="no"?>
<!DOCTYPE svg PUBLIC "-//W3C//DTD SVG 1.1//EN" "http://www.w3.org/Graphics/SVG/1.1/DTD/svg11.dtd">
<svg width="100%" height="100%" viewBox="0 0 32 33" version="1.1" xmlns="http://www.w3.org/2000/svg" xmlns:xlink="http://www.w3.org/1999/xlink" xml:space="preserve" xmlns:serif="http://www.serif.com/" style="fill-rule:evenodd;clip-rule:evenodd;stroke-linejoin:round;stroke-miterlimit:2;">
    <g transform="matrix(1,0,0,1,-530,0)">
        <g id="btn-cut" transform="matrix(0.451519,0,0,0.451519,530,0.0104752)">
            <rect x="0" y="0" width="70.872" height="70.866" style="fill:none;"/>
            <g>
                <g transform="matrix(2.26883,1.30991,-1.30991,2.26883,-1180.72,-709.089)">
                    <path d="M542,19.011C542.176,19.011 542.086,18.994 542,18.986L542,-0.09C544.208,-0.09 547,1.803 547,4.01L547,24.011C547,26.771 544.76,29.011 542,29.011C539.24,29.011 537,26.771 537,24.011C537,21.252 539.24,19.011 542,19.011ZM542,19.011C541.843,18.979 541.919,18.978 542,18.986L542,19.011ZM542,22.011C540.896,22.011 540,22.907 540,24.011C540,25.115 540.896,26.011 542,26.011C543.104,26.011 544,25.115 544,24.011C544,22.907 543.104,22.011 542,22.011ZM544.117,14.008C543.713,14.241 543.575,14.759 543.808,15.163C544.041,15.567 544.559,15.705 544.963,15.472C545.367,15.239 545.505,14.721 545.272,14.317C545.039,13.913 544.521,13.775 544.117,14.008Z" style="fill:var(--red);"/>
                </g>
                <g transform="matrix(-2.26883,1.30991,1.30991,2.26883,1251.59,-708.995)">
                    <path d="M542,19.011C539.24,19.011 537,21.252 537,24.011C537,26.771 539.24,29.011 542,29.011C544.76,29.011 547,26.771 547,24.011L547,4.01C547,1.803 544.208,-0.09 542,-0.09L542,18.986C542.086,18.994 542.176,19.011 542,19.011ZM542,19.011L542,18.986C541.919,18.978 541.843,18.979 542,19.011ZM544.099,13.977C544.503,13.744 545.021,13.882 545.254,14.286C545.487,14.69 545.349,15.208 544.945,15.441C544.541,15.674 544.023,15.536 543.79,15.132C543.557,14.728 543.695,14.21 544.099,13.977ZM542,22.011C543.104,22.011 544,22.907 544,24.011C544,25.115 543.104,26.011 542,26.011C540.896,26.011 540,25.115 540,24.011C540,22.907 540.896,22.011 542,22.011Z" style="fill:var(--outline);"/>
                </g>
            </g>
        </g>
    </g>
</svg>
