<?xml version="1.0" encoding="UTF-8" standalone="no"?>
<!DOCTYPE svg PUBLIC "-//W3C//DTD SVG 1.1//EN" "http://www.w3.org/Graphics/SVG/1.1/DTD/svg11.dtd">
<svg width="100%" height="100%" viewBox="0 0 32 32" version="1.1" xmlns="http://www.w3.org/2000/svg" xmlns:xlink="http://www.w3.org/1999/xlink" xml:space="preserve" xmlns:serif="http://www.serif.com/" style="fill-rule:evenodd;clip-rule:evenodd;stroke-linecap:round;stroke-linejoin:round;stroke-miterlimit:1.5;">
    <g transform="matrix(1,0,0,1,-375,-1)">
        <g id="light-btn-devices" serif:id="light/btn-devices" transform="matrix(0.451519,0,0,0.451519,375,1)">
            <rect x="0" y="0" width="70.872" height="70.866" style="fill:none;"/>
            <clipPath id="_clip1">
                <rect x="0" y="0" width="70.872" height="70.866"/>
            </clipPath>
            <g clip-path="url(#_clip1)">
                <g transform="matrix(2.21475,0,0,2.21475,0,0)">
                    <path d="M16,6L16,27" style="fill:none;stroke:var(--outline);stroke-width:3px;"/>
                </g>
                <g transform="matrix(2.21475,0,0,2.21475,0,-2.21475)">
                    <path d="M25,10L25,17L16,17" style="fill:none;stroke:var(--outline);stroke-width:3px;"/>
                </g>
                <g transform="matrix(-2.21475,0,0,2.21475,70.8719,4.42949)">
                    <path d="M25,10L25,17L16,17" style="fill:none;stroke:var(--outline);stroke-width:3px;"/>
                </g>
                <g transform="matrix(2.953,0,0,2.953,-5.16774,-11.812)">
                    <circle cx="7" cy="13" r="3" style="fill:var(--outline);"/>
                </g>
                <g transform="matrix(2.21475,0,0,2.21475,19.9327,31.0065)">
                    <circle cx="7" cy="13" r="3" style="fill:var(--red);"/>
                </g>
                <g transform="matrix(1.84562,0,0,1.84562,22.5166,35.8051)">
                    <path d="M7,7C10.311,7 13,9.689 13,13C13,16.311 10.311,19 7,19C3.689,19 1,16.311 1,13C1,9.689 3.689,7 7,7ZM7,10C5.344,10 4,11.344 4,13C4,14.656 5.344,16 7,16C8.656,16 10,14.656 10,13C10,11.344 8.656,10 7,10Z" style="fill:var(--outline);"/>
                </g>
                <g transform="matrix(2.58387,0,0,2.58387,-9.22811,-5.90599)">
                    <rect x="22" y="7" width="6" height="6" style="fill:var(--outline);"/>
                </g>
                <g transform="matrix(2.21475,0,0,1.66106,0,4.42949)">
                    <path d="M16,0L20,8L12,8L16,0Z" style="fill:var(--outline);"/>
                </g>
            </g>
        </g>
    </g>
</svg>
