<?xml version="1.0" encoding="UTF-8" standalone="no"?>
<!DOCTYPE svg PUBLIC "-//W3C//DTD SVG 1.1//EN" "http://www.w3.org/Graphics/SVG/1.1/DTD/svg11.dtd">
<svg width="100%" height="100%" viewBox="0 0 33 32" version="1.1" xmlns="http://www.w3.org/2000/svg" xmlns:xlink="http://www.w3.org/1999/xlink" xml:space="preserve" xmlns:serif="http://www.serif.com/" style="fill-rule:evenodd;clip-rule:evenodd;stroke-linejoin:round;stroke-miterlimit:2;">
    <g transform="matrix(1,0,0,1,-127,-1)">
        <g id="light-btn-saveas" serif:id="light/btn-saveas" transform="matrix(0.451519,0,0,0.451519,127.64,1)">
            <rect x="0" y="0" width="70.872" height="70.866" style="fill:none;"/>
            <g transform="matrix(1,0,0,1,-316,0)">
                <path d="M375.998,17.441C377.628,19.126 378.559,21.453 378.559,23.844L378.559,51.434C378.559,57.689 373.729,62.776 367.788,62.776L336.939,62.776C331.009,62.776 326.179,57.689 326.179,51.434L326.179,18.957C326.179,12.702 331.009,7.616 336.939,7.616L362.989,7.616C365.189,7.616 367.359,8.542 368.929,10.164L375.998,17.441ZM372.559,51.434L372.559,23.844C372.559,23.127 372.288,22.454 371.809,21.958L364.719,14.671C364.259,14.198 363.628,13.934 362.989,13.934L336.939,13.934C334.309,13.934 332.169,16.177 332.169,18.957L332.169,51.434C332.169,54.214 334.309,56.457 336.939,56.457L367.788,56.457C370.418,56.457 372.559,54.214 372.559,51.434ZM360.55,17.306C361.869,17.306 362.939,18.376 362.939,19.686L362.939,26.136C362.939,27.456 361.869,28.526 360.55,28.526L339.429,28.526C338.109,28.526 337.039,27.456 337.039,26.136L337.039,19.686C337.039,18.376 338.109,17.306 339.429,17.306L360.55,17.306ZM342.709,24.966C344.199,24.966 345.419,23.756 345.419,22.256C345.419,20.756 344.199,19.546 342.709,19.546C341.209,19.546 339.989,20.756 339.989,22.256C339.989,23.756 341.209,24.966 342.709,24.966ZM357.199,24.966C358.689,24.966 359.909,23.756 359.909,22.256C359.909,20.756 358.689,19.546 357.199,19.546C355.699,19.546 354.479,20.756 354.479,22.256C354.479,23.756 355.699,24.966 357.199,24.966ZM349.949,24.966C351.449,24.966 352.659,23.756 352.659,22.256C352.659,20.756 351.449,19.546 349.949,19.546C348.449,19.546 347.239,20.756 347.239,22.256C347.239,23.756 348.449,24.966 349.949,24.966Z" style="fill:var(--outline);"/>
            </g>
            <g transform="matrix(0,-1,-1,0,40.4842,36.5113)">
                <path d="M-6.445,-6.455C-10.015,-6.455 -12.895,-3.565 -12.895,0.005C-12.895,3.555 -10.015,6.445 -6.445,6.445C-2.895,6.445 -0.005,3.555 -0.005,0.005C-0.005,-3.565 -2.895,-6.455 -6.445,-6.455" style="fill:var(--red);fill-rule:nonzero;"/>
            </g>
        </g>
    </g>
</svg>
