<?xml version="1.0" encoding="UTF-8" standalone="no"?>
<!DOCTYPE svg PUBLIC "-//W3C//DTD SVG 1.1//EN" "http://www.w3.org/Graphics/SVG/1.1/DTD/svg11.dtd">
<svg width="100%" height="100%" viewBox="0 0 32 32" version="1.1" xmlns="http://www.w3.org/2000/svg" xmlns:xlink="http://www.w3.org/1999/xlink" xml:space="preserve" xmlns:serif="http://www.serif.com/" style="fill-rule:evenodd;clip-rule:evenodd;stroke-linejoin:round;stroke-miterlimit:2;">
    <g transform="matrix(1,0,0,1,-496,0)">
        <g id="btn-clear" transform="matrix(0.451519,0,0,0.451519,496,0.0104752)">
            <rect x="0" y="0" width="70.872" height="70.866" style="fill:none;"/>
            <g transform="matrix(1.69076,1.69076,-4.71052,4.71052,-742.116,-918.471)">
                <path d="M516.713,15.01C518.529,15.01 520,15.539 520,16.19C520,17.367 520,19 520,19L508,19L508,16.19C508,15.539 509.471,15.01 511.287,15.01C512.975,15.01 515.025,15.01 516.713,15.01Z" style="fill:var(--red);"/>
            </g>
            <g transform="matrix(0.994614,0.994614,-1.21092,1.21092,-449.38,-484.78)">
                <path d="M508.776,33.658C507.542,34.672 505.923,35.177 504.306,35.173L503.626,35.173L503.606,35.173L501.468,34.999L499.433,34.491L497.556,33.668L495.895,32.55L494.534,31.186L493.532,29.644L492.913,27.973L492.702,26.217L492.702,5.793L492.913,4.038L493.532,2.366L494.534,0.825L495.895,-0.54L497.556,-1.658L499.433,-2.481L501.468,-2.989L503.606,-3.163L512.394,-3.163L514.532,-2.989L516.567,-2.481L518.444,-1.658L520.105,-0.54L521.466,0.825L522.468,2.366L523.087,4.038L523.298,5.793L523.298,19.587C523.298,20.959 522.635,22.275 521.453,23.245L508.776,33.658ZM504.322,30L517,19.587L517,5.793C517,4.79 516.515,3.828 515.651,3.118C514.787,2.409 513.616,2.01 512.394,2.01L503.606,2.01C502.384,2.01 501.213,2.409 500.349,3.118C499.485,3.828 499,4.79 499,5.793L499,26.217C499,27.22 499.485,28.183 500.349,28.892C501.213,29.601 502.384,30 503.606,30L504.322,30Z" style="fill:var(--outline);"/>
            </g>
        </g>
    </g>
</svg>
