<?xml version="1.0" encoding="UTF-8" standalone="no"?>
<!DOCTYPE svg PUBLIC "-//W3C//DTD SVG 1.1//EN" "http://www.w3.org/Graphics/SVG/1.1/DTD/svg11.dtd">
<svg width="100%" height="100%" viewBox="0 0 32 32" version="1.1" xmlns="http://www.w3.org/2000/svg" xmlns:xlink="http://www.w3.org/1999/xlink" xml:space="preserve" xmlns:serif="http://www.serif.com/" style="fill-rule:evenodd;clip-rule:evenodd;stroke-linecap:round;stroke-linejoin:round;stroke-miterlimit:1.5;">
    <g id="light-btn-loop" serif:id="light/btn-loop" transform="matrix(0.451519,0,0,0.451519,0,0)">
        <rect x="0" y="0" width="70.872" height="70.866" style="fill:none;"/>
        <g transform="matrix(1.06308,0,0,1.38495,-257.974,-572.953)">
            <path d="M251,428.625C251,427.404 252.29,426.414 253.881,426.414C262.705,426.414 289.295,426.414 298.119,426.414C299.71,426.414 301,427.404 301,428.625C301,433.465 301,444.949 301,449.789C301,451.01 299.71,452 298.119,452C289.295,452 262.705,452 253.881,452C252.29,452 251,451.01 251,449.789C251,444.949 251,433.465 251,428.625Z" style="fill:none;stroke:var(--outline);stroke-width:8.97px;"/>
        </g>
        <g transform="matrix(1.95591,1.19247e-16,1.19765e-16,-1.94745,22.1484,17.7642)">
            <ellipse cx="6.793" cy="0" rx="6.794" ry="6.794" style="fill:var(--blue);"/>
        </g>
        <g transform="matrix(6.10295e-17,0.992373,-1.41197,8.60837e-17,55.4726,65.5324)">
            <path d="M0,10.79L-10.653,21.443C-11.724,22.514 -13.453,22.514 -14.524,21.443L-25.164,10.79C-26.894,9.073 -25.675,6.135 -23.235,6.135L-1.929,6.135C0.51,6.135 1.717,9.073 0,10.79" style="fill:var(--outline);fill-rule:nonzero;"/>
        </g>
    </g>
</svg>
