<?xml version="1.0" encoding="UTF-8" standalone="no"?>
<!DOCTYPE svg PUBLIC "-//W3C//DTD SVG 1.1//EN" "http://www.w3.org/Graphics/SVG/1.1/DTD/svg11.dtd">
<svg width="100%" height="100%" viewBox="0 0 32 32" version="1.1" xmlns="http://www.w3.org/2000/svg" xmlns:xlink="http://www.w3.org/1999/xlink" xml:space="preserve" xmlns:serif="http://www.serif.com/" style="fill-rule:evenodd;clip-rule:evenodd;stroke-linejoin:round;stroke-miterlimit:2;">
    <g transform="matrix(1,0,0,1,-214,0)">
        <g id="light-btn-regex" serif:id="light/btn-regex" transform="matrix(0.451519,0,0,0.451519,214,1.77636e-15)">
            <rect x="0" y="0" width="70.872" height="70.866" style="fill:none;"/>
            <g transform="matrix(3.58621,0,0,3.58621,-2673.07,-943.288)">
                <path d="M746.878,277.977C746.878,277.487 746.964,277.027 747.135,276.599C747.319,276.17 747.57,275.791 747.889,275.46C748.219,275.129 748.605,274.872 749.046,274.688C749.487,274.492 749.958,274.394 750.46,274.394C750.938,274.394 751.391,274.492 751.82,274.688C752.261,274.872 752.64,275.129 752.959,275.46C753.289,275.778 753.547,276.158 753.73,276.599C753.914,277.04 754.006,277.499 754.006,277.977C754.006,278.466 753.908,278.932 753.712,279.373C753.528,279.813 753.277,280.193 752.959,280.512C752.64,280.83 752.267,281.081 751.838,281.265C751.41,281.461 750.95,281.559 750.46,281.559C749.946,281.559 749.468,281.461 749.028,281.265C748.599,281.081 748.219,280.83 747.889,280.512C747.57,280.193 747.319,279.82 747.135,279.391C746.964,278.95 746.878,278.479 746.878,277.977Z" style="fill:var(--red);fill-rule:nonzero;"/>
            </g>
            <g transform="matrix(2.2631,0,0,2.2631,-1683.19,-564.218)">
                <path d="M766.865,255.896L771.255,254.463L772.688,258.835L768.261,260.25L770.998,264.016L767.269,266.734L764.55,262.95L761.85,266.734L758.139,264.016L760.858,260.25L756.431,258.835L757.863,254.463L762.272,255.896L762.272,251.267L766.865,251.267L766.865,255.896Z" style="fill:var(--outline);fill-rule:nonzero;"/>
            </g>
        </g>
    </g>
</svg>
