<?xml version="1.0" encoding="UTF-8" standalone="no"?>
<!DOCTYPE svg PUBLIC "-//W3C//DTD SVG 1.1//EN" "http://www.w3.org/Graphics/SVG/1.1/DTD/svg11.dtd">
<svg width="100%" height="100%" viewBox="0 0 32 32" version="1.1" xmlns="http://www.w3.org/2000/svg" xmlns:xlink="http://www.w3.org/1999/xlink" xml:space="preserve" xmlns:serif="http://www.serif.com/" style="fill-rule:evenodd;clip-rule:evenodd;stroke-linejoin:round;stroke-miterlimit:2;">
    <g transform="matrix(1,0,0,1,-117,0)">
        <g id="light-param-update-static" serif:id="light/param-update-static" transform="matrix(2.76476e-17,0.451519,-0.451556,2.76498e-17,149,7.10543e-15)">
            <rect x="0" y="0" width="70.872" height="70.866" style="fill:none;"/>
            <g transform="matrix(6.75432e-17,-1.10297,1.18647,7.26445e-17,20.5457,35.7295)">
                <rect x="-24.36" y="-15.45" width="28.45" height="56" style="fill:var(--red);fill-opacity:0.5;fill-rule:nonzero;"/>
            </g>
            <g transform="matrix(7.26504e-17,-1.18637,1.08349,6.63391e-17,-433.004,550.328)">
                <path d="M461.865,423.107C461.865,416.48 456.959,411.108 450.907,411.108C441.129,411.108 426.886,411.108 417.108,411.108C411.056,411.108 406.15,416.48 406.15,423.107C406.15,423.107 406.15,423.108 406.15,423.109C406.15,429.736 411.056,435.108 417.108,435.108C426.886,435.108 441.129,435.108 450.907,435.108C456.959,435.108 461.865,429.736 461.865,423.109C461.865,423.108 461.865,423.107 461.865,423.107Z" style="fill:var(--red);"/>
            </g>
        </g>
    </g>
</svg>
