<?xml version="1.0" encoding="UTF-8" standalone="no"?>
<!DOCTYPE svg PUBLIC "-//W3C//DTD SVG 1.1//EN" "http://www.w3.org/Graphics/SVG/1.1/DTD/svg11.dtd">
<svg width="100%" height="100%" viewBox="0 0 16 16" version="1.1" xmlns="http://www.w3.org/2000/svg" xmlns:xlink="http://www.w3.org/1999/xlink" xml:space="preserve" xmlns:serif="http://www.serif.com/" style="fill-rule:evenodd;clip-rule:evenodd;stroke-linejoin:round;stroke-miterlimit:2;">
    <g transform="matrix(1,0,0,1,0,-40)">
        <g id="light-rbn-file" serif:id="light/rbn-file" transform="matrix(0.225778,0,0,0.225778,0,40)">
            <rect x="0" y="0" width="70.872" height="70.866" style="fill:none;"/>
            <g transform="matrix(0.958496,0,0,0.958496,61.36,15.2132)">
                <path d="M0,34.174L-6.787,12.718C-7.458,10.597 -9.417,9.154 -11.64,9.154L-36.031,9.154C-37.423,7.814 -39.349,6.983 -41.479,6.983L-45.245,6.983L-45.245,3.029C-45.245,1.357 -43.889,0 -42.217,0L-35.488,0C-33.826,0 -32.46,1.358 -32.46,3.029L-3.043,3.029C-1.362,3.029 0,4.391 0,6.072L0,34.174Z" style="fill:var(--red);fill-rule:nonzero;"/>
            </g>
            <g transform="matrix(0.958496,0,0,0.958496,20.6679,26.7849)">
                <path d="M42.221,27.938L37.383,24.393C37.377,24.399 37.371,24.406 37.365,24.412L42.221,27.938C42.197,27.973 42.173,28.006 42.148,28.04C42.002,28.239 41.843,28.425 41.672,28.599L37.161,25.279C37.166,25.296 37.171,25.313 37.177,25.33C37.772,27.182 39.207,28.589 40.98,29.186C40.131,29.785 39.107,30.118 38.042,30.118L0,30.118C-2.223,30.118 -4.183,28.676 -4.853,26.564L-12.081,3.708C-12.233,3.216 -12.318,2.698 -12.318,2.172C-12.318,-1.832 -8.891,-5.09 -4.675,-5.09L0.976,-5.09C3.105,-5.09 5.031,-4.259 6.423,-2.918L30.814,-2.918C33.037,-2.918 34.996,-1.476 35.667,0.645L42.454,22.101L42.896,23.492C43.057,23.993 43.133,24.51 43.133,25.028C43.133,26.056 42.819,27.076 42.221,27.938ZM36.79,24.111L36.741,23.959L36.95,24.111L36.997,24.111L36.727,23.913L30.14,3.089L6.423,3.089C4.869,3.089 3.375,2.487 2.255,1.408C1.93,1.095 1.473,0.917 0.976,0.917L-4.675,0.917C-5.456,0.917 -6.226,1.341 -6.304,2.052L0.672,24.111L36.79,24.111Z" style="fill:var(--outline);"/>
            </g>
        </g>
    </g>
</svg>
