<?xml version="1.0" encoding="UTF-8" standalone="no"?>
<!DOCTYPE svg PUBLIC "-//W3C//DTD SVG 1.1//EN" "http://www.w3.org/Graphics/SVG/1.1/DTD/svg11.dtd">
<svg width="100%" height="100%" viewBox="0 0 32 32" version="1.1" xmlns="http://www.w3.org/2000/svg" xmlns:xlink="http://www.w3.org/1999/xlink" xml:space="preserve" xmlns:serif="http://www.serif.com/" style="fill-rule:evenodd;clip-rule:evenodd;stroke-linejoin:round;stroke-miterlimit:2;">
    <g transform="matrix(1,0,0,1,-210,-73)">
        <g id="sym-python" transform="matrix(0.451519,0,0,0.451519,210,73.0039)">
            <rect x="0" y="0" width="70.872" height="70.866" style="fill:none;"/>
            <g transform="matrix(1.0028,0,0,1.0028,-2.86314,2.20237)">
                <g transform="matrix(0.984618,0,0,0.984618,66.5296,35.7867)">
                    <path d="M0,-5.38L0,1.88C0,2.35 -0.09,2.81 -0.239,3.25C-0.569,4.97 -1.06,6.44 -1.739,7.75C-2.859,9.93 -4.43,11.58 -6.41,12.65C-7.989,13.51 -9.75,13.92 -11.8,13.92L-12.39,13.92L-12.39,14.35C-12.39,15.23 -12.38,16.12 -12.39,17C-12.39,17.41 -12.39,18.12 -12.569,18.9C-13.01,20.74 -14.1,22.31 -15.8,23.56C-17.66,24.91 -19.68,25.48 -21.029,25.8C-22.569,26.15 -24.229,26.36 -26.12,26.43C-26.77,26.46 -27.41,26.47 -28.05,26.47C-30.239,26.47 -32.18,26.3 -33.989,25.94C-36.06,25.53 -37.72,24.92 -39.199,24.01C-41.16,22.82 -42.54,21.24 -43.3,19.3C-43.8,18.02 -43.859,16.84 -43.85,15.85C-43.84,14.66 -43.84,13.46 -43.84,12.27L-45.17,12.27C-45.66,12.27 -46.149,12.27 -46.64,12.28L-46.739,12.28C-48.79,12.28 -50.699,11.63 -52.399,10.37C-54.069,9.12 -55.33,7.43 -56.25,5.2C-56.729,4.03 -57.09,2.74 -57.35,1.29C-57.489,0.88 -57.56,0.44 -57.56,-0L-57.56,-7.26C-57.56,-7.73 -57.47,-8.19 -57.319,-8.63C-56.989,-10.34 -56.5,-11.82 -55.819,-13.13C-54.71,-15.31 -53.13,-16.96 -51.149,-18.03C-49.569,-18.89 -47.81,-19.3 -45.76,-19.3L-45.17,-19.3L-45.17,-19.78C-45.18,-20.64 -45.18,-21.51 -45.17,-22.38C-45.17,-22.83 -45.17,-23.51 -44.989,-24.28C-44.55,-26.12 -43.47,-27.69 -41.76,-28.94C-39.899,-30.29 -37.89,-30.86 -36.529,-31.18C-34.989,-31.53 -33.319,-31.74 -31.439,-31.81C-30.79,-31.84 -30.149,-31.85 -29.51,-31.85C-27.319,-31.85 -25.38,-31.68 -23.569,-31.32C-21.5,-30.91 -19.84,-30.29 -18.359,-29.39C-16.399,-28.2 -15.02,-26.62 -14.26,-24.68C-13.76,-23.4 -13.699,-22.22 -13.71,-21.23C-13.72,-20.04 -13.72,-18.85 -13.72,-17.66C-13.279,-17.65 -12.84,-17.65 -12.41,-17.65C-11.92,-17.65 -10.84,-17.66 -10.819,-17.66C-8.77,-17.66 -6.87,-17.01 -5.16,-15.75C-3.479,-14.5 -2.229,-12.81 -1.31,-10.58C-0.83,-9.41 -0.47,-8.12 -0.22,-6.67C-0.069,-6.26 0,-5.82 0,-5.38" style="fill:var(--outline);fill-rule:nonzero;"/>
                </g>
                <g transform="matrix(0.984618,0,0,0.984618,46.4276,27.3708)">
                    <path d="M0,25.954C-0.002,24.716 -1.004,23.716 -2.242,23.716C-3.479,23.717 -4.484,24.718 -4.487,25.953C-4.49,27.195 -3.475,28.209 -2.232,28.204C-0.998,28.199 0.002,27.191 0,25.954M16.414,3.165L16.414,10.43C16.395,10.429 16.359,10.423 16.358,10.427C16.346,10.472 16.339,10.518 16.331,10.565C16.106,11.922 15.753,13.241 15.121,14.472C14.423,15.83 13.463,16.947 12.104,17.683C11.003,18.28 9.822,18.477 8.57,18.472C3.204,18.447 -2.163,18.461 -7.53,18.462C-7.557,18.462 -7.584,18.465 -7.61,18.461C-7.726,18.444 -7.76,18.492 -7.758,18.606C-7.752,19.05 -7.749,20.567 -7.759,21.011C-7.763,21.161 -7.724,21.204 -7.57,21.202C-6.871,21.193 -6.172,21.198 -5.473,21.198C-2.379,21.198 0.715,21.2 3.809,21.194C3.987,21.194 4.033,21.236 4.028,21.414C4.016,21.918 4.025,21.35 4.026,21.855C4.028,23.079 4.036,24.303 4.029,25.527C4.028,25.86 4.025,26.204 3.949,26.525C3.711,27.537 3.072,28.279 2.254,28.876C1.125,29.699 -0.167,30.137 -1.511,30.446C-2.943,30.776 -4.398,30.927 -5.865,30.985C-8.188,31.077 -10.504,31.019 -12.793,30.563C-14.17,30.289 -15.499,29.877 -16.708,29.142C-17.803,28.477 -18.68,27.614 -19.156,26.395C-19.405,25.757 -19.442,25.099 -19.438,24.418C-19.419,20.961 -19.433,17.504 -19.426,14.048C-19.425,13.585 -19.402,13.118 -19.336,12.661C-19.116,11.133 -18.44,9.855 -17.174,8.934C-15.879,7.993 -14.402,7.579 -12.823,7.572C-8.97,7.552 -5.116,7.573 -1.263,7.558C-0.654,7.556 -0.037,7.506 0.561,7.394C2.364,7.054 3.751,6.099 4.643,4.474C5.29,3.295 5.584,2.02 5.592,0.683C5.604,-1.173 5.599,-3.029 5.59,-4.885C5.589,-5.076 5.646,-5.111 5.822,-5.11C7.06,-5.103 8.298,-5.095 9.535,-5.109C10.781,-5.123 11.883,-4.722 12.87,-3.988C14.072,-3.094 14.845,-1.88 15.404,-0.516C15.871,0.621 16.15,1.808 16.335,3.019C16.343,3.071 16.387,3.117 16.414,3.165" style="fill:var(--yellow);fill-rule:nonzero;"/>
                </g>
                <g transform="matrix(0.984618,0,0,0.984618,30.1305,38.9056)">
                    <path d="M0,-25.952C0.002,-24.437 1.229,-23.213 2.744,-23.213C4.258,-23.213 5.488,-24.439 5.492,-25.95C5.496,-27.471 4.253,-28.712 2.732,-28.706C1.222,-28.7 -0.002,-27.466 0,-25.952M-16.59,-3.164L-16.59,-10.429C-16.57,-10.428 -16.535,-10.422 -16.534,-10.426C-16.521,-10.471 -16.515,-10.517 -16.507,-10.564C-16.282,-11.921 -15.929,-13.24 -15.297,-14.471C-14.6,-15.829 -13.639,-16.946 -12.28,-17.682C-11.179,-18.279 -9.998,-18.476 -8.746,-18.471C-3.38,-18.447 1.987,-18.461 7.354,-18.461C7.381,-18.461 7.408,-18.464 7.435,-18.46C7.55,-18.444 7.584,-18.491 7.582,-18.605C7.576,-19.049 7.573,-20.566 7.583,-21.01C7.587,-21.16 7.548,-21.202 7.395,-21.201C6.695,-21.192 5.996,-21.197 5.297,-21.197C2.203,-21.197 -0.891,-21.199 -3.984,-21.193C-4.163,-21.193 -4.209,-21.236 -4.204,-21.413C-4.191,-21.917 -4.201,-21.349 -4.202,-21.854C-4.204,-23.078 -4.212,-24.302 -4.206,-25.526C-4.204,-25.86 -4.201,-26.203 -4.125,-26.524C-3.887,-27.536 -3.248,-28.278 -2.43,-28.875C-1.302,-29.698 -0.009,-30.136 1.335,-30.445C2.768,-30.775 4.223,-30.926 5.689,-30.984C8.013,-31.076 10.327,-31.018 12.617,-30.563C13.994,-30.288 15.323,-29.876 16.532,-29.141C17.627,-28.476 18.504,-27.613 18.98,-26.394C19.229,-25.757 19.267,-25.098 19.263,-24.417C19.243,-20.96 19.257,-17.503 19.25,-14.047C19.249,-13.584 19.227,-13.118 19.16,-12.66C18.94,-11.132 18.265,-9.854 16.998,-8.933C15.703,-7.992 14.227,-7.578 12.647,-7.571C8.794,-7.551 4.94,-7.572 1.087,-7.557C0.479,-7.555 -0.139,-7.506 -0.736,-7.393C-2.54,-7.053 -3.927,-6.098 -4.818,-4.473C-5.466,-3.294 -5.76,-2.02 -5.769,-0.682C-5.78,1.174 -5.774,3.03 -5.766,4.886C-5.765,5.076 -5.821,5.112 -5.998,5.111C-7.235,5.104 -8.474,5.096 -9.711,5.11C-10.957,5.124 -12.059,4.723 -13.046,3.989C-14.248,3.095 -15.021,1.881 -15.581,0.517C-16.047,-0.62 -16.326,-1.807 -16.511,-3.018C-16.519,-3.07 -16.562,-3.116 -16.59,-3.164" style="fill:var(--blue);fill-rule:nonzero;"/>
                </g>
            </g>
        </g>
    </g>
</svg>
