<?xml version="1.0" encoding="UTF-8" standalone="no"?>
<!DOCTYPE svg PUBLIC "-//W3C//DTD SVG 1.1//EN" "http://www.w3.org/Graphics/SVG/1.1/DTD/svg11.dtd">
<svg width="100%" height="100%" viewBox="0 0 32 32" version="1.1" xmlns="http://www.w3.org/2000/svg" xmlns:xlink="http://www.w3.org/1999/xlink" xml:space="preserve" xmlns:serif="http://www.serif.com/" style="fill-rule:evenodd;clip-rule:evenodd;stroke-linejoin:round;stroke-miterlimit:2;">
    <g transform="matrix(1,0,0,1,-677,0)">
        <g id="sym-close" transform="matrix(0.451519,0,0,0.451519,677,0.0013094)">
            <rect x="0" y="0" width="70.872" height="70.866" style="fill:none;"/>
            <g transform="matrix(7.87466,0,0,7.87466,-5407.74,-91.5104)">
                <path d="M694.508,18.417C694.775,18.684 694.779,19.116 694.517,19.388C694.517,19.388 694.517,19.388 694.517,19.388C694.391,19.519 694.218,19.594 694.037,19.596C693.855,19.598 693.681,19.528 693.552,19.4C692.746,18.605 691.228,17.105 691.228,17.105C691.228,17.105 689.727,18.606 688.931,19.401C688.664,19.669 688.232,19.672 687.96,19.41C687.96,19.41 687.96,19.41 687.96,19.41C687.83,19.284 687.755,19.111 687.753,18.93C687.75,18.749 687.821,18.574 687.948,18.445C688.744,17.639 690.243,16.121 690.243,16.121C690.243,16.121 688.756,14.633 687.958,13.836C687.827,13.705 687.754,13.528 687.754,13.344C687.754,13.159 687.827,12.982 687.958,12.852C687.958,12.851 687.958,12.851 687.958,12.851C688.089,12.721 688.266,12.647 688.45,12.647C688.635,12.647 688.812,12.721 688.942,12.851C689.74,13.649 691.228,15.136 691.228,15.136C691.228,15.136 692.701,13.681 693.515,12.878C693.654,12.741 693.842,12.665 694.036,12.667C694.231,12.67 694.417,12.75 694.552,12.89C694.555,12.893 694.557,12.896 694.56,12.898C694.798,13.145 694.795,13.538 694.552,13.781C693.77,14.563 692.212,16.121 692.212,16.121C692.212,16.121 693.713,17.622 694.508,18.417Z" fill="currentColor"/>
            </g>
        </g>
    </g>
</svg>
