<?xml version="1.0" encoding="UTF-8" standalone="no"?>
<!DOCTYPE svg PUBLIC "-//W3C//DTD SVG 1.1//EN" "http://www.w3.org/Graphics/SVG/1.1/DTD/svg11.dtd">
<svg width="100%" height="100%" viewBox="0 0 32 32" version="1.1" xmlns="http://www.w3.org/2000/svg" xmlns:xlink="http://www.w3.org/1999/xlink" xml:space="preserve" xmlns:serif="http://www.serif.com/" style="fill-rule:evenodd;clip-rule:evenodd;stroke-linejoin:round;stroke-miterlimit:2;">
    <g transform="matrix(1,0,0,1,-172,-73)">
        <g id="sym-error" transform="matrix(0.451519,0,0,0.451519,172,73.0039)">
            <rect x="0" y="0" width="70.872" height="70.866" style="fill:none;"/>
            <g transform="matrix(1.69036,0,0,1.69036,-20.3223,24.7297)">
                <path d="M28.482,21.641C28.482,21.039 28.592,20.474 28.811,19.945C29.031,19.416 29.336,18.952 29.727,18.553C30.117,18.154 30.577,17.841 31.106,17.613C31.635,17.385 32.209,17.271 32.827,17.271C33.413,17.271 33.971,17.385 34.5,17.613C35.029,17.841 35.488,18.154 35.879,18.553C36.27,18.952 36.579,19.416 36.807,19.945C37.035,20.474 37.149,21.039 37.149,21.641C37.149,22.244 37.035,22.809 36.807,23.338C36.579,23.867 36.27,24.327 35.879,24.717C35.488,25.108 35.029,25.417 34.5,25.645C33.971,25.873 33.413,25.987 32.827,25.987C32.209,25.987 31.635,25.873 31.106,25.645C30.577,25.417 30.117,25.108 29.727,24.717C29.336,24.327 29.031,23.867 28.811,23.338C28.592,22.809 28.482,22.244 28.482,21.641ZM28.482,-13.32L37.49,-13.32L36.489,12.73L29.483,12.73L28.482,-13.32Z" style="fill:var(--red);fill-rule:nonzero;"/>
            </g>
        </g>
    </g>
</svg>
