<?xml version="1.0" encoding="UTF-8" standalone="no"?>
<!DOCTYPE svg PUBLIC "-//W3C//DTD SVG 1.1//EN" "http://www.w3.org/Graphics/SVG/1.1/DTD/svg11.dtd">
<svg width="100%" height="100%" viewBox="0 0 48 48" version="1.1" xmlns="http://www.w3.org/2000/svg" xmlns:xlink="http://www.w3.org/1999/xlink" xml:space="preserve" xmlns:serif="http://www.serif.com/" style="fill-rule:evenodd;clip-rule:evenodd;stroke-linejoin:round;stroke-miterlimit:2;">
    <rect id="StaticComponent" x="0" y="0" width="48" height="48" style="fill:none;"/>
    <g id="StaticComponent1" serif:id="StaticComponent">
        <g transform="matrix(1,0,0,1,0,-1)">
            <path d="M42.977,11C43.778,11 44.547,11.319 45.114,11.886C45.681,12.453 46,13.222 46,14.023C46,15.275 46,16.725 46,17.977C46,18.778 45.681,19.547 45.114,20.114C44.547,20.681 43.778,21 42.977,21C34.932,21 13.068,21 5.023,21C4.222,21 3.453,20.681 2.886,20.114C2.319,19.547 2,18.778 2,17.977C2,16.725 2,15.275 2,14.023C2,13.222 2.319,12.453 2.886,11.886C3.453,11.319 4.222,11 5.023,11C13.068,11 34.932,11 42.977,11Z" style="fill:rgb(242,84,91);"/>
        </g>
        <g transform="matrix(0.788601,0,0,0.788601,24.2831,14.1839)">
            <path d="M0,25.1L-4.98,25.1L-4.98,22.86L-3.7,22.86L-3.7,18.87L-4.98,18.87L-4.98,16.63L-1.18,16.63L-1.18,22.86L0,22.86L0,25.1ZM-6.72,23.66C-6.95,24.03 -7.25,24.33 -7.61,24.57C-7.98,24.82 -8.4,25 -8.86,25.12C-9.32,25.24 -9.78,25.31 -10.25,25.31C-10.56,25.31 -10.83,25.29 -11.08,25.25C-11.33,25.21 -11.55,25.16 -11.75,25.09C-11.95,25.03 -12.13,24.95 -12.28,24.86C-12.44,24.77 -12.58,24.67 -12.71,24.56L-14.19,24.56L-14.19,22.29L-11.88,22.29L-11.88,22.34C-11.87,22.5 -11.82,22.63 -11.73,22.75C-11.64,22.87 -11.52,22.97 -11.37,23.05C-11.22,23.13 -11.05,23.19 -10.86,23.23C-10.67,23.27 -10.46,23.29 -10.25,23.29C-9.76,23.29 -9.4,23.23 -9.18,23.1C-8.96,22.97 -8.85,22.81 -8.85,22.61C-8.85,22.45 -8.9,22.31 -9.01,22.2C-9.12,22.09 -9.31,22 -9.59,21.94L-11.16,21.6C-12.14,21.41 -12.89,21.09 -13.39,20.65C-13.89,20.21 -14.14,19.64 -14.14,18.94C-14.14,18.53 -14.05,18.16 -13.86,17.82C-13.67,17.49 -13.41,17.2 -13.08,16.96C-12.75,16.73 -12.37,16.54 -11.93,16.41C-11.49,16.28 -11.02,16.21 -10.52,16.21C-10.18,16.21 -9.87,16.23 -9.61,16.28C-9.34,16.32 -9.1,16.37 -8.89,16.44C-8.67,16.5 -8.49,16.58 -8.33,16.67C-8.16,16.76 -8.02,16.85 -7.9,16.95L-6.47,16.95L-6.47,19.22L-8.58,19.22C-8.58,19.09 -8.63,18.97 -8.71,18.85C-8.79,18.73 -8.92,18.62 -9.08,18.53C-9.25,18.44 -9.45,18.37 -9.68,18.32C-9.92,18.26 -10.19,18.23 -10.49,18.23C-10.6,18.23 -10.72,18.24 -10.86,18.26C-10.99,18.28 -11.11,18.32 -11.22,18.36C-11.33,18.41 -11.42,18.48 -11.5,18.56C-11.57,18.65 -11.61,18.76 -11.61,18.89C-11.61,18.95 -11.6,19.02 -11.58,19.08C-11.56,19.14 -11.52,19.19 -11.47,19.25C-11.41,19.3 -11.34,19.35 -11.24,19.4C-11.15,19.45 -11.02,19.48 -10.87,19.51L-9.34,19.81C-8.78,19.92 -8.31,20.06 -7.94,20.22C-7.56,20.38 -7.26,20.57 -7.03,20.79C-6.8,21.01 -6.64,21.25 -6.54,21.52C-6.43,21.79 -6.38,22.08 -6.38,22.39C-6.38,22.87 -6.5,23.3 -6.72,23.66M-15.47,25.1L-20.45,25.1L-20.45,22.86L-19.17,22.86L-19.17,18.87L-20.45,18.87L-20.45,16.63L-16.64,16.63L-16.64,22.86L-15.47,22.86L-15.47,25.1ZM-19.19,13.33C-19.12,13.16 -19.01,13 -18.88,12.87C-18.75,12.74 -18.6,12.64 -18.42,12.56C-18.24,12.48 -18.05,12.45 -17.85,12.45C-17.65,12.45 -17.46,12.48 -17.29,12.56C-17.12,12.64 -16.96,12.74 -16.83,12.87C-16.7,13 -16.6,13.16 -16.52,13.33C-16.45,13.51 -16.41,13.7 -16.41,13.9C-16.41,14.1 -16.45,14.29 -16.52,14.47C-16.6,14.65 -16.7,14.8 -16.83,14.93C-16.96,15.06 -17.12,15.17 -17.29,15.24C-17.46,15.32 -17.65,15.36 -17.85,15.36C-18.05,15.36 -18.24,15.32 -18.42,15.24C-18.6,15.17 -18.75,15.06 -18.88,14.93C-19.01,14.8 -19.12,14.65 -19.19,14.47C-19.26,14.29 -19.3,14.1 -19.3,13.9C-19.3,13.7 -19.26,13.51 -19.19,13.33M-3.72,13.33C-3.65,13.16 -3.55,13 -3.42,12.87C-3.29,12.74 -3.13,12.64 -2.95,12.56C-2.78,12.48 -2.59,12.45 -2.38,12.45C-2.18,12.45 -2,12.48 -1.82,12.56C-1.65,12.64 -1.5,12.74 -1.36,12.87C-1.23,13 -1.13,13.16 -1.05,13.33C-0.98,13.51 -0.94,13.7 -0.94,13.9C-0.94,14.1 -0.98,14.29 -1.05,14.47C-1.13,14.65 -1.23,14.8 -1.36,14.93C-1.5,15.06 -1.65,15.17 -1.82,15.24C-2,15.32 -2.18,15.36 -2.38,15.36C-2.59,15.36 -2.78,15.32 -2.95,15.24C-3.13,15.17 -3.29,15.06 -3.42,14.93C-3.55,14.8 -3.65,14.65 -3.72,14.47C-3.8,14.29 -3.83,14.1 -3.83,13.9C-3.83,13.7 -3.8,13.51 -3.72,13.33M-24.36,40.55L4.09,40.55L4.09,-15.45L-24.36,-15.45L-24.36,40.55Z" style="fill:rgb(242,84,91);fill-opacity:0.5;fill-rule:nonzero;"/>
        </g>
    </g>
</svg>
