<?xml version="1.0" encoding="UTF-8" standalone="no"?>
<!DOCTYPE svg PUBLIC "-//W3C//DTD SVG 1.1//EN" "http://www.w3.org/Graphics/SVG/1.1/DTD/svg11.dtd">
<svg width="100%" height="100%" viewBox="0 0 32 32" version="1.1" xmlns="http://www.w3.org/2000/svg" xmlns:xlink="http://www.w3.org/1999/xlink" xml:space="preserve" xmlns:serif="http://www.serif.com/" style="fill-rule:evenodd;clip-rule:evenodd;stroke-linejoin:round;stroke-miterlimit:2;">
    <g id="EyetrackerCalibrationRoutine" transform="matrix(0.451519,0,0,0.451519,0,0)">
        <rect x="0" y="0" width="70.872" height="70.866" style="fill:none;"/>
        <g transform="matrix(0,0.997716,0.997716,0,35.4361,18.5967)">
            <path d="M16.875,-16.875C7.555,-16.875 0,-9.32 0,0C0,9.32 7.555,16.875 16.875,16.875C26.195,16.875 33.75,9.32 33.75,0C33.75,-9.32 26.195,-16.875 16.875,-16.875" style="fill:rgb(2,169,234);fill-rule:nonzero;"/>
        </g>
        <g transform="matrix(0,-0.997716,-0.997716,0,33.3437,8.27124)">
            <path d="M-26.768,-32.1C-39.941,-24.322 -48.465,-13.622 -48.465,-2.097C-48.465,9.428 -39.941,20.128 -26.768,27.906L-24.948,28.98L-23.235,27.741C-11.846,19.499 -5.983,9.1 -5.983,-2.097C-5.983,-13.294 -11.846,-23.693 -23.235,-31.935L-24.948,-33.174L-26.768,-32.1ZM-25.318,-25.422C-16.953,-18.817 -12.437,-10.816 -12.437,-2.097C-12.437,6.622 -16.952,14.623 -25.318,21.228C-35.241,14.938 -42.011,6.906 -42.011,-2.097C-42.011,-11.1 -35.241,-19.132 -25.318,-25.422ZM-21.749,-2.25C-21.412,-3.135 -21.227,-4.094 -21.227,-5.097C-21.227,-9.514 -24.807,-13.094 -29.224,-13.094C-33.641,-13.094 -37.221,-9.514 -37.221,-5.097C-37.221,-0.68 -33.641,2.9 -29.224,2.9C-28.876,2.9 -28.534,2.878 -28.198,2.835C-28.609,2.194 -28.847,1.432 -28.847,0.614C-28.847,-1.665 -26.999,-3.513 -24.72,-3.513C-23.553,-3.513 -22.499,-3.029 -21.749,-2.25Z" style="fill:var(--outline);"/>
        </g>
        <g transform="matrix(0,-0.863069,-0.863069,0,33.5018,28.7917)">
            <path d="M-5.365,-5.365C-8.328,-5.365 -10.73,-2.963 -10.73,0C-10.73,2.963 -8.328,5.365 -5.365,5.365C-2.402,5.365 0,2.963 0,0C0,-2.963 -2.402,-5.365 -5.365,-5.365ZM-5.365,-38.167C-8.328,-38.167 -10.73,-35.765 -10.73,-32.802C-10.73,-29.839 -8.328,-27.437 -5.365,-27.437C-2.402,-27.437 0,-29.839 0,-32.802C0,-35.765 -2.402,-38.167 -5.365,-38.167ZM-38.259,-5.365C-41.222,-5.365 -43.624,-2.963 -43.624,0C-43.624,2.963 -41.222,5.365 -38.259,5.365C-35.296,5.365 -32.894,2.963 -32.894,0C-32.894,-2.963 -35.296,-5.365 -38.259,-5.365ZM-38.259,-38.167C-41.222,-38.167 -43.624,-35.765 -43.624,-32.802C-43.624,-29.839 -41.222,-27.437 -38.259,-27.437C-35.296,-27.437 -32.894,-29.839 -32.894,-32.802C-32.894,-35.765 -35.296,-38.167 -38.259,-38.167ZM-21.858,-5.365C-24.821,-5.365 -27.223,-2.963 -27.223,0C-27.223,2.963 -24.821,5.365 -21.858,5.365C-18.895,5.365 -16.493,2.963 -16.493,0C-16.493,-2.963 -18.895,-5.365 -21.858,-5.365ZM-5.365,-21.766C-8.328,-21.766 -10.73,-19.364 -10.73,-16.401C-10.73,-13.438 -8.328,-11.036 -5.365,-11.036C-2.402,-11.036 0,-13.438 0,-16.401C0,-19.364 -2.402,-21.766 -5.365,-21.766ZM-21.858,-21.766C-24.821,-21.766 -27.223,-19.364 -27.223,-16.401C-27.223,-13.438 -24.821,-11.036 -21.858,-11.036C-18.895,-11.036 -16.493,-13.438 -16.493,-16.401C-16.493,-19.364 -18.895,-21.766 -21.858,-21.766ZM-38.259,-21.766C-41.222,-21.766 -43.624,-19.364 -43.624,-16.401C-43.624,-13.438 -41.222,-11.036 -38.259,-11.036C-35.296,-11.036 -32.894,-13.438 -32.894,-16.401C-32.894,-19.364 -35.296,-21.766 -38.259,-21.766ZM-21.858,-38.167C-24.821,-38.167 -27.223,-35.765 -27.223,-32.802C-27.223,-29.839 -24.821,-27.437 -21.858,-27.437C-18.895,-27.437 -16.493,-29.839 -16.493,-32.802C-16.493,-35.765 -18.895,-38.167 -21.858,-38.167Z" style="fill:rgb(242,84,91);"/>
        </g>
    </g>
</svg>
