<?xml version="1.0" encoding="UTF-8" standalone="no"?>
<!DOCTYPE svg PUBLIC "-//W3C//DTD SVG 1.1//EN" "http://www.w3.org/Graphics/SVG/1.1/DTD/svg11.dtd">
<svg width="100%" height="100%" viewBox="0 0 32 32" version="1.1" xmlns="http://www.w3.org/2000/svg" xmlns:xlink="http://www.w3.org/1999/xlink" xml:space="preserve" xmlns:serif="http://www.serif.com/" style="fill-rule:evenodd;clip-rule:evenodd;stroke-linejoin:round;stroke-miterlimit:2;">
    <g id="UnknownComponent" transform="matrix(0.451519,0,0,0.451519,0,0)">
        <rect x="0" y="0" width="70.872" height="70.866" style="fill:none;"/>
        <g id="Box" transform="matrix(1.00961,0,0,1.00961,-80.8375,0.953946)">
            <path d="M87.781,16.595L87.772,16.601C86.844,17.137 86.272,18.127 86.272,19.199L86.272,49.099C86.272,50.17 86.843,51.161 87.771,51.696L113.663,66.652L113.672,66.657C114.601,67.193 115.745,67.193 116.673,66.656L142.563,51.696C143.49,51.16 144.062,50.17 144.062,49.099L144.062,19.199C144.062,19.182 144.062,19.165 144.061,19.149L144.06,19.099L144.058,19.049L144.055,18.999L144.051,18.949L144.047,18.9L144.042,18.851L144.035,18.801L144.028,18.752L144.021,18.704L144.012,18.655L144.003,18.607L143.993,18.559L143.982,18.511L143.97,18.463L143.958,18.416L143.945,18.369L143.931,18.322L143.916,18.275L143.901,18.229L143.885,18.183L143.868,18.137L143.85,18.092L143.832,18.047L143.813,18.002L143.793,17.958L143.773,17.914L143.751,17.87L143.73,17.827L143.707,17.784L143.684,17.741L143.66,17.699L143.635,17.657L143.61,17.615L143.584,17.574L143.557,17.534L143.53,17.494L143.502,17.454L143.473,17.414L143.444,17.376L143.414,17.337L143.384,17.299L143.353,17.262L143.321,17.225L143.289,17.188L143.256,17.152L143.222,17.117L143.188,17.082L143.153,17.048L143.117,17.014L143.081,16.98L143.045,16.948L143.008,16.915L142.97,16.884L142.932,16.853L142.893,16.822L142.853,16.792L142.813,16.763L142.773,16.734L142.732,16.706L142.69,16.679L142.648,16.652L142.605,16.626L142.562,16.601L116.672,1.651C115.744,1.115 114.6,1.115 113.672,1.651L87.781,16.595ZM92.272,24.394L112.172,35.881L112.172,58.861C112.172,58.861 92.272,47.367 92.272,47.367L92.272,24.394ZM118.172,35.881L138.062,24.395L138.062,47.367C138.062,47.367 118.172,58.86 118.172,58.86L118.172,35.881ZM95.273,19.199L115.172,30.685L135.063,19.199L115.171,7.713L95.273,19.199Z" style="fill:rgb(102,102,110);"/>
        </g>
        <g transform="matrix(0.874349,0.504802,0.504802,1.45724,-0.340474,0.953946)">
            <g transform="matrix(1.33333,0,-0.577347,1,19.268,0)">
                <text x="-0.719px" y="32.958px" style="font-family:'Arvo-Bold', 'Arvo';font-weight:700;font-size:20.324px;fill:rgb(242,84,91);">?</text>
            </g>
        </g>
        <g transform="matrix(0.874349,0.504802,-0.371957,0.951047,35.8573,-9.7475)">
            <g transform="matrix(1.33333,0,-0.577347,1,19.268,0)">
                <text x="-0.719px" y="32.958px" style="font-family:'Arvo-Bold', 'Arvo';font-weight:700;font-size:20.324px;fill:rgb(242,84,91);">?</text>
            </g>
        </g>
        <g transform="matrix(0.874348,-0.504805,0.511639,0.870402,27.0951,25.7299)">
            <g transform="matrix(1.33333,0,-0.577347,1,19.268,0)">
                <text x="-0.719px" y="32.958px" style="font-family:'Arvo-Bold', 'Arvo';font-weight:700;font-size:20.324px;fill:rgb(242,84,91);">?</text>
            </g>
        </g>
    </g>
</svg>
