<?xml version="1.0" encoding="UTF-8" standalone="no"?>
<!DOCTYPE svg PUBLIC "-//W3C//DTD SVG 1.1//EN" "http://www.w3.org/Graphics/SVG/1.1/DTD/svg11.dtd">
<svg width="100%" height="100%" viewBox="0 0 32 32" version="1.1" xmlns="http://www.w3.org/2000/svg" xmlns:xlink="http://www.w3.org/1999/xlink" xml:space="preserve" xmlns:serif="http://www.serif.com/" style="fill-rule:evenodd;clip-rule:evenodd;stroke-linejoin:round;stroke-miterlimit:2;">
    <g id="light-components-PanoramaComponent" serif:id="light/components/PanoramaComponent" transform="matrix(0.451519,0,0,0.451519,0,0)">
        <rect x="0" y="0" width="70.872" height="70.866" style="fill:none;"/>
        <g id="Panorama-Component" serif:id="Panorama Component" transform="matrix(1.52894,0,0,1.52894,-19.7149,-18.9446)">
            <g id="Frame" transform="matrix(1,0,0,1,-151.643,-404.699)">
                <g id="Image-Component" serif:id="Image Component">
                    <path id="Frame1" serif:id="Frame" d="M209.442,453.925L209.442,426.604C209.442,423.463 206.896,420.917 203.755,420.917C193.061,427.853 182.366,427.907 171.672,420.917C168.532,420.917 165.986,423.463 165.986,426.604L165.986,453.925C165.986,457.066 168.532,459.612 171.672,459.612C181.92,454.555 192.618,454.594 203.755,459.612C206.896,459.612 209.442,457.066 209.442,453.925Z" style="fill:none;"/>
                    <clipPath id="_clip1">
                        <path id="Frame2" serif:id="Frame" d="M209.442,453.925L209.442,426.604C209.442,423.463 206.896,420.917 203.755,420.917C193.061,427.853 182.366,427.907 171.672,420.917C168.532,420.917 165.986,423.463 165.986,426.604L165.986,453.925C165.986,457.066 168.532,459.612 171.672,459.612C181.92,454.555 192.618,454.594 203.755,459.612C206.896,459.612 209.442,457.066 209.442,453.925Z"/>
                    </clipPath>
                    <g clip-path="url(#_clip1)">
                        <g id="Sky" transform="matrix(-0.764783,0,0,0.764783,211.642,413.673)">
                            <rect x="-6.532" y="1.239" width="79.788" height="67.725" style="fill:rgb(2,169,234);"/>
                        </g>
                        <g id="Sun" transform="matrix(0,0.764783,0.764783,0,181.948,422.913)">
                            <path d="M10.24,-10.24C3.577,-10.353 1.941,-3.904 1.988,-0.001C2.057,5.654 6.667,10.24 10.24,10.24C14.049,10.24 18.33,5.652 18.491,-0.001C18.585,-3.336 17.032,-10.124 10.24,-10.24Z" style="fill:var(--mantle);fill-rule:nonzero;"/>
                        </g>
                        <g id="Mountains" transform="matrix(0.774599,0,0,0.774599,-210.865,413.434)">
                            <path d="M483.589,37.992C485.566,34.265 493.228,29.089 496.338,27.38C498.069,26.429 500.782,26.419 502.253,27.737C504.602,29.842 506.575,36.33 510.432,40.01C517.35,34.845 524.057,23.298 527.58,20.004C528.553,19.094 530.55,19.388 531.57,20.245C534.471,22.684 542.53,28.976 544.987,34.638L544,65L484,65L483.589,37.992Z" style="fill:var(--outline);"/>
                        </g>
                    </g>
                </g>
            </g>
            <g id="Anchor" transform="matrix(0.796125,0,0,0.796125,-183.375,-309.423)">
                <path d="M274.143,423.373L274.143,425.668C270.89,426.257 268.334,428.723 267.703,431.835L265.681,431.835C266.012,431.262 265.933,430.515 265.442,430.024C264.857,429.439 263.907,429.439 263.321,430.024L260.011,433.335L263.321,436.646C263.907,437.231 264.857,437.231 265.442,436.646C265.933,436.155 266.012,435.409 265.681,434.835L267.703,434.835C268.334,437.947 270.89,440.413 274.143,441.002L274.143,443.297C273.57,442.966 272.823,443.045 272.332,443.536C271.747,444.121 271.747,445.072 272.332,445.657L275.643,448.968L278.954,445.657C279.539,445.072 279.539,444.121 278.954,443.536C278.463,443.045 277.717,442.966 277.143,443.297L277.143,441.002C280.396,440.414 282.952,437.947 283.583,434.835L285.605,434.835C285.274,435.409 285.353,436.155 285.844,436.646C286.429,437.231 287.38,437.231 287.965,436.646L291.276,433.335L287.965,430.024C287.38,429.439 286.429,429.439 285.844,430.024C285.353,430.515 285.274,431.262 285.605,431.835L283.583,431.835C282.953,428.723 280.397,426.257 277.143,425.668L277.143,423.373C277.717,423.704 278.463,423.625 278.954,423.134C279.539,422.549 279.539,421.598 278.954,421.013L275.643,417.702L272.332,421.013C271.747,421.598 271.747,422.549 272.332,423.134C272.823,423.625 273.57,423.704 274.143,423.373ZM274.143,437.923C272.574,437.466 271.321,436.313 270.806,434.835L274.143,434.835L274.143,437.923ZM280.48,434.835C279.966,436.312 278.712,437.466 277.143,437.923L277.143,434.835L280.48,434.835ZM274.143,428.747L274.143,431.835L270.806,431.835C271.32,430.358 272.574,429.204 274.143,428.747ZM277.143,428.747C278.712,429.204 279.966,430.358 280.48,431.835L277.143,431.835L277.143,428.747Z" style="fill:rgb(242,84,91);"/>
            </g>
        </g>
    </g>
</svg>
