<?xml version="1.0" encoding="UTF-8" standalone="no"?>
<!DOCTYPE svg PUBLIC "-//W3C//DTD SVG 1.1//EN" "http://www.w3.org/Graphics/SVG/1.1/DTD/svg11.dtd">
<svg width="100%" height="100%" viewBox="0 0 16 16" version="1.1" xmlns="http://www.w3.org/2000/svg" xmlns:xlink="http://www.w3.org/1999/xlink" xml:space="preserve" xmlns:serif="http://www.serif.com/" style="fill-rule:evenodd;clip-rule:evenodd;stroke-linejoin:round;stroke-miterlimit:2;">
    <g transform="matrix(1,0,0,1,-36,0)">
        <g id="ClassDefinition" transform="matrix(0.333333,0,0,0.333333,36,0)">
            <rect x="0" y="0" width="48" height="48" style="fill:none;"/>
            <g transform="matrix(0.899732,0,0,0.899732,-22.5226,31.9569)">
                <path d="M57.701,-12.669C57.001,-13.548 56.22,-14.212 55.357,-14.659C54.494,-15.107 53.477,-15.298 52.305,-15.233C51.361,-15.298 50.503,-15.168 49.73,-14.842C48.957,-14.517 48.289,-14.061 47.728,-13.475C47.166,-12.889 46.731,-12.193 46.422,-11.388C46.112,-10.582 45.958,-9.675 45.958,-8.666C45.958,-7.77 46.12,-6.924 46.446,-6.126C46.772,-5.329 47.215,-4.641 47.777,-4.063C48.338,-3.486 49.005,-3.034 49.779,-2.709C50.552,-2.383 51.394,-2.188 52.305,-2.123C53.07,-2.188 53.766,-2.346 54.393,-2.599C55.019,-2.851 55.577,-3.176 56.065,-3.575C56.553,-3.974 56.973,-4.422 57.322,-4.918C57.672,-5.414 57.945,-5.882 58.14,-6.322L64.854,-4.466C64.578,-3.49 64.101,-2.473 63.426,-1.415C62.751,-0.357 61.872,0.608 60.789,1.479C59.707,2.349 58.421,3.069 56.932,3.639C55.443,4.209 53.746,4.494 51.842,4.494C49.905,4.494 48.122,4.14 46.495,3.432C44.867,2.724 43.467,1.759 42.296,0.539C41.124,-0.682 40.208,-2.114 39.549,-3.758C38.89,-5.402 38.56,-7.168 38.56,-9.056C38.56,-10.928 38.898,-12.665 39.573,-14.269C40.249,-15.872 41.181,-17.271 42.369,-18.468C43.557,-19.664 44.969,-20.596 46.605,-21.263C48.24,-21.931 50.019,-22.232 51.939,-22.167C53.306,-22.232 54.633,-22.077 55.919,-21.703C57.204,-21.328 58.425,-20.767 59.581,-20.018L64.439,-20.018L64.439,-12.669L57.701,-12.669Z" style="fill:var(--outline);fill-rule:nonzero;"/>
            </g>
            <g transform="matrix(2.25,0,0,2,-75,13)">
                <rect x="36" y="13" width="16" height="3" style="fill:var(--red);"/>
            </g>
        </g>
    </g>
</svg>
