<?xml version="1.0" encoding="UTF-8" standalone="no"?>
<!DOCTYPE svg PUBLIC "-//W3C//DTD SVG 1.1//EN" "http://www.w3.org/Graphics/SVG/1.1/DTD/svg11.dtd">
<svg width="100%" height="100%" viewBox="0 0 16 16" version="1.1" xmlns="http://www.w3.org/2000/svg" xmlns:xlink="http://www.w3.org/1999/xlink" xml:space="preserve" xmlns:serif="http://www.serif.com/" style="fill-rule:evenodd;clip-rule:evenodd;stroke-linejoin:round;stroke-miterlimit:2;">
    <g transform="matrix(1,0,0,1,-54,0)">
        <g id="FunctionDefinition" transform="matrix(0.333333,0,0,0.333333,54,0)">
            <rect x="0" y="0" width="48" height="48" style="fill:none;"/>
            <g transform="matrix(1.875,0,0,2,-58.5,13)">
                <rect x="36" y="13" width="16" height="3" style="fill:var(--blue);"/>
            </g>
            <g transform="matrix(0.778214,0,0,0.778214,-29.0545,29.0942)">
                <path d="M70.703,-16.419L75.317,-16.419L75.317,-10.023L70.703,-10.023L70.703,2.184L75.366,2.184L75.366,8.874L59.668,8.874L59.668,2.184L63.452,2.184L63.452,-10.023L59.619,-10.023L59.619,-16.419L63.452,-16.419L63.452,-20.618C63.452,-22.099 63.712,-23.401 64.233,-24.524C64.754,-25.648 65.45,-26.592 66.32,-27.357C67.191,-28.121 68.196,-28.699 69.336,-29.09C70.475,-29.481 71.671,-29.676 72.924,-29.676C73.852,-29.676 74.682,-29.607 75.415,-29.468C76.147,-29.33 76.79,-29.155 77.343,-28.943C77.897,-28.732 78.365,-28.504 78.747,-28.26C79.13,-28.016 79.435,-27.788 79.663,-27.576L76.855,-22.425C76.481,-22.702 76.058,-22.921 75.586,-23.084C75.114,-23.247 74.536,-23.328 73.852,-23.328C73.413,-23.328 73.002,-23.255 72.619,-23.108C72.237,-22.962 71.903,-22.75 71.618,-22.474C71.333,-22.197 71.11,-21.851 70.947,-21.436C70.784,-21.021 70.703,-20.537 70.703,-19.983L70.703,-16.419Z" style="fill:var(--outline);fill-rule:nonzero;"/>
            </g>
        </g>
    </g>
</svg>
