<?xml version="1.0" encoding="UTF-8" standalone="no"?>
<!DOCTYPE svg PUBLIC "-//W3C//DTD SVG 1.1//EN" "http://www.w3.org/Graphics/SVG/1.1/DTD/svg11.dtd">
<svg width="100%" height="100%" viewBox="0 0 16 16" version="1.1" xmlns="http://www.w3.org/2000/svg" xmlns:xlink="http://www.w3.org/1999/xlink" xml:space="preserve" xmlns:serif="http://www.serif.com/" style="fill-rule:evenodd;clip-rule:evenodd;stroke-linejoin:round;stroke-miterlimit:2;">
    <g transform="matrix(1,0,0,1,-18,0)">
        <g id="Script.py" transform="matrix(0.333333,0,0,0.333333,18,0)">
            <rect x="0" y="0" width="48" height="48" style="fill:none;"/>
            <g transform="matrix(0.767787,0,0,0.767787,-65.3976,-371.319)">
                <path d="M91.378,483.622L141.494,483.622C144.918,483.622 147.694,486.398 147.694,489.822L147.694,539.94C147.694,543.364 144.918,546.14 141.494,546.14L91.378,546.14C87.954,546.14 85.178,543.364 85.178,539.94L85.178,489.822C85.178,486.398 87.954,483.622 91.378,483.622Z" style="fill:var(--outline);"/>
                <clipPath id="_clip1">
                    <path d="M91.378,483.622L141.494,483.622C144.918,483.622 147.694,486.398 147.694,489.822L147.694,539.94C147.694,543.364 144.918,546.14 141.494,546.14L91.378,546.14C87.954,546.14 85.178,543.364 85.178,539.94L85.178,489.822C85.178,486.398 87.954,483.622 91.378,483.622Z"/>
                </clipPath>
                <g clip-path="url(#_clip1)">
                    <g transform="matrix(0.93175,0,0,0.93175,7.94671,35.1404)">
                        <path d="M91.378,487.622C90.163,487.622 89.178,488.607 89.178,489.822L89.178,539.94C89.178,541.155 90.163,542.14 91.378,542.14L141.494,542.14C142.709,542.14 143.694,541.155 143.694,539.94L143.694,489.822C143.694,488.607 142.709,487.622 141.494,487.622L91.378,487.622Z" style="fill:var(--yellow);"/>
                    </g>
                    <path id="ext" d="M136.943,514.473L132.437,516.2C131.796,514.153 130.621,513.129 128.913,513.129C128.113,513.129 127.48,513.357 127.014,513.811C126.548,514.265 126.314,514.794 126.314,515.399C126.314,516.103 126.59,516.663 127.141,517.08C127.692,517.499 128.846,518.046 130.603,518.726C132.201,519.319 133.458,519.906 134.372,520.488C135.287,521.068 136.026,521.859 136.589,522.858C137.152,523.858 137.433,525.017 137.433,526.337C137.433,528.651 136.638,530.549 135.045,532.033C133.452,533.517 131.317,534.258 128.641,534.258C124.147,534.258 121.276,531.988 120.029,527.446L124.788,526.083C125.37,528.578 126.697,529.825 128.768,529.825C129.712,529.825 130.478,529.58 131.066,529.09C131.652,528.6 131.947,527.954 131.947,527.155C131.947,526.55 131.741,526.007 131.33,525.53C130.918,525.051 129.972,524.545 128.495,524.012C126.594,523.335 125.176,522.719 124.243,522.168C123.312,521.617 122.541,520.829 121.936,519.806C121.331,518.783 121.028,517.617 121.028,516.309C121.028,514.08 121.746,512.254 123.181,510.831C124.615,509.407 126.515,508.697 128.877,508.697C133.188,508.697 135.877,510.622 136.943,514.473ZM111.763,509.078L117.213,509.078L117.213,525.538C117.213,527.634 117.059,529.266 116.749,530.434C116.44,531.603 115.802,532.533 114.834,533.223C113.864,533.913 112.429,534.258 110.527,534.258C109.703,534.258 108.595,534.131 107.201,533.877L107.201,529.317C108.075,529.486 108.807,529.571 109.401,529.571C110.357,529.571 110.99,529.315 111.299,528.798C111.608,528.284 111.763,527.198 111.763,525.538L111.763,509.078Z" style="fill:var(--outline);"/>
                </g>
            </g>
        </g>
    </g>
</svg>
