<?xml version="1.0" encoding="UTF-8" standalone="no"?>
<!DOCTYPE svg PUBLIC "-//W3C//DTD SVG 1.1//EN" "http://www.w3.org/Graphics/SVG/1.1/DTD/svg11.dtd">
<svg width="100%" height="100%" viewBox="0 0 16 16" version="1.1" xmlns="http://www.w3.org/2000/svg" xmlns:xlink="http://www.w3.org/1999/xlink" xml:space="preserve" xmlns:serif="http://www.serif.com/" style="fill-rule:evenodd;clip-rule:evenodd;stroke-linejoin:round;stroke-miterlimit:2;">
    <g id="Script.js" transform="matrix(0.333333,0,0,0.333333,0,0)">
        <rect x="0" y="0" width="48" height="48" style="fill:none;"/>
        <clipPath id="_clip1">
            <rect x="0" y="0" width="48" height="48"/>
        </clipPath>
        <g clip-path="url(#_clip1)">
            <g transform="matrix(0.772182,0,0,0.772182,-11.5647,-61.8604)">
                <g transform="matrix(1.08333,0,0,1.08475,-338.304,72.7562)">
                    <path d="M351.917,6.889C349.805,7.008 347.716,7.327 345.694,8.029C345.694,8.029 345.694,8.029 345.693,8.029C344.062,8.596 342.562,9.406 341.335,10.659C339.884,12.139 339.117,13.884 339.16,16.019C339.16,16.02 339.16,16.02 339.16,16.021C339.187,17.293 339.186,18.565 339.187,19.838C339.187,19.838 338,19.836 338,19.836C336.405,19.832 334.866,20.048 333.395,20.696C331.143,21.687 329.479,23.309 328.282,25.427C328.282,25.427 328.282,25.427 328.282,25.427C327.41,26.968 326.856,28.629 326.545,30.363C326.423,31.038 326.351,31.722 326.267,32.405C326.16,32.742 326.106,33.096 326.106,33.454L326.106,37.4C326.106,37.716 326.148,38.029 326.232,38.331C326.369,39.941 326.65,41.562 327.149,43.143C327.721,44.954 328.554,46.627 329.825,48.061C329.825,48.061 329.825,48.062 329.825,48.062C331.41,49.85 333.369,50.978 335.765,51.302C335.769,51.302 335.773,51.303 335.777,51.303C336.08,51.343 336.389,51.358 336.694,51.358C337.526,51.36 338.361,51.358 339.197,51.359C339.196,52.138 339.193,52.917 339.189,53.697C339.182,54.852 339.298,55.963 339.721,57.046C339.722,57.046 339.722,57.047 339.722,57.047C340.508,59.057 341.906,60.525 343.711,61.622C343.711,61.622 343.712,61.623 343.712,61.623C345.323,62.601 347.084,63.177 348.918,63.542C348.918,63.542 348.918,63.542 348.918,63.542C351.572,64.07 354.254,64.151 356.947,64.044C358.69,63.976 360.421,63.79 362.124,63.398C362.124,63.398 362.124,63.398 362.125,63.398C363.983,62.969 365.755,62.321 367.317,61.182C367.317,61.182 367.318,61.181 367.318,61.181C368.856,60.059 369.977,58.611 370.425,56.713C370.563,56.126 370.599,55.499 370.602,54.889C370.602,54.888 370.602,54.887 370.602,54.886C370.608,53.605 370.601,52.325 370.598,51.045L370.598,51.027C370.598,51.027 371.811,51.03 371.811,51.03C373.711,51.039 375.495,50.695 377.169,49.787C379.221,48.676 380.701,47.018 381.753,44.968C382.496,43.521 382.96,41.987 383.258,40.402C383.407,40.014 383.486,39.593 383.485,39.164C383.485,39.164 383.485,31.607 383.485,31.607C383.486,31.204 383.416,30.805 383.28,30.428C383.048,29.07 382.701,27.735 382.174,26.449C382.174,26.449 382.173,26.448 382.173,26.447C381.346,24.434 380.161,22.676 378.388,21.357C378.388,21.357 378.388,21.357 378.388,21.357C376.732,20.126 374.878,19.475 372.788,19.499C372.057,19.507 371.325,19.508 370.592,19.506C370.593,18.758 370.594,18.011 370.596,17.263C370.599,16.212 370.537,15.178 370.188,14.167C369.589,12.422 368.517,11.03 367.067,9.923C367.066,9.922 367.065,9.922 367.065,9.921C365.559,8.773 363.85,8.069 362.038,7.595C360.672,7.236 359.28,7.023 357.874,6.912C357.704,6.899 357.533,6.892 357.363,6.886C357.091,6.816 356.805,6.78 356.517,6.78L352.781,6.78C352.487,6.78 352.195,6.817 351.912,6.89L351.917,6.889Z" style="fill:var(--outline);fill-rule:nonzero;"/>
                </g>
                <g transform="matrix(1.08333,0,0,1.08475,41.0081,118.074)">
                    <path d="M0,-25.411C0.045,-26.567 -0.905,-27.607 -2.172,-27.618C-3.388,-27.628 -4.361,-26.644 -4.38,-25.424C-4.399,-24.148 -3.378,-23.196 -2.202,-23.194C-1.017,-23.192 0.038,-24.17 0,-25.411M-20.529,-4.377L-20.529,-8.323C-20.503,-8.369 -20.46,-8.413 -20.454,-8.462C-20.35,-9.24 -20.284,-10.024 -20.145,-10.795C-19.904,-12.141 -19.482,-13.432 -18.806,-14.628C-17.988,-16.075 -16.868,-17.201 -15.329,-17.878C-14.313,-18.326 -13.245,-18.444 -12.143,-18.441C-6.589,-18.427 -1.034,-18.434 4.52,-18.434C4.555,-18.434 4.59,-18.437 4.625,-18.433C4.764,-18.415 4.805,-18.477 4.802,-18.612C4.796,-19.039 4.8,-19.465 4.8,-19.892C4.8,-20.162 4.8,-20.162 4.53,-20.162C0.64,-20.162 -3.249,-20.161 -7.139,-20.162C-7.478,-20.162 -7.444,-20.111 -7.445,-20.457C-7.454,-22.248 -7.438,-24.039 -7.475,-25.829C-7.498,-26.963 -7.071,-27.882 -6.3,-28.668C-5.458,-29.528 -4.411,-30.053 -3.292,-30.442C-1.432,-31.088 0.499,-31.336 2.457,-31.417C2.521,-31.42 2.583,-31.47 2.646,-31.497L6.382,-31.497C6.431,-31.47 6.478,-31.421 6.529,-31.418C6.839,-31.399 7.151,-31.401 7.462,-31.376C8.662,-31.282 9.85,-31.103 11.016,-30.797C12.379,-30.44 13.676,-29.936 14.808,-29.073C15.701,-28.391 16.376,-27.545 16.745,-26.47C16.964,-25.836 16.963,-25.183 16.961,-24.523C16.952,-20.969 16.962,-17.415 16.951,-13.861C16.949,-13.325 16.912,-12.783 16.827,-12.253C16.583,-10.735 15.889,-9.465 14.634,-8.543C13.273,-7.541 11.718,-7.111 10.049,-7.105C6.069,-7.09 2.088,-7.107 -1.893,-7.092C-2.526,-7.089 -3.167,-7.038 -3.79,-6.927C-5.326,-6.653 -6.625,-5.94 -7.572,-4.675C-8.621,-3.275 -9.06,-1.669 -9.073,0.06C-9.086,1.991 -9.079,3.922 -9.072,5.853C-9.071,6.04 -9.123,6.086 -9.306,6.085C-10.684,6.078 -12.063,6.083 -13.441,6.081C-13.594,6.081 -13.749,6.076 -13.901,6.056C-15.434,5.849 -16.676,5.107 -17.69,3.963C-18.63,2.902 -19.225,1.652 -19.648,0.312C-20.109,-1.148 -20.343,-2.65 -20.452,-4.174C-20.457,-4.243 -20.502,-4.309 -20.529,-4.377" style="fill:var(--blue);fill-rule:nonzero;"/>
                </g>
                <g transform="matrix(1.08333,0,0,1.08475,56.0641,104.351)">
                    <path d="M0,25.375C-0.002,24.159 -0.986,23.176 -2.202,23.177C-3.417,23.177 -4.405,24.161 -4.408,25.373C-4.411,26.594 -3.413,27.59 -2.193,27.585C-0.981,27.58 0.002,26.59 0,25.375M15.953,2.481L15.953,10.038C15.932,10.037 15.896,10.031 15.895,10.035C15.882,10.082 15.874,10.13 15.866,10.178C15.633,11.591 15.265,12.962 14.607,14.243C13.882,15.656 12.883,16.818 11.469,17.584C10.323,18.205 9.095,18.41 7.793,18.404C2.21,18.379 -3.373,18.393 -8.956,18.394C-8.984,18.394 -9.012,18.397 -9.04,18.393C-9.159,18.376 -9.195,18.425 -9.193,18.544C-9.187,19.006 -9.184,19.468 -9.194,19.929C-9.198,20.085 -9.158,20.13 -8.998,20.128C-8.271,20.119 -7.543,20.124 -6.816,20.124C-3.597,20.124 -0.379,20.126 2.839,20.12C3.025,20.12 3.073,20.164 3.068,20.35C3.055,20.874 3.065,21.399 3.066,21.924C3.068,23.197 3.076,24.47 3.07,25.743C3.068,26.09 3.065,26.448 2.986,26.782C2.738,27.834 2.074,28.606 1.222,29.228C0.048,30.084 -1.297,30.539 -2.694,30.861C-4.184,31.204 -5.699,31.361 -7.224,31.421C-9.641,31.517 -12.049,31.457 -14.431,30.983C-15.863,30.698 -17.246,30.269 -18.504,29.505C-19.643,28.813 -20.555,27.914 -21.051,26.646C-21.31,25.983 -21.348,25.298 -21.344,24.59C-21.324,20.994 -21.339,17.398 -21.331,13.802C-21.33,13.321 -21.307,12.835 -21.238,12.359C-21.009,10.77 -20.306,9.44 -18.988,8.482C-17.641,7.502 -16.106,7.073 -14.463,7.065C-10.454,7.045 -6.445,7.066 -2.436,7.051C-1.803,7.049 -1.161,6.997 -0.54,6.88C1.337,6.526 2.78,5.533 3.707,3.842C4.38,2.616 4.686,1.29 4.695,-0.101C4.707,-2.032 4.701,-3.963 4.693,-5.894C4.692,-6.092 4.75,-6.129 4.935,-6.128C6.222,-6.12 7.509,-6.113 8.796,-6.127C10.093,-6.142 11.239,-5.725 12.266,-4.961C13.516,-4.031 14.32,-2.768 14.903,-1.349C15.388,-0.166 15.678,1.069 15.871,2.329C15.879,2.382 15.924,2.43 15.953,2.481" style="fill:var(--yellow);fill-rule:nonzero;"/>
                </g>
            </g>
        </g>
    </g>
</svg>
