<?xml version="1.0" encoding="UTF-8" standalone="no"?>
<!DOCTYPE svg PUBLIC "-//W3C//DTD SVG 1.1//EN" "http://www.w3.org/Graphics/SVG/1.1/DTD/svg11.dtd">
<svg width="100%" height="100%" viewBox="0 0 48 48" version="1.1" xmlns="http://www.w3.org/2000/svg" xmlns:xlink="http://www.w3.org/1999/xlink" xml:space="preserve" xmlns:serif="http://www.serif.com/" style="fill-rule:evenodd;clip-rule:evenodd;stroke-linejoin:round;stroke-miterlimit:2;">
    <rect id="ResourceManagerComponent" x="0" y="0" width="48" height="48" style="fill:none;"/>
    <g id="ResourceManagerComponent1" serif:id="ResourceManagerComponent">
        <g id="Resource-Manager-Component" serif:id="Resource Manager Component" transform="matrix(0.718622,0,0,0.718622,-3.04828,-2.6196)">
            <g id="Image-Component" serif:id="Image Component" transform="matrix(1,0,0,1,-5e-05,1.73019)">
                <g opacity="0.5">
                    <path id="Frame" d="M14.46,10.135C10.354,10.135 7.025,13.464 7.025,17.571L7.025,53.295C7.025,57.402 10.354,60.731 14.46,60.731L56.411,60.731C60.518,60.731 63.847,57.402 63.847,53.295L63.847,17.571C63.847,13.464 60.518,10.135 56.411,10.135L14.46,10.135Z" style="fill-rule:nonzero;"/>
                    <clipPath id="_clip1">
                        <path id="Frame1" serif:id="Frame" d="M14.46,10.135C10.354,10.135 7.025,13.464 7.025,17.571L7.025,53.295C7.025,57.402 10.354,60.731 14.46,60.731L56.411,60.731C60.518,60.731 63.847,57.402 63.847,53.295L63.847,17.571C63.847,13.464 60.518,10.135 56.411,10.135L14.46,10.135Z" clip-rule="nonzero"/>
                    </clipPath>
                    <g clip-path="url(#_clip1)">
                        <g id="Sky" transform="matrix(-1,0,0,1,66.724,0.6631)">
                            <rect x="-6.532" y="1.239" width="79.788" height="67.725" style="fill:rgb(2,169,234);"/>
                        </g>
                        <g id="Sun" transform="matrix(0,1,1,0,27.8961,12.7452)">
                            <path d="M10.24,-10.24C4.585,-10.24 0.001,-5.656 0.001,-0.001C0.001,5.655 4.585,10.24 10.24,10.24C15.894,10.24 20.478,5.655 20.478,-0.001C20.478,-5.656 15.894,-10.24 10.24,-10.24" style="fill:var(--mantle);fill-rule:nonzero;"/>
                        </g>
                        <g id="Mountains" transform="matrix(1,0,0,1,-478.385,0)">
                            <path d="M484,41.774L496.338,27.38C497.941,25.509 500.887,25.688 502.253,27.737L510.432,40.01L527.58,20.004C528.661,18.742 530.648,18.862 531.57,20.245L544,38.899L544,65L484,65L484,41.774Z" style="fill:var(--outline);"/>
                        </g>
                    </g>
                </g>
            </g>
            <g id="Completed" transform="matrix(1.08559,0,0,1.08515,0.400674,3.41515)">
                <path d="M12.955,7.803C9.169,7.803 6.102,10.87 6.102,14.656L6.102,47.56C6.102,51.345 9.169,54.413 12.955,54.413L25.777,54.397L25.777,7.787L12.955,7.803Z" style="fill:none;fill-rule:nonzero;"/>
                <clipPath id="_clip2">
                    <path d="M12.955,7.803C9.169,7.803 6.102,10.87 6.102,14.656L6.102,47.56C6.102,51.345 9.169,54.413 12.955,54.413L25.777,54.397L25.777,7.787L12.955,7.803Z" clip-rule="nonzero"/>
                </clipPath>
                <g clip-path="url(#_clip2)">
                    <g id="Image-Component1" serif:id="Image Component" transform="matrix(0.921157,0,0,0.921535,-0.36913,-1.55275)">
                        <path id="Frame2" serif:id="Frame" d="M14.46,10.135C10.354,10.135 7.025,13.464 7.025,17.571L7.025,53.295C7.025,57.402 10.354,60.731 14.46,60.731L56.411,60.731C60.518,60.731 63.847,57.402 63.847,53.295L63.847,17.571C63.847,13.464 60.518,10.135 56.411,10.135L14.46,10.135Z" style="fill:none;fill-rule:nonzero;"/>
                        <clipPath id="_clip3">
                            <path id="Frame3" serif:id="Frame" d="M14.46,10.135C10.354,10.135 7.025,13.464 7.025,17.571L7.025,53.295C7.025,57.402 10.354,60.731 14.46,60.731L56.411,60.731C60.518,60.731 63.847,57.402 63.847,53.295L63.847,17.571C63.847,13.464 60.518,10.135 56.411,10.135L14.46,10.135Z" clip-rule="nonzero"/>
                        </clipPath>
                        <g clip-path="url(#_clip3)">
                            <g id="Sky1" serif:id="Sky" transform="matrix(-1,0,0,1,66.724,0.6631)">
                                <rect x="-6.532" y="1.239" width="79.788" height="67.725" style="fill:rgb(2,169,234);"/>
                            </g>
                            <g id="Sun1" serif:id="Sun" transform="matrix(0,1,1,0,27.8961,12.7452)">
                                <path d="M10.24,-10.24C4.585,-10.24 0.001,-5.656 0.001,-0.001C0.001,5.655 4.585,10.24 10.24,10.24C15.894,10.24 20.478,5.655 20.478,-0.001C20.478,-5.656 15.894,-10.24 10.24,-10.24" style="fill:var(--mantle);fill-rule:nonzero;"/>
                            </g>
                            <g id="Mountains1" serif:id="Mountains" transform="matrix(1,0,0,1,-478.385,0)">
                                <path d="M484,41.774L496.338,27.38C497.941,25.509 500.887,25.688 502.253,27.737L510.432,40.01L527.58,20.004C528.661,18.742 530.648,18.862 531.57,20.245L544,38.899L544,65L484,65L484,41.774Z" style="fill:var(--outline);"/>
                            </g>
                        </g>
                    </g>
                </g>
            </g>
            <g id="Trackline" transform="matrix(2.28571,0,0,1,-947.33,-318.897)">
                <rect x="426.663" y="330.763" width="1.75" height="50.596" style="fill:rgb(242,84,91);"/>
            </g>
            <g transform="matrix(1.24449,0,0,1.25348,-14.3667,-53.0676)">
                <g transform="matrix(0,1.60136,1.60136,0,57.2431,45.2444)">
                    <path d="M7.025,-7.025C3.145,-7.025 0,-3.88 0,-0C0,3.88 3.145,7.025 7.025,7.025C10.905,7.025 14.05,3.88 14.05,-0C14.05,-3.88 10.905,-7.025 7.025,-7.025" style="fill:rgb(242,84,91);fill-rule:nonzero;"/>
                </g>
                <g transform="matrix(0.459975,0,0,0.449911,35.4572,46.8929)">
                    <g transform="matrix(0.758911,0,0,0.758911,56.914,13.3445)">
                        <path d="M0,10.79L-10.653,21.443C-11.724,22.514 -13.453,22.514 -14.524,21.443L-25.164,10.79C-26.894,9.073 -25.675,6.135 -23.235,6.135L-17.822,6.135L-17.822,-6.484C-17.822,-9.371 -15.482,-11.724 -12.582,-11.724C-9.682,-11.724 -7.343,-9.371 -7.343,-6.484L-7.343,6.135L-1.929,6.135C0.51,6.135 1.717,9.073 0,10.79" style="fill:var(--mantle);fill-rule:nonzero;"/>
                    </g>
                    <g transform="matrix(0.963472,0,0,0.720322,-309.493,-226.374)">
                        <path d="M383.776,363.131C383.776,360.804 382.386,358.917 380.672,358.917C375.518,358.917 365.252,358.917 360.098,358.917C358.384,358.917 356.995,360.804 356.995,363.131C356.995,363.131 356.995,363.132 356.995,363.132C356.995,365.459 358.384,367.346 360.098,367.346C365.252,367.346 375.518,367.346 380.672,367.346C382.386,367.346 383.776,365.459 383.776,363.132C383.776,363.132 383.776,363.131 383.776,363.131Z" style="fill:var(--mantle);"/>
                    </g>
                </g>
            </g>
        </g>
    </g>
</svg>
