<?xml version="1.0" encoding="UTF-8" standalone="no"?>
<!DOCTYPE svg PUBLIC "-//W3C//DTD SVG 1.1//EN" "http://www.w3.org/Graphics/SVG/1.1/DTD/svg11.dtd">
<svg width="100%" height="100%" viewBox="0 0 32 32" version="1.1" xmlns="http://www.w3.org/2000/svg" xmlns:xlink="http://www.w3.org/1999/xlink" xml:space="preserve" xmlns:serif="http://www.serif.com/" style="fill-rule:evenodd;clip-rule:evenodd;stroke-linecap:round;stroke-linejoin:round;stroke-miterlimit:1.5;">
    <g id="light-components-CameraComponent" serif:id="light/components/CameraComponent" transform="matrix(0.451519,0,0,0.451519,0,0)">
        <rect x="0" y="0" width="70.872" height="70.866" style="fill:none;"/>
        <g id="Camera-Component" serif:id="Camera Component" transform="matrix(1.00377,0,0,1.00377,-0.13351,4.12687)">
            <g transform="matrix(1,0,0,1,-558.116,-322.897)">
                <path d="M587.546,364.33C587.399,364.497 587.29,364.681 587.228,364.886C586.907,365.94 585.475,367.758 583.032,368.234C579.912,368.841 580.463,372.256 581.828,374.248C583.192,376.24 586.144,377.515 589.39,377.515L597.782,377.515C601.029,377.515 603.98,376.24 605.345,374.248C606.71,372.256 607.06,369.196 604.141,368.234C602.697,367.758 600.266,365.94 599.945,364.886C599.883,364.681 599.774,364.497 599.627,364.33L609.813,364.33C614.278,364.33 618.56,362.557 621.718,359.399C624.875,356.242 626.649,351.96 626.649,347.494L626.649,347.493C626.649,343.028 624.875,338.746 621.718,335.588C618.56,332.431 614.278,330.657 609.813,330.657C600.367,330.657 586.737,330.657 577.292,330.657C572.826,330.657 568.544,332.431 565.387,335.588C562.229,338.746 560.456,343.028 560.456,347.493C560.456,347.494 560.456,347.494 560.456,347.494C560.456,351.96 562.229,356.242 565.387,359.399C568.544,362.557 572.826,364.33 577.292,364.33L587.546,364.33ZM620.649,347.493C620.649,344.619 619.507,341.863 617.475,339.831C615.443,337.799 612.687,336.657 609.813,336.657C600.367,336.657 586.737,336.657 577.292,336.657C574.418,336.657 571.662,337.799 569.629,339.831C567.597,341.863 566.456,344.619 566.456,347.493C566.456,347.494 566.456,347.494 566.456,347.494C566.456,350.368 567.597,353.124 569.629,355.157C571.662,357.189 574.418,358.33 577.292,358.33C586.737,358.33 600.367,358.33 609.813,358.33C612.687,358.33 615.443,357.189 617.475,355.157C619.507,353.124 620.649,350.368 620.649,347.494C620.649,347.494 620.649,347.494 620.649,347.493Z" style="fill:var(--outline);"/>
            </g>
            <g transform="matrix(1,0,0,1,-553.878,-324.599)">
                <circle cx="576.5" cy="342.5" r="2.5" style="fill:rgb(242,84,91);"/>
            </g>
            <g transform="matrix(1.0341,0,0,1.0341,-571.112,-326.293)">
                <circle cx="586.549" cy="339.32" r="7.004" style="fill:none;stroke:rgb(37,169,234);stroke-width:2.95px;"/>
            </g>
            <g transform="matrix(0.599008,0,0,0.599008,-315.911,-178.659)">
                <path d="M586.549,332.316C590.414,332.316 593.552,335.455 593.552,339.32C593.552,343.185 590.414,346.323 586.549,346.323C582.683,346.323 579.545,343.185 579.545,339.32C579.545,335.455 582.683,332.316 586.549,332.316ZM586.549,335.655C584.526,335.655 582.884,337.297 582.884,339.32C582.884,341.342 584.526,342.984 586.549,342.984C588.571,342.984 590.213,341.342 590.213,339.32C590.213,337.297 588.571,335.655 586.549,335.655Z" style="fill:var(--outline);"/>
            </g>
        </g>
    </g>
</svg>
