<?xml version="1.0" encoding="UTF-8" standalone="no"?>
<!DOCTYPE svg PUBLIC "-//W3C//DTD SVG 1.1//EN" "http://www.w3.org/Graphics/SVG/1.1/DTD/svg11.dtd">
<svg width="100%" height="100%" viewBox="0 0 32 32" version="1.1" xmlns="http://www.w3.org/2000/svg" xmlns:xlink="http://www.w3.org/1999/xlink" xml:space="preserve" xmlns:serif="http://www.serif.com/" style="fill-rule:evenodd;clip-rule:evenodd;stroke-linecap:round;stroke-linejoin:round;stroke-miterlimit:1;">
    <g id="light-components-FormComponent" serif:id="light/components/FormComponent" transform="matrix(0.451519,0,0,0.451519,0,0)">
        <rect x="0" y="0" width="70.872" height="70.866" style="fill:none;"/>
        <g transform="matrix(1.06798,0,0,1.05793,-512.945,-420.135)">
            <path d="M534.274,413.928C534.274,410.405 531.444,407.548 527.954,407.548C520.275,407.548 507.397,407.548 499.719,407.548C496.228,407.548 493.399,410.405 493.399,413.928C493.399,423.576 493.399,441.771 493.399,451.418C493.399,454.942 496.228,457.798 499.719,457.798C507.397,457.798 520.275,457.798 527.954,457.798C531.444,457.798 534.274,454.942 534.274,451.418C534.274,441.771 534.274,423.576 534.274,413.928Z" style="fill:none;stroke:var(--outline);stroke-width:4.17px;"/>
        </g>
        <g id="Lines" transform="matrix(1.07125,0,0,1.07125,-2.07367,-0.269196)">
            <g transform="matrix(1,0,0,1,-400.109,-377.546)">
                <g transform="matrix(1,0,0,1,435.41,431.245)">
                    <path d="M-10.307,-5.664C-11.871,-5.664 -13.139,-4.396 -13.139,-2.832C-13.139,-1.268 -11.871,0 -10.307,0C-8.743,0 -7.475,-1.268 -7.475,-2.832C-7.475,-4.396 -8.743,-5.664 -10.307,-5.664Z" style="fill:var(--outline);fill-opacity:0.5;fill-rule:nonzero;"/>
                </g>
                <g transform="matrix(1,0,0,1,447.318,431.245)">
                    <path d="M0,-5.664L-14.845,-5.664C-16.409,-5.664 -17.677,-4.396 -17.677,-2.832C-17.677,-1.268 -16.409,0 -14.845,0L0,0C1.564,0 2.832,-1.268 2.832,-2.832C2.832,-4.396 1.564,-5.664 0,-5.664" style="fill:var(--outline);fill-rule:nonzero;"/>
                </g>
            </g>
            <g transform="matrix(1,0,0,1,-400.109,-387.17)">
                <g transform="matrix(1,0,0,1,447.318,431.245)">
                    <path d="M0,-5.664L-14.845,-5.664C-16.409,-5.664 -17.677,-4.396 -17.677,-2.832C-17.677,-1.268 -16.409,0 -14.845,0L0,0C1.564,0 2.832,-1.268 2.832,-2.832C2.832,-4.396 1.564,-5.664 0,-5.664" style="fill:var(--outline);fill-rule:nonzero;"/>
                </g>
                <g transform="matrix(-3.52039e-17,0.574923,0.574923,3.52039e-17,175.346,184.699)">
                    <path d="M421.056,438.36L426.761,432.655L424.108,430.002" style="fill:none;stroke:rgb(37,169,234);stroke-width:5.39px;"/>
                </g>
            </g>
            <g transform="matrix(1,0,0,1,-400.109,-396.794)">
                <g transform="matrix(1,0,0,1,435.41,431.245)">
                    <path d="M-10.307,-5.664C-11.871,-5.664 -13.139,-4.396 -13.139,-2.832C-13.139,-1.268 -11.871,0 -10.307,0C-8.743,0 -7.475,-1.268 -7.475,-2.832C-7.475,-4.396 -8.743,-5.664 -10.307,-5.664Z" style="fill:var(--outline);fill-opacity:0.5;fill-rule:nonzero;"/>
                </g>
                <g transform="matrix(1,0,0,1,447.318,431.245)">
                    <path d="M0,-5.664L-14.845,-5.664C-16.409,-5.664 -17.677,-4.396 -17.677,-2.832C-17.677,-1.268 -16.409,0 -14.845,0L0,0C1.564,0 2.832,-1.268 2.832,-2.832C2.832,-4.396 1.564,-5.664 0,-5.664" style="fill:var(--outline);fill-rule:nonzero;"/>
                </g>
            </g>
            <g transform="matrix(1,0,0,1,47.7639,24.827)">
                <path d="M0,-5.664L-22.77,-5.664C-24.334,-5.664 -25.602,-4.396 -25.602,-2.832C-25.602,-1.268 -24.334,0 -22.77,0L0,0C1.564,0 2.832,-1.268 2.832,-2.832C2.832,-4.396 1.564,-5.664 0,-5.664" style="fill:var(--outline);fill-rule:nonzero;"/>
            </g>
        </g>
        <g transform="matrix(1.07125,0,0,1.07125,-514.921,-426.523)">
            <path d="M509.372,403.945L505.452,403.945C504.171,403.945 503.132,404.985 503.132,406.265L503.132,410.905C503.132,412.185 504.171,413.225 505.452,413.225L522.892,413.225C524.172,413.225 525.212,412.185 525.212,410.905L525.212,406.265C525.212,404.985 524.172,403.945 522.892,403.945L518.971,403.945C518.949,401.315 516.807,399.187 514.172,399.187C511.536,399.187 509.394,401.315 509.372,403.945ZM514.172,402.405C515.022,402.405 515.712,403.095 515.712,403.945C515.712,404.795 515.022,405.485 514.172,405.485C513.322,405.485 512.632,404.795 512.632,403.945C512.632,403.095 513.322,402.405 514.172,402.405Z" style="fill:var(--outline);"/>
        </g>
    </g>
</svg>
