<?xml version="1.0" encoding="UTF-8" standalone="no"?>
<!DOCTYPE svg PUBLIC "-//W3C//DTD SVG 1.1//EN" "http://www.w3.org/Graphics/SVG/1.1/DTD/svg11.dtd">
<svg width="100%" height="100%" viewBox="0 0 32 32" version="1.1" xmlns="http://www.w3.org/2000/svg" xmlns:xlink="http://www.w3.org/1999/xlink" xml:space="preserve" xmlns:serif="http://www.serif.com/" style="fill-rule:evenodd;clip-rule:evenodd;stroke-linejoin:round;stroke-miterlimit:2;">
    <g id="light-components-DotsComponent" serif:id="light/components/DotsComponent" transform="matrix(0.451519,0,0,0.451519,0,0)">
        <rect x="0" y="0" width="70.872" height="70.866" style="fill:none;"/>
        <g id="Dots-Component" serif:id="Dots Component" transform="matrix(1.48221,0,0,1.48221,-18.4067,-18.9733)">
            <g opacity="0.8">
                <g id="Dot8">
                    <g transform="matrix(-1,-6.12323e-17,-6.12323e-17,1,24.3443,30.7793)">
                        <path d="M-2.727,-2.727C-4.233,-2.727 -5.454,-1.506 -5.454,0C-5.454,1.506 -4.233,2.727 -2.727,2.727C-1.221,2.727 0,1.506 0,0C0,-1.506 -1.221,-2.727 -2.727,-2.727" style="fill:rgb(242,84,91);fill-opacity:0.4;fill-rule:nonzero;"/>
                    </g>
                    <g transform="matrix(0,-1,-1,0,25.7647,29.5399)">
                        <path d="M-2.968,-2.968C-4.607,-2.968 -5.936,-1.639 -5.936,-0C-5.936,1.639 -4.607,2.968 -2.968,2.968C-1.329,2.968 -0,1.639 -0,-0C-0,-1.639 -1.329,-2.968 -2.968,-2.968" style="fill:rgb(242,84,91);fill-opacity:0.6;fill-rule:nonzero;"/>
                    </g>
                    <g transform="matrix(-1,-5.55112e-17,-5.55112e-17,1,21.6499,32.9627)">
                        <path d="M-2.809,-1.811C-4.512,-1.811 -5.893,-0.43 -5.893,1.274C-5.893,2.977 -4.512,4.358 -2.809,4.358C-1.105,4.357 0.275,2.977 0.276,1.273C0.275,-0.43 -1.106,-1.811 -2.809,-1.811" style="fill:rgb(242,84,91);fill-opacity:0.8;fill-rule:nonzero;"/>
                    </g>
                    <g transform="matrix(-1,-6.12323e-17,-6.12323e-17,1,18.9706,36.6428)">
                        <path d="M-3.669,-3.669C-5.695,-3.669 -7.338,-2.026 -7.338,0C-7.338,2.026 -5.695,3.669 -3.669,3.669C-1.643,3.669 0,2.026 0,0C0,-2.026 -1.643,-3.669 -3.669,-3.669" style="fill:rgb(242,84,91);fill-rule:nonzero;"/>
                    </g>
                </g>
                <g id="Dot7">
                    <g transform="matrix(-1,5.55112e-17,5.55112e-17,1,37.4953,47.6466)">
                        <path d="M1.791,-0.671C0.286,-0.671 -0.936,0.55 -0.935,2.056C-0.936,3.562 0.285,4.783 1.791,4.783C3.297,4.783 4.518,3.562 4.518,2.056C4.518,0.55 3.297,-0.671 1.791,-0.671" style="fill:rgb(2,169,234);fill-opacity:0.4;fill-rule:nonzero;"/>
                    </g>
                    <g transform="matrix(-1,-1.11022e-16,-1.11022e-16,1,37.2076,45.3447)">
                        <path d="M1.949,-0.73C0.31,-0.73 -1.018,0.598 -1.018,2.238C-1.018,3.877 0.311,5.206 1.949,5.205C3.589,5.205 4.917,3.877 4.917,2.237C4.917,0.598 3.589,-0.73 1.949,-0.73" style="fill:rgb(2,169,234);fill-opacity:0.6;fill-rule:nonzero;"/>
                    </g>
                    <g transform="matrix(-1,1.66533e-16,1.66533e-16,1,37.6194,44.1812)">
                        <path d="M2.806,-1.804C1.103,-1.803 -0.278,-0.423 -0.279,1.281C-0.278,2.984 1.103,4.365 2.806,4.365C4.509,4.365 5.89,2.984 5.891,1.281C5.89,-0.423 4.509,-1.804 2.806,-1.804" style="fill:rgb(2,169,234);fill-opacity:0.8;fill-rule:nonzero;"/>
                    </g>
                    <g transform="matrix(-1,5.55112e-17,5.55112e-17,1,36.6045,39.7434)">
                        <path d="M2.411,-0.903C0.384,-0.903 -1.258,0.74 -1.259,2.766C-1.259,4.792 0.384,6.435 2.411,6.435C4.437,6.436 6.079,4.793 6.08,2.767C6.08,0.74 4.437,-0.902 2.411,-0.903" style="fill:rgb(2,169,234);fill-rule:nonzero;"/>
                    </g>
                </g>
                <g id="Dot6">
                    <g transform="matrix(-1,1.11022e-16,1.11022e-16,1,48.8843,31.285)">
                        <path d="M-1.609,-0.525C-3.116,-0.525 -4.336,0.696 -4.336,2.202C-4.335,3.708 -3.114,4.928 -1.609,4.928C-0.103,4.928 1.118,3.707 1.118,2.201C1.118,0.695 -0.103,-0.526 -1.609,-0.525" style="fill:rgb(2,169,234);fill-opacity:0.4;fill-rule:nonzero;"/>
                    </g>
                    <g transform="matrix(-1,0,0,1,46.5751,31.0564)">
                        <path d="M-1.752,-0.572C-3.391,-0.572 -4.72,0.757 -4.719,2.396C-4.72,4.035 -3.391,5.363 -1.752,5.363C-0.112,5.364 1.216,4.034 1.216,2.396C1.216,0.756 -0.113,-0.572 -1.752,-0.572" style="fill:rgb(2,169,234);fill-opacity:0.6;fill-rule:nonzero;"/>
                    </g>
                    <g transform="matrix(-1,-2.77556e-17,-2.77556e-17,1,45.5312,30.3986)">
                        <path d="M-0.63,-0.065C-2.332,-0.065 -3.714,1.316 -3.714,3.019C-3.714,4.722 -2.333,6.104 -0.63,6.103C1.073,6.103 2.455,4.722 2.455,3.019C2.454,1.316 1.073,-0.065 -0.63,-0.065" style="fill:rgb(2,169,234);fill-opacity:0.8;fill-rule:nonzero;"/>
                    </g>
                    <g transform="matrix(-1,1.66533e-16,1.66533e-16,1,40.9783,30.4072)">
                        <path d="M-2.165,-0.707C-4.192,-0.707 -5.834,0.936 -5.835,2.961C-5.835,4.988 -4.192,6.631 -2.166,6.631C-0.139,6.631 1.503,4.988 1.503,2.962C1.504,0.936 -0.139,-0.707 -2.165,-0.707" style="fill:rgb(2,169,234);fill-rule:nonzero;"/>
                    </g>
                </g>
                <g id="Dot5">
                    <g transform="matrix(-1,2.22045e-16,2.22045e-16,1,37.4033,22.5644)">
                        <path d="M2.762,-1.884C1.123,-1.884 -0.206,-0.555 -0.206,1.084C-0.205,2.723 1.124,4.052 2.762,4.052C4.401,4.052 5.73,2.723 5.73,1.084C5.731,-0.555 4.402,-1.884 2.762,-1.884" style="fill:rgb(2,169,234);fill-opacity:0.6;fill-rule:nonzero;"/>
                    </g>
                    <g transform="matrix(-1,0,0,1,36.5946,24.7396)">
                        <path d="M2.538,-1.731C1.032,-1.731 -0.188,-0.51 -0.188,0.996C-0.188,2.502 1.032,3.723 2.538,3.723C4.044,3.723 5.265,2.501 5.265,0.995C5.265,-0.511 4.044,-1.731 2.538,-1.731" style="fill:rgb(2,169,234);fill-opacity:0.4;fill-rule:nonzero;"/>
                    </g>
                    <g transform="matrix(-1,1.94289e-16,1.94289e-16,1,38.3059,21.7224)">
                        <path d="M3.08,-3.244C1.377,-3.245 -0.004,-1.863 -0.004,-0.16C-0.005,1.543 1.377,2.924 3.08,2.924C4.783,2.925 6.164,1.543 6.164,-0.16C6.165,-1.863 4.783,-3.244 3.08,-3.244" style="fill:rgb(2,169,234);fill-opacity:0.8;fill-rule:nonzero;"/>
                    </g>
                    <g transform="matrix(-1,1.66533e-16,1.66533e-16,1,39.4559,17.3181)">
                        <path d="M3.416,-2.329C1.39,-2.329 -0.254,-0.686 -0.254,1.341C-0.254,3.367 1.39,5.009 3.416,5.009C5.442,5.009 7.085,3.366 7.085,1.34C7.085,-0.687 5.441,-2.329 3.416,-2.329" style="fill:rgb(2,169,234);fill-rule:nonzero;"/>
                    </g>
                </g>
                <g id="Dot4">
                    <g transform="matrix(-1,0,0,1,55.624,23.5338)">
                        <path d="M2.538,-1.731C1.032,-1.731 -0.188,-0.51 -0.188,0.996C-0.188,2.502 1.032,3.723 2.538,3.723C4.044,3.723 5.265,2.501 5.265,0.995C5.265,-0.511 4.044,-1.731 2.538,-1.731" style="fill:rgb(2,169,234);fill-opacity:0.4;fill-rule:nonzero;"/>
                    </g>
                    <g transform="matrix(-1,2.22045e-16,2.22045e-16,1,56.4327,21.3586)">
                        <path d="M2.762,-1.884C1.123,-1.884 -0.206,-0.555 -0.206,1.084C-0.205,2.723 1.124,4.052 2.762,4.052C4.401,4.052 5.73,2.723 5.73,1.084C5.731,-0.555 4.402,-1.884 2.762,-1.884" style="fill:rgb(2,169,234);fill-opacity:0.6;fill-rule:nonzero;"/>
                    </g>
                    <g transform="matrix(-1,1.94289e-16,1.94289e-16,1,57.3353,20.5167)">
                        <path d="M3.08,-3.244C1.377,-3.245 -0.004,-1.863 -0.004,-0.16C-0.005,1.543 1.377,2.924 3.08,2.924C4.783,2.925 6.164,1.543 6.164,-0.16C6.165,-1.863 4.783,-3.244 3.08,-3.244" style="fill:rgb(2,169,234);fill-opacity:0.8;fill-rule:nonzero;"/>
                    </g>
                    <g transform="matrix(-1,1.66533e-16,1.66533e-16,1,58.4853,16.1123)">
                        <path d="M3.416,-2.329C1.39,-2.329 -0.254,-0.686 -0.254,1.341C-0.254,3.367 1.39,5.009 3.416,5.009C5.442,5.009 7.085,3.366 7.085,1.34C7.085,-0.687 5.441,-2.329 3.416,-2.329" style="fill:rgb(2,169,234);fill-rule:nonzero;"/>
                    </g>
                </g>
                <g id="Dot3">
                    <g transform="matrix(-1,0,0,1,50.4284,55.9065)">
                        <path d="M2.538,-1.731C1.032,-1.731 -0.188,-0.51 -0.188,0.996C-0.188,2.502 1.032,3.723 2.538,3.723C4.044,3.723 5.265,2.501 5.265,0.995C5.265,-0.511 4.044,-1.731 2.538,-1.731" style="fill:rgb(2,169,234);fill-opacity:0.4;fill-rule:nonzero;"/>
                    </g>
                    <g transform="matrix(-1,2.22045e-16,2.22045e-16,1,51.2371,53.7313)">
                        <path d="M2.762,-1.884C1.123,-1.884 -0.206,-0.555 -0.206,1.084C-0.205,2.723 1.124,4.052 2.762,4.052C4.401,4.052 5.73,2.723 5.73,1.084C5.731,-0.555 4.402,-1.884 2.762,-1.884" style="fill:rgb(2,169,234);fill-opacity:0.6;fill-rule:nonzero;"/>
                    </g>
                    <g transform="matrix(-1,1.94289e-16,1.94289e-16,1,52.1396,52.8894)">
                        <path d="M3.08,-3.244C1.377,-3.245 -0.004,-1.863 -0.004,-0.16C-0.005,1.543 1.377,2.924 3.08,2.924C4.783,2.925 6.164,1.543 6.164,-0.16C6.165,-1.863 4.783,-3.244 3.08,-3.244" style="fill:rgb(2,169,234);fill-opacity:0.8;fill-rule:nonzero;"/>
                    </g>
                    <g transform="matrix(-1,1.66533e-16,1.66533e-16,1,53.2897,48.485)">
                        <path d="M3.416,-2.329C1.39,-2.329 -0.254,-0.686 -0.254,1.341C-0.254,3.367 1.39,5.009 3.416,5.009C5.442,5.009 7.085,3.366 7.085,1.34C7.085,-0.687 5.441,-2.329 3.416,-2.329" style="fill:rgb(2,169,234);fill-rule:nonzero;"/>
                    </g>
                </g>
                <g id="Dot2">
                    <g transform="matrix(-1,1.11022e-16,1.11022e-16,1,23.3216,17.7062)">
                        <path d="M-1.609,-0.525C-3.116,-0.525 -4.336,0.696 -4.336,2.202C-4.335,3.708 -3.114,4.928 -1.609,4.928C-0.103,4.928 1.118,3.707 1.118,2.201C1.118,0.695 -0.103,-0.526 -1.609,-0.525" style="fill:rgb(2,169,234);fill-opacity:0.4;fill-rule:nonzero;"/>
                    </g>
                    <g transform="matrix(-1,-4.44089e-16,-4.44089e-16,1,21.0124,17.4776)">
                        <path d="M-1.752,-0.572C-3.391,-0.572 -4.72,0.757 -4.719,2.396C-4.72,4.035 -3.391,5.363 -1.752,5.363C-0.112,5.364 1.216,4.034 1.216,2.396C1.216,0.756 -0.113,-0.572 -1.752,-0.572" style="fill:rgb(2,169,234);fill-opacity:0.6;fill-rule:nonzero;"/>
                    </g>
                    <g transform="matrix(-1,-2.77556e-17,-2.77556e-17,1,19.9685,16.8198)">
                        <path d="M-0.63,-0.065C-2.332,-0.065 -3.714,1.316 -3.714,3.019C-3.714,4.722 -2.333,6.104 -0.63,6.103C1.073,6.103 2.455,4.722 2.455,3.019C2.454,1.316 1.073,-0.065 -0.63,-0.065" style="fill:rgb(2,169,234);fill-opacity:0.8;fill-rule:nonzero;"/>
                    </g>
                    <g transform="matrix(-1,1.66533e-16,1.66533e-16,1,15.4156,16.8285)">
                        <path d="M-2.165,-0.707C-4.192,-0.707 -5.834,0.936 -5.835,2.961C-5.835,4.988 -4.192,6.631 -2.166,6.631C-0.139,6.631 1.503,4.988 1.503,2.962C1.504,0.936 -0.139,-0.707 -2.165,-0.707" style="fill:rgb(2,169,234);fill-rule:nonzero;"/>
                    </g>
                </g>
                <g id="Dot1">
                    <g transform="matrix(-1,1.11022e-16,1.11022e-16,1,23.8368,48.4498)">
                        <path d="M-1.609,-0.525C-3.116,-0.525 -4.336,0.696 -4.336,2.202C-4.335,3.708 -3.114,4.928 -1.609,4.928C-0.103,4.928 1.118,3.707 1.118,2.201C1.118,0.695 -0.103,-0.526 -1.609,-0.525" style="fill:rgb(2,169,234);fill-opacity:0.4;fill-rule:nonzero;"/>
                    </g>
                    <g transform="matrix(-1,-4.44089e-16,-4.44089e-16,1,21.5276,48.2212)">
                        <path d="M-1.752,-0.572C-3.391,-0.572 -4.72,0.757 -4.719,2.396C-4.72,4.035 -3.391,5.363 -1.752,5.363C-0.112,5.364 1.216,4.034 1.216,2.396C1.216,0.756 -0.113,-0.572 -1.752,-0.572" style="fill:rgb(2,169,234);fill-opacity:0.6;fill-rule:nonzero;"/>
                    </g>
                    <g transform="matrix(-1,-2.77556e-17,-2.77556e-17,1,20.4837,47.5634)">
                        <path d="M-0.63,-0.065C-2.332,-0.065 -3.714,1.316 -3.714,3.019C-3.714,4.722 -2.333,6.104 -0.63,6.103C1.073,6.103 2.455,4.722 2.455,3.019C2.454,1.316 1.073,-0.065 -0.63,-0.065" style="fill:rgb(2,169,234);fill-opacity:0.8;fill-rule:nonzero;"/>
                    </g>
                    <g transform="matrix(-1,1.66533e-16,1.66533e-16,1,15.9308,47.572)">
                        <path d="M-2.165,-0.707C-4.192,-0.707 -5.834,0.936 -5.835,2.961C-5.835,4.988 -4.192,6.631 -2.166,6.631C-0.139,6.631 1.503,4.988 1.503,2.962C1.504,0.936 -0.139,-0.707 -2.165,-0.707" style="fill:rgb(2,169,234);fill-rule:nonzero;"/>
                    </g>
                </g>
            </g>
        </g>
    </g>
</svg>
