<?xml version="1.0" encoding="UTF-8" standalone="no"?>
<!DOCTYPE svg PUBLIC "-//W3C//DTD SVG 1.1//EN" "http://www.w3.org/Graphics/SVG/1.1/DTD/svg11.dtd">
<svg width="100%" height="100%" viewBox="0 0 32 32" version="1.1" xmlns="http://www.w3.org/2000/svg" xmlns:xlink="http://www.w3.org/1999/xlink" xml:space="preserve" xmlns:serif="http://www.serif.com/" style="fill-rule:evenodd;clip-rule:evenodd;stroke-linecap:round;stroke-linejoin:round;stroke-miterlimit:1.5;">
    <g id="light-components-SoundSensorComponent" serif:id="light/components/SoundSensorComponent" transform="matrix(0.451519,0,0,0.451519,0,0)">
        <rect x="0" y="0" width="70.872" height="70.866" style="fill:none;"/>
        <g transform="matrix(1.5098,0,0,1.5098,-0.743616,-3.10055)">
            <g transform="matrix(1,0,0,1,-1.5,6.5)">
                <path d="M22,5C18.5,4.492 11.5,3.475 11.5,8.5C11.5,14.5 36.5,14.5 36.5,22.5C36.5,28.5 23.5,29.167 17,29.5" style="fill:none;stroke:var(--outline);stroke-width:2.93px;"/>
            </g>
            <g id="box" transform="matrix(1,0,0,1,12,-26)">
                <g transform="matrix(0.952381,0,0,1.16667,5.64286,-7.5)">
                    <path d="M25.099,33C26.812,33 28.2,34.133 28.2,35.531C28.2,37.572 28.2,40.428 28.2,42.469C28.2,43.867 26.812,45 25.099,45C20.255,45 10.945,45 6.101,45C4.388,45 3,43.867 3,42.469C3,40.428 3,37.572 3,35.531C3,34.133 4.388,33 6.101,33C10.945,33 20.255,33 25.099,33Z" style="fill:none;stroke:var(--outline);stroke-width:2.75px;"/>
                </g>
                <g transform="matrix(2,0,0,2,-18.5,-40)">
                    <circle cx="17" cy="39" r="2" style="fill:var(--outline);fill-opacity:0.5;"/>
                </g>
                <g transform="matrix(2,0,0,2,-8.5,-40)">
                    <circle cx="17" cy="39" r="2" style="fill:rgb(37,169,234);"/>
                </g>
            </g>
            <g id="Microphone-Component" serif:id="Microphone Component" transform="matrix(0.435842,0,0,0.435842,-2.53378,17.0846)">
                <g transform="matrix(1,0,0,1,57.8779,20.598)">
                    <path d="M0,9.902L-11.564,21.466C-11.343,19.753 -11.208,17.99 -11.174,16.193C-11.14,14.328 -12.632,12.768 -14.497,12.734C-16.311,12.683 -17.922,14.192 -17.956,16.057C-18.041,20.499 -18.787,24.823 -20.059,28.265C-23.568,29.333 -27.536,28.468 -30.3,25.705L-31.317,24.687L-41.202,14.802C-44.95,11.055 -45.187,5.137 -41.914,1.119L-29.045,13.988C-28.367,14.65 -27.502,14.989 -26.637,14.989C-25.773,14.989 -24.908,14.65 -24.247,13.988C-22.924,12.666 -22.924,10.512 -24.247,9.19L-37.167,-3.73L-35.302,-5.595L-22.788,6.901C-22.127,7.562 -21.262,7.901 -20.398,7.901C-19.533,7.901 -18.668,7.562 -18.007,6.901C-16.667,5.578 -16.667,3.442 -18.007,2.102L-30.503,-10.394L-28.638,-12.259L-16.549,-0.187C-15.887,0.475 -15.023,0.814 -14.158,0.814C-13.293,0.814 -12.412,0.475 -11.75,-0.187C-10.428,-1.509 -10.428,-3.646 -11.75,-4.968L-23.67,-16.888C-19.702,-19.431 -14.362,-18.956 -10.902,-15.498L0,-4.595C4.002,-0.594 4.002,5.9 0,9.902" style="fill:rgb(242,84,91);fill-rule:nonzero;"/>
                </g>
                <g transform="matrix(1,0,0,1,48.62,37.9944)">
                    <path d="M0,23.738C0,26.332 -7.054,28.452 -15.769,28.452C-24.467,28.452 -31.521,26.332 -31.521,23.738C-31.521,22.042 -28.57,20.567 -24.128,19.736C-27.434,15.362 -29.554,8.19 -29.622,-0.271L-22.059,7.291C-20.788,13.632 -18.126,17.515 -16.125,17.549L-16.091,17.549C-14.785,17.549 -13.073,15.786 -11.716,13.022C-11.377,12.361 -11.089,11.632 -10.801,10.869C-9.529,7.427 -8.783,3.103 -8.698,-1.34C-8.664,-3.205 -7.054,-4.714 -5.239,-4.663C-3.374,-4.629 -1.882,-3.069 -1.916,-1.204C-1.95,0.593 -2.086,2.357 -2.306,4.069C-2.849,8.546 -3.985,12.666 -5.629,16.006C-6.29,17.38 -7.037,18.6 -7.85,19.652C-3.154,20.465 0,21.992 0,23.738" style="fill:var(--outline);fill-rule:nonzero;"/>
                </g>
            </g>
        </g>
    </g>
</svg>
