<?xml version="1.0" encoding="UTF-8" standalone="no"?>
<!DOCTYPE svg PUBLIC "-//W3C//DTD SVG 1.1//EN" "http://www.w3.org/Graphics/SVG/1.1/DTD/svg11.dtd">
<svg width="100%" height="100%" viewBox="0 0 32 32" version="1.1" xmlns="http://www.w3.org/2000/svg" xmlns:xlink="http://www.w3.org/1999/xlink" xml:space="preserve" xmlns:serif="http://www.serif.com/" style="fill-rule:evenodd;clip-rule:evenodd;stroke-linecap:round;stroke-linejoin:bevel;stroke-miterlimit:10;">
    <g id="light-components-SoundComponent" serif:id="light/components/SoundComponent" transform="matrix(0.451519,0,0,0.451519,0,0)">
        <rect x="0" y="0" width="70.872" height="70.866" style="fill:none;"/>
        <g id="Sound-Component" serif:id="Sound Component" transform="matrix(0.99163,0,0,0.99163,3.44776,0.125764)">
            <g transform="matrix(0.00116851,0.999999,0.999999,-0.00116851,63.8912,32.149)">
                <path d="M-8.976,-15.831C-2.107,-8.979 9.004,-8.979 15.842,-15.831" style="fill:none;fill-rule:nonzero;stroke:rgb(242,84,91);stroke-width:3px;"/>
            </g>
            <g transform="matrix(0.00114852,0.999999,0.999999,-0.00114852,73.2983,31.0041)">
                <path d="M-11.966,-21.106C-2.809,-11.97 12.004,-11.97 21.12,-21.106" style="fill:none;fill-rule:nonzero;stroke:rgb(242,84,91);stroke-width:3px;"/>
            </g>
            <g transform="matrix(1,0,0,1,36.2474,59.7733)">
                <path d="M0,-48.336C-1.408,-48.336 -2.732,-47.833 -3.829,-46.881C-4.966,-45.895 -6.105,-44.912 -7.245,-43.928L-8.182,-43.12L-10.096,-41.471C-11.713,-40.078 -13.331,-38.685 -14.939,-37.281C-16.5,-37.288 -18.066,-37.29 -19.631,-37.29C-21.289,-37.29 -22.947,-37.288 -24.605,-37.284C-28.235,-37.275 -30.773,-34.734 -30.777,-31.103C-30.779,-29.864 -30.778,-28.626 -30.778,-27.388L-30.778,-25.878L-30.777,-23.567C-30.776,-21.469 -30.775,-19.372 -30.781,-17.274C-30.785,-15.489 -30.1,-13.923 -28.8,-12.746C-27.152,-11.255 -25.277,-11.254 -24.66,-11.254L-22.535,-11.253L-19.572,-11.252C-18.108,-11.252 -16.642,-11.253 -15.178,-11.258C-14.937,-11.047 -14.7,-10.847 -14.467,-10.65C-14.303,-10.511 -14.139,-10.372 -13.976,-10.232L-12.001,-8.526L-8.235,-5.272L-6.841,-4.064C-5.82,-3.178 -4.798,-2.291 -3.769,-1.414C-2.699,-0.503 -1.352,0 0.024,0C1.616,0 3.12,-0.647 4.259,-1.821C5.363,-2.959 5.922,-4.428 5.92,-6.187C5.917,-10.905 5.917,-15.623 5.918,-20.341L5.918,-42.023C5.92,-42.257 5.918,-42.492 5.903,-42.725C5.746,-45.153 4.361,-47.096 2.196,-47.921C1.475,-48.196 0.736,-48.336 0,-48.336M0,-44.336C0.251,-44.336 0.509,-44.284 0.771,-44.184C1.541,-43.89 1.861,-43.256 1.912,-42.466C1.923,-42.285 1.918,-42.102 1.918,-41.919L1.918,-24.143C1.918,-18.157 1.916,-12.171 1.92,-6.185C1.921,-5.593 1.82,-5.051 1.388,-4.607C1.001,-4.208 0.514,-4 0.024,-4C-0.393,-4 -0.812,-4.15 -1.175,-4.459C-2.665,-5.729 -4.138,-7.018 -5.619,-8.298C-7.533,-9.952 -9.447,-11.605 -11.361,-13.259C-11.95,-13.767 -12.558,-14.256 -13.12,-14.793C-13.47,-15.128 -13.841,-15.261 -14.319,-15.261L-14.329,-15.261C-16.077,-15.254 -17.825,-15.252 -19.572,-15.252C-21.268,-15.252 -22.963,-15.254 -24.659,-15.254C-25.191,-15.254 -25.691,-15.327 -26.115,-15.712C-26.583,-16.135 -26.782,-16.642 -26.781,-17.264C-26.773,-20.136 -26.778,-23.007 -26.778,-25.878C-26.778,-27.618 -26.779,-29.358 -26.777,-31.098C-26.775,-32.548 -26.055,-33.28 -24.596,-33.284C-22.941,-33.288 -21.286,-33.29 -19.631,-33.29C-17.831,-33.29 -16.03,-33.287 -14.229,-33.278L-14.215,-33.278C-13.675,-33.278 -13.263,-33.432 -12.852,-33.792C-10.437,-35.907 -7.998,-37.995 -5.568,-40.092C-4.114,-41.347 -2.658,-42.601 -1.207,-43.86C-0.832,-44.186 -0.425,-44.336 0,-44.336" style="fill:var(--outline);fill-rule:nonzero;"/>
            </g>
        </g>
    </g>
</svg>
