<?xml version="1.0" encoding="UTF-8" standalone="no"?>
<!DOCTYPE svg PUBLIC "-//W3C//DTD SVG 1.1//EN" "http://www.w3.org/Graphics/SVG/1.1/DTD/svg11.dtd">
<svg width="100%" height="100%" viewBox="0 0 32 32" version="1.1" xmlns="http://www.w3.org/2000/svg" xmlns:xlink="http://www.w3.org/1999/xlink" xml:space="preserve" xmlns:serif="http://www.serif.com/" style="fill-rule:evenodd;clip-rule:evenodd;stroke-miterlimit:10;">
    <g id="light-components-BrushComponent" serif:id="light/components/BrushComponent" transform="matrix(0.451519,0,0,0.451519,0,0)">
        <rect x="0" y="0" width="70.872" height="70.866" style="fill:none;"/>
        <clipPath id="_clip1">
            <rect x="0" y="0" width="70.872" height="70.866"/>
        </clipPath>
        <g clip-path="url(#_clip1)">
            <g id="Brush-Component" serif:id="Brush Component" transform="matrix(1.04598,0,0,1.04598,-1.89518,-2.85414)">
                <g transform="matrix(1,0,0,1,59.3863,15.2264)">
                    <path d="M0,6.571C-3.293,14.441 -6.585,16.168 -7.308,15.979C-8.818,15.585 -6.992,6.901 -9.443,5.939C-11.106,5.286 -13.479,10.601 -15.108,10.102C-16.217,9.765 -16.955,6.999 -16.933,3.615C-16.926,3.601 -16.919,3.58 -16.919,3.566C-16.828,3.089 -16.821,2.618 -16.877,2.148C-17.404,-2.633 -24.642,-6.501 -23.884,-7.765C-22.768,-9.597 -4.072,-6.747 0,6.571" style="fill:rgb(242,84,91);fill-rule:nonzero;"/>
                </g>
                <g transform="matrix(1,0,0,1,35.7764,43.7854)">
                    <path d="M0,-36.323C-0.838,-34.944 7.963,-30.422 6.961,-24.994C6.182,-20.772 0.37,-20.857 -1.774,-15.439C-3.375,-11.397 -2.263,-5.987 0.955,-2.882C5.843,1.834 14.667,0.343 19.655,-3.974C25.334,-8.889 25.433,-16.94 23.887,-21.991C19.809,-35.309 1.115,-38.157 0,-36.323Z" style="fill:none;fill-rule:nonzero;stroke:var(--outline);stroke-width:4px;"/>
                </g>
                <g transform="matrix(1,0,0,1,35.363,66.6627)">
                    <path d="M0,-24.438C-1.486,-25.219 -3.312,-24.946 -4.512,-23.772C-18.872,-9.708 -25.495,-1.995 -24.377,-0.634C-23.216,0.781 -13.698,-4.663 4.179,-16.965C6.152,-18.323 5.982,-21.296 3.862,-22.41L0,-24.438Z" style="fill:none;fill-rule:nonzero;stroke:var(--outline);stroke-width:4px;"/>
                </g>
            </g>
        </g>
    </g>
</svg>
