<?xml version="1.0" encoding="UTF-8" standalone="no"?>
<!DOCTYPE svg PUBLIC "-//W3C//DTD SVG 1.1//EN" "http://www.w3.org/Graphics/SVG/1.1/DTD/svg11.dtd">
<svg width="100%" height="100%" viewBox="0 0 32 32" version="1.1" xmlns="http://www.w3.org/2000/svg" xmlns:xlink="http://www.w3.org/1999/xlink" xml:space="preserve" xmlns:serif="http://www.serif.com/" style="fill-rule:evenodd;clip-rule:evenodd;stroke-linejoin:round;stroke-miterlimit:2;">
    <g id="ImageComponent" transform="matrix(0.451519,0,0,0.451519,0,0)">
        <rect x="0" y="0" width="70.872" height="70.866" style="fill:none;"/>
        <g id="Image-Component" serif:id="Image Component" transform="matrix(1.05056,0,0,1.05056,-1.79155,-1.7914)">
            <path id="Frame" d="M14.46,10.135C10.354,10.135 7.025,13.464 7.025,17.571L7.025,53.295C7.025,57.402 10.354,60.731 14.46,60.731L56.411,60.731C60.518,60.731 63.847,57.402 63.847,53.295L63.847,17.571C63.847,13.464 60.518,10.135 56.411,10.135L14.46,10.135Z" style="fill:none;fill-rule:nonzero;"/>
            <clipPath id="_clip1">
                <path id="Frame1" serif:id="Frame" d="M14.46,10.135C10.354,10.135 7.025,13.464 7.025,17.571L7.025,53.295C7.025,57.402 10.354,60.731 14.46,60.731L56.411,60.731C60.518,60.731 63.847,57.402 63.847,53.295L63.847,17.571C63.847,13.464 60.518,10.135 56.411,10.135L14.46,10.135Z" clip-rule="nonzero"/>
            </clipPath>
            <g clip-path="url(#_clip1)">
                <g id="Sky" transform="matrix(-1,0,0,1,66.724,0.6631)">
                    <rect x="-6.532" y="1.239" width="79.788" height="67.725" style="fill:rgb(2,169,234);"/>
                </g>
                <g id="Sun" transform="matrix(0,1,1,0,27.8961,12.7452)">
                    <path d="M10.24,-10.24C4.585,-10.24 0.001,-5.656 0.001,-0.001C0.001,5.655 4.585,10.24 10.24,10.24C15.894,10.24 20.478,5.655 20.478,-0.001C20.478,-5.656 15.894,-10.24 10.24,-10.24" style="fill:var(--mantle);fill-rule:nonzero;"/>
                </g>
                <g id="Mountains" transform="matrix(1,0,0,1,-478.385,0)">
                    <path d="M484,41.774L496.338,27.38C497.941,25.509 500.887,25.688 502.253,27.737L510.432,40.01L527.58,20.004C528.661,18.742 530.648,18.862 531.57,20.245L544,38.899L544,65L484,65L484,41.774Z" style="fill:var(--outline);"/>
                </g>
            </g>
        </g>
    </g>
</svg>
