<?xml version="1.0" encoding="UTF-8" standalone="no"?>
<!DOCTYPE svg PUBLIC "-//W3C//DTD SVG 1.1//EN" "http://www.w3.org/Graphics/SVG/1.1/DTD/svg11.dtd">
<svg width="100%" height="100%" viewBox="0 0 32 32" version="1.1" xmlns="http://www.w3.org/2000/svg" xmlns:xlink="http://www.w3.org/1999/xlink" xml:space="preserve" xmlns:serif="http://www.serif.com/" style="fill-rule:evenodd;clip-rule:evenodd;stroke-linejoin:round;stroke-miterlimit:2;">
    <g id="UnknownPluginComponent" transform="matrix(0.451519,0,0,0.451519,0,0)">
        <rect x="0" y="0" width="70.872" height="70.866" style="fill:none;"/>
        <g transform="matrix(3.09249,0,0,3.09249,-1064.78,-1309.28)">
            <path d="M356.56,440.594C356.56,440.449 356.586,440.314 356.639,440.187C356.692,440.06 356.765,439.949 356.859,439.853C356.953,439.757 357.063,439.682 357.19,439.627C357.317,439.573 357.455,439.545 357.603,439.545C357.744,439.545 357.876,439.573 358.001,439.627C358.126,439.682 358.236,439.757 358.33,439.853C358.423,439.949 358.498,440.06 358.552,440.187C358.607,440.314 358.634,440.449 358.634,440.594C358.634,440.739 358.607,440.874 358.552,441.001C358.498,441.128 358.423,441.239 358.33,441.332C358.236,441.426 358.126,441.5 358.001,441.555C357.876,441.61 357.744,441.637 357.603,441.637C357.455,441.637 357.317,441.61 357.19,441.555C357.063,441.5 356.953,441.426 356.859,441.332C356.765,441.239 356.692,441.128 356.639,441.001C356.586,440.874 356.56,440.739 356.56,440.594ZM356.695,439.153C356.695,438.879 356.699,438.639 356.707,438.432C356.714,438.225 356.731,438.04 356.756,437.878C356.782,437.716 356.819,437.572 356.868,437.445C356.916,437.318 356.981,437.199 357.061,437.09C357.141,436.981 357.24,436.874 357.357,436.771C357.474,436.667 357.617,436.557 357.785,436.44C357.964,436.291 358.113,436.156 358.23,436.032C358.347,435.909 358.439,435.787 358.505,435.666C358.572,435.545 358.619,435.42 358.646,435.291C358.673,435.162 358.687,435.018 358.687,434.858C358.687,434.627 358.629,434.44 358.514,434.295C358.399,434.151 358.244,434.078 358.048,434.078C357.927,434.078 357.815,434.092 357.711,434.119C357.608,434.147 357.517,434.198 357.439,434.272C357.361,434.346 357.299,434.448 357.254,434.576C357.209,434.705 357.187,434.871 357.187,435.074L355.324,434.893C355.332,434.463 355.407,434.089 355.549,433.771C355.692,433.452 355.887,433.188 356.135,432.977C356.383,432.766 356.676,432.609 357.014,432.505C357.352,432.402 357.72,432.35 358.119,432.35C358.49,432.35 358.837,432.405 359.162,432.514C359.486,432.623 359.768,432.785 360.008,433C360.249,433.215 360.438,433.479 360.577,433.791C360.715,434.104 360.785,434.463 360.785,434.869C360.785,435.295 360.687,435.686 360.492,436.041C360.296,436.397 359.998,436.733 359.595,437.049C359.388,437.198 359.216,437.336 359.08,437.465C358.943,437.594 358.833,437.735 358.751,437.887C358.669,438.039 358.612,438.215 358.579,438.414C358.545,438.614 358.529,438.86 358.529,439.153L356.695,439.153Z" style="fill:rgb(242,84,91);fill-rule:nonzero;"/>
        </g>
        <g transform="matrix(1.0654,0,0,1.0654,-334.767,-419.5)">
            <path d="M329.872,418.972L329.936,418.338L330.528,416.43L331.462,414.71L332.692,413.219L334.184,411.988L335.904,411.054L337.811,410.462L339.842,410.257L339.866,410.257C339.819,409.717 339.795,409.137 339.795,408.506L340.085,406.106L340.883,403.939L342.041,402.106L343.43,400.61C345.824,398.433 349.621,396.824 353.977,396.824C358.333,396.824 362.13,398.433 364.524,400.61L365.913,402.106L367.071,403.939L367.869,406.106L368.159,408.506C368.159,409.137 368.135,409.717 368.088,410.257L368.548,410.257L370.529,410.453L372.417,411.027L374.157,411.956L375.697,413.219L376.96,414.759L377.889,416.499L378.463,418.386L378.659,420.368L378.659,447.077L378.463,449.059L377.889,450.946L376.96,452.686L375.697,454.226L374.157,455.489L372.417,456.418L370.53,456.992L368.548,457.188L339.842,457.188L337.86,456.992L335.973,456.418L334.232,455.489L332.692,454.226L331.43,452.686L330.501,450.946L329.927,449.059L329.731,447.077L329.731,446.893L327.977,447.188L325.577,446.898L323.41,446.1L321.577,444.942L320.081,443.553C317.904,441.159 316.295,437.362 316.295,433.006C316.295,428.65 317.904,424.853 320.081,422.459L321.577,421.07L323.41,419.912L325.577,419.114L327.977,418.824C328.659,418.824 329.287,418.877 329.872,418.972ZM347.977,413.326L347.979,413.327C348.447,414.046 348.484,414.963 348.075,415.716C347.666,416.47 346.878,416.939 346.02,416.939L339.842,416.939C337.948,416.939 336.413,418.474 336.413,420.368L336.413,425.388C336.413,426.273 335.938,427.089 335.17,427.528C334.401,427.966 333.457,427.958 332.695,427.508L332.692,427.506C331.286,426.673 330.152,425.506 327.977,425.506C325.217,425.506 322.977,428.867 322.977,433.006C322.977,437.145 325.217,440.506 327.977,440.506C330.394,440.506 331.471,438.505 332.877,437.505C333.56,437.02 334.457,436.956 335.201,437.34C335.946,437.724 336.413,438.492 336.413,439.33L336.413,447.077C336.413,447.986 336.774,448.858 337.417,449.502C338.06,450.145 338.932,450.506 339.842,450.506L368.548,450.506C369.457,450.506 370.329,450.145 370.972,449.502C371.616,448.858 371.977,447.986 371.977,447.077L371.977,420.368C371.977,419.459 371.616,418.586 370.972,417.943C370.329,417.3 369.457,416.939 368.548,416.939L361.934,416.939C361.076,416.939 360.288,416.47 359.88,415.716C359.471,414.963 359.508,414.046 359.976,413.328L359.977,413.326C360.894,411.92 361.477,410.804 361.477,408.506C361.477,405.746 358.116,403.506 353.977,403.506C349.837,403.506 346.477,405.746 346.477,408.506C346.477,410.804 347.06,411.92 347.977,413.326Z" style="fill:rgb(102,102,110);"/>
        </g>
    </g>
</svg>
