<?xml version="1.0" encoding="UTF-8" standalone="no"?>
<!DOCTYPE svg PUBLIC "-//W3C//DTD SVG 1.1//EN" "http://www.w3.org/Graphics/SVG/1.1/DTD/svg11.dtd">
<svg width="100%" height="100%" viewBox="0 0 32 32" version="1.1" xmlns="http://www.w3.org/2000/svg" xmlns:xlink="http://www.w3.org/1999/xlink" xml:space="preserve" xmlns:serif="http://www.serif.com/" style="fill-rule:evenodd;clip-rule:evenodd;stroke-linecap:round;stroke-linejoin:round;stroke-miterlimit:1;">
    <g id="light-components-PavloviaSurveyRoutine" serif:id="light/components/PavloviaSurveyRoutine" transform="matrix(0.451519,0,0,0.451519,0,0)">
        <rect x="0" y="0" width="70.872" height="70.866" style="fill:none;"/>
        <clipPath id="_clip1">
            <rect x="0" y="0" width="70.872" height="70.866"/>
        </clipPath>
        <g clip-path="url(#_clip1)">
            <g id="Web-Form-Component" serif:id="Web Form Component">
            </g>
            <g id="Mask" transform="matrix(1.07125,0,0,1.07125,-514.921,-426.523)">
                <path d="M546.829,398.153L480.671,398.153L480.671,464.311L546.829,464.311C546.829,464.311 546.829,413.581 546.829,410.558L537.484,424.871C535.048,428.692 530.741,431.233 525.839,431.233C518.248,431.233 512.085,425.14 512.085,417.636C512.085,416.092 512.346,414.609 512.826,413.225L512.826,413.225C514.478,408.467 518.727,404.898 523.896,404.174C523.592,404.027 547.189,398.153 546.829,398.153Z" style="fill:none;"/>
                <clipPath id="_clip2">
                    <path d="M546.829,398.153L480.671,398.153L480.671,464.311L546.829,464.311C546.829,464.311 546.829,413.581 546.829,410.558L537.484,424.871C535.048,428.692 530.741,431.233 525.839,431.233C518.248,431.233 512.085,425.14 512.085,417.636C512.085,416.092 512.346,414.609 512.826,413.225L512.826,413.225C514.478,408.467 518.727,404.898 523.896,404.174C523.592,404.027 547.189,398.153 546.829,398.153Z"/>
                </clipPath>
                <g clip-path="url(#_clip2)">
                    <g transform="matrix(0.996942,0,0,0.987562,1.84428,5.96345)">
                        <path d="M534.274,413.928C534.274,410.405 531.444,407.548 527.954,407.548C520.275,407.548 507.397,407.548 499.719,407.548C496.228,407.548 493.399,410.405 493.399,413.928C493.399,423.576 493.399,441.771 493.399,451.418C493.399,454.942 496.228,457.798 499.719,457.798C507.397,457.798 520.275,457.798 527.954,457.798C531.444,457.798 534.274,454.942 534.274,451.418C534.274,441.771 534.274,423.576 534.274,413.928Z" style="fill:none;stroke:var(--outline);stroke-width:4.17px;"/>
                    </g>
                    <g id="Lines" transform="matrix(1,0,0,1,478.736,397.902)">
                        <g transform="matrix(1,0,0,1,-400.109,-377.546)">
                            <g transform="matrix(1,0,0,1,435.41,431.245)">
                                <path d="M-10.307,-5.664C-11.871,-5.664 -13.139,-4.396 -13.139,-2.832C-13.139,-1.268 -11.871,0 -10.307,0C-8.743,0 -7.475,-1.268 -7.475,-2.832C-7.475,-4.396 -8.743,-5.664 -10.307,-5.664Z" style="fill:var(--outline);fill-opacity:0.5;fill-rule:nonzero;"/>
                            </g>
                            <g transform="matrix(1,0,0,1,447.318,431.245)">
                                <path d="M0,-5.664L-14.845,-5.664C-16.409,-5.664 -17.677,-4.396 -17.677,-2.832C-17.677,-1.268 -16.409,0 -14.845,0L0,0C1.564,0 2.832,-1.268 2.832,-2.832C2.832,-4.396 1.564,-5.664 0,-5.664" style="fill:var(--outline);fill-rule:nonzero;"/>
                            </g>
                        </g>
                        <g transform="matrix(1,0,0,1,-400.109,-387.17)">
                            <g transform="matrix(1,0,0,1,447.318,431.245)">
                                <path d="M0,-5.664L-14.845,-5.664C-16.409,-5.664 -17.677,-4.396 -17.677,-2.832C-17.677,-1.268 -16.409,0 -14.845,0L0,0C1.564,0 2.832,-1.268 2.832,-2.832C2.832,-4.396 1.564,-5.664 0,-5.664" style="fill:var(--outline);fill-rule:nonzero;"/>
                            </g>
                            <g transform="matrix(-3.52039e-17,0.574923,0.574923,3.52039e-17,175.346,184.699)">
                                <path d="M421.056,438.36L426.761,432.655L424.108,430.002" style="fill:none;stroke:rgb(37,169,234);stroke-width:5.39px;"/>
                            </g>
                        </g>
                        <g transform="matrix(1,0,0,1,-400.109,-396.794)">
                            <g transform="matrix(1,0,0,1,435.41,431.245)">
                                <path d="M-10.307,-5.664C-11.871,-5.664 -13.139,-4.396 -13.139,-2.832C-13.139,-1.268 -11.871,0 -10.307,0C-8.743,0 -7.475,-1.268 -7.475,-2.832C-7.475,-4.396 -8.743,-5.664 -10.307,-5.664Z" style="fill:var(--outline);fill-opacity:0.5;fill-rule:nonzero;"/>
                            </g>
                            <g transform="matrix(1,0,0,1,447.318,431.245)">
                                <path d="M0,-5.664L-14.845,-5.664C-16.409,-5.664 -17.677,-4.396 -17.677,-2.832C-17.677,-1.268 -16.409,0 -14.845,0L0,0C1.564,0 2.832,-1.268 2.832,-2.832C2.832,-4.396 1.564,-5.664 0,-5.664" style="fill:var(--outline);fill-rule:nonzero;"/>
                            </g>
                        </g>
                        <g transform="matrix(1,0,0,1,47.7639,24.827)">
                            <path d="M0,-5.664L-22.77,-5.664C-24.334,-5.664 -25.602,-4.396 -25.602,-2.832C-25.602,-1.268 -24.334,0 -22.77,0L0,0C1.564,0 2.832,-1.268 2.832,-2.832C2.832,-4.396 1.564,-5.664 0,-5.664" style="fill:var(--outline);fill-rule:nonzero;"/>
                        </g>
                    </g>
                    <path d="M509.372,403.945L505.452,403.945C504.171,403.945 503.132,404.985 503.132,406.265L503.132,410.905C503.132,412.185 504.171,413.225 505.452,413.225L522.892,413.225C524.172,413.225 525.212,412.185 525.212,410.905L525.212,406.265C525.212,404.985 524.172,403.945 522.892,403.945L518.971,403.945C518.949,401.315 516.807,399.187 514.172,399.187C511.536,399.187 509.394,401.315 509.372,403.945ZM514.172,402.405C515.022,402.405 515.712,403.095 515.712,403.945C515.712,404.795 515.022,405.485 514.172,405.485C513.322,405.485 512.632,404.795 512.632,403.945C512.632,403.095 513.322,402.405 514.172,402.405Z" style="fill:var(--outline);"/>
                </g>
            </g>
            <g id="globe" transform="matrix(0.476121,0,0,0.470691,31.5141,4.04767)">
                <g transform="matrix(0,1,1,0,35.4361,4.7948)">
                    <ellipse cx="30.947" cy="0" rx="30.946" ry="30.947" style="fill:none;stroke:rgb(37,169,234);stroke-width:8.74px;stroke-linecap:butt;stroke-linejoin:miter;stroke-miterlimit:10;"/>
                </g>
                <g transform="matrix(-1.86478e-17,1,0.695459,-1.86478e-17,35.4222,19.0754)">
                    <ellipse cx="16.667" cy="0" rx="30.946" ry="16.667" style="fill:none;stroke:rgb(37,169,234);stroke-width:10.17px;stroke-linecap:butt;stroke-linejoin:miter;stroke-miterlimit:10;"/>
                </g>
                <g transform="matrix(1,0,0,0.695459,35.4077,24.151)">
                    <path d="M0,33.333C-17.091,33.333 -30.946,25.871 -30.946,16.666C-30.946,7.462 -17.091,0 0,0C17.091,0 30.946,7.462 30.946,16.666C30.946,25.871 17.091,33.333 0,33.333Z" style="fill:none;fill-rule:nonzero;stroke:rgb(37,169,234);stroke-width:10.13px;stroke-linecap:butt;stroke-linejoin:miter;stroke-miterlimit:10;"/>
                </g>
            </g>
        </g>
    </g>
</svg>
