<?xml version="1.0" encoding="UTF-8" standalone="no"?>
<!DOCTYPE svg PUBLIC "-//W3C//DTD SVG 1.1//EN" "http://www.w3.org/Graphics/SVG/1.1/DTD/svg11.dtd">
<svg width="100%" height="100%" viewBox="0 0 32 32" version="1.1" xmlns="http://www.w3.org/2000/svg" xmlns:xlink="http://www.w3.org/1999/xlink" xml:space="preserve" xmlns:serif="http://www.serif.com/" style="fill-rule:evenodd;clip-rule:evenodd;stroke-linecap:round;stroke-linejoin:round;stroke-miterlimit:1;">
    <g id="light-components-SerialOutComponent" serif:id="light/components/SerialOutComponent" transform="matrix(0.451519,0,0,0.451519,0,0)">
        <rect x="0" y="0" width="70.872" height="70.866" style="fill:none;"/>
        <clipPath id="_clip1">
            <rect x="0" y="0" width="70.872" height="70.866"/>
        </clipPath>
        <g clip-path="url(#_clip1)">
            <g transform="matrix(0.910099,0,0,0.339546,-69.626,-101.979)">
                <rect x="92.801" y="439.678" width="45.205" height="21.205" style="fill:rgb(37,169,234);"/>
            </g>
            <g transform="matrix(0.910099,0,0,0.679091,-69.626,-251.27)">
                <rect x="92.801" y="439.678" width="45.205" height="21.205" style="fill:none;stroke:var(--outline);stroke-width:5.52px;"/>
            </g>
            <g transform="matrix(1.2847,0,0,1.2847,-112.555,-523.398)">
                <path d="M135.348,412.582L94.983,412.582C92.989,412.582 91.518,415.822 92.021,419.147L93.828,431.242C94.174,433.566 95.397,435.195 96.799,435.195L133.542,435.195C134.944,435.195 136.158,433.566 136.513,431.242L138.32,419.147C138.813,415.822 137.352,412.582 135.348,412.582ZM126.212,429.751C125.057,429.751 124.135,428.814 124.135,427.675C124.135,426.52 125.057,425.582 126.212,425.582C127.367,425.582 128.288,426.52 128.288,427.675C128.288,428.814 127.367,429.751 126.212,429.751ZM103.923,429.751C102.768,429.751 101.847,428.814 101.847,427.675C101.847,426.52 102.768,425.582 103.923,425.582C105.078,425.582 105.998,426.52 105.998,427.675C105.998,428.814 105.078,429.751 103.923,429.751ZM118.783,429.751C117.626,429.751 116.706,428.814 116.706,427.675C116.706,426.52 117.626,425.582 118.783,425.582C119.938,425.582 120.858,426.52 120.858,427.675C120.858,428.814 119.938,429.751 118.783,429.751ZM111.352,429.751C110.197,429.751 109.276,428.814 109.276,427.675C109.276,426.52 110.197,425.582 111.352,425.582C112.507,425.582 113.429,426.52 113.429,427.675C113.429,428.814 112.507,429.751 111.352,429.751ZM119.859,420.103C119.859,418.948 120.795,418.026 121.951,418.026C123.09,418.026 124.026,418.948 124.026,420.103C124.026,421.258 123.09,422.179 121.951,422.179C120.795,422.179 119.859,421.258 119.859,420.103ZM113.085,420.103C113.085,418.948 114.021,418.026 115.176,418.026C116.315,418.026 117.252,418.948 117.252,420.103C117.252,421.258 116.315,422.179 115.176,422.179C114.021,422.179 113.085,421.258 113.085,420.103ZM106.311,420.103C106.311,418.948 107.248,418.026 108.403,418.026C109.542,418.026 110.478,418.948 110.478,420.103C110.478,421.258 109.542,422.179 108.403,422.179C107.248,422.179 106.311,421.258 106.311,420.103ZM99.537,420.103C99.537,418.948 100.473,418.026 101.628,418.026C102.768,418.026 103.704,418.948 103.704,420.103C103.704,421.258 102.768,422.179 101.628,422.179C100.473,422.179 99.537,421.258 99.537,420.103ZM126.633,420.103C126.633,418.948 127.57,418.026 128.725,418.026C129.864,418.026 130.801,418.948 130.801,420.103C130.801,421.258 129.864,422.179 128.725,422.179C127.57,422.179 126.633,421.258 126.633,420.103Z" style="fill:rgb(2,169,234);fill-rule:nonzero;"/>
            </g>
            <g transform="matrix(0.937998,0,0,1.2847,61.3263,35.6951)">
                <path d="M0,-22.613L-55.285,-22.613C-58.016,-22.613 -60.03,-19.373 -59.341,-16.048L-56.866,-3.953C-56.393,-1.629 -54.717,0 -52.797,0L-2.474,0C-0.554,0 1.109,-1.629 1.595,-3.953L4.07,-16.048C4.746,-19.373 2.745,-22.613 0,-22.613Z" style="fill:none;fill-rule:nonzero;stroke:var(--outline);stroke-width:3.94px;stroke-linejoin:miter;stroke-miterlimit:10;"/>
            </g>
        </g>
    </g>
</svg>
