<?xml version="1.0" encoding="UTF-8" standalone="no"?>
<!DOCTYPE svg PUBLIC "-//W3C//DTD SVG 1.1//EN" "http://www.w3.org/Graphics/SVG/1.1/DTD/svg11.dtd">
<svg width="100%" height="100%" viewBox="0 0 32 32" version="1.1" xmlns="http://www.w3.org/2000/svg" xmlns:xlink="http://www.w3.org/1999/xlink" xml:space="preserve" xmlns:serif="http://www.serif.com/" style="fill-rule:evenodd;clip-rule:evenodd;stroke-linecap:round;stroke-linejoin:round;stroke-miterlimit:1.5;">
    <g id="light-components-ButtonComponent" serif:id="light/components/ButtonComponent" transform="matrix(0.451519,0,0,0.451519,0,0)">
        <rect x="0" y="0" width="70.872" height="70.866" style="fill:none;"/>
        <clipPath id="_clip1">
            <rect x="0" y="0" width="70.872" height="70.866"/>
        </clipPath>
        <g clip-path="url(#_clip1)">
            <g id="mask" transform="matrix(2.53114,0,0,2.6577,-5.06228,-18.8253)">
                <path d="M30,7.083L30,28.333L19.5,18.75L18.187,19.583L18.187,33.75L2,33.75L2,7.083L30,7.083Z" style="fill:none;"/>
                <clipPath id="_clip2">
                    <path d="M30,7.083L30,28.333L19.5,18.75L18.187,19.583L18.187,33.75L2,33.75L2,7.083L30,7.083Z"/>
                </clipPath>
                <g clip-path="url(#_clip2)">
                    <g transform="matrix(0.875,0,0,0.8,2,4.97417)">
                        <path d="M30,13.125L30,19.375C30,21.1 28.656,22.5 27,22.5L5,22.5C3.344,22.5 2,21.1 2,19.375L2,13.125C2,11.4 3.344,10 5,10L27,10C28.656,10 30,11.4 30,13.125Z" style="fill:none;stroke:var(--outline);stroke-width:2.04px;"/>
                    </g>
                    <g transform="matrix(0.450909,0,0,0.429438,-108.461,-129.783)">
                        <path d="M271.171,345.985C271.171,351.861 275.942,356.632 281.818,356.632C287.695,356.632 292.465,351.861 292.465,345.985C292.465,340.109 287.695,335.338 281.818,335.338C275.942,335.338 271.171,340.109 271.171,345.985ZM273.171,345.985C273.171,341.213 277.046,337.338 281.818,337.338C286.591,337.338 290.465,341.213 290.465,345.985C290.465,350.758 286.591,354.632 281.818,354.632C277.046,354.632 273.171,350.758 273.171,345.985ZM274.521,345.985C274.521,350.013 277.791,353.283 281.819,353.283C285.846,353.283 289.117,350.013 289.117,345.985C289.117,341.957 285.846,338.687 281.819,338.687C277.791,338.687 274.521,341.957 274.521,345.985ZM278.521,345.985C278.521,344.165 279.998,342.687 281.819,342.687C283.639,342.687 285.117,344.165 285.117,345.985C285.117,347.805 283.639,349.283 281.819,349.283C279.998,349.283 278.521,347.805 278.521,345.985Z" style="fill:rgb(242,84,91);"/>
                    </g>
                </g>
            </g>
            <g id="Mouse-Component" serif:id="Mouse Component" transform="matrix(0.937657,0,0,0.937657,43.4449,67.5498)">
                <path d="M0,-40.613C-2.7,-40.613 -4.897,-38.418 -4.897,-35.72L-4.897,-10.685C-4.897,-7.987 -2.7,-5.792 0,-5.792C1.227,-5.792 2.402,-6.253 3.309,-7.089L4.549,-8.232L7.075,-2.823C7.875,-1.108 9.615,0 11.507,0C12.191,0 12.855,-0.141 13.481,-0.417L16.676,-1.826C19.116,-2.903 20.238,-5.68 19.231,-8.149L17.039,-13.523L18.406,-13.573C20.38,-13.646 22.105,-14.888 22.802,-16.736C23.499,-18.584 23.022,-20.655 21.588,-22.013L3.357,-39.272C2.443,-40.137 1.251,-40.613 0,-40.613M0,-36.613C0.212,-36.613 0.427,-36.537 0.607,-36.367L18.838,-19.108C19.412,-18.565 19.047,-17.6 18.258,-17.571L12.448,-17.356C11.829,-17.333 11.422,-16.702 11.655,-16.129L15.527,-6.638C15.71,-6.192 15.503,-5.681 15.062,-5.486L11.867,-4.076C11.75,-4.025 11.628,-4 11.507,-4C11.171,-4 10.85,-4.191 10.699,-4.515L6.375,-13.776C6.22,-14.108 5.896,-14.291 5.566,-14.291C5.353,-14.291 5.138,-14.215 4.964,-14.054L0.598,-10.03C0.42,-9.866 0.208,-9.792 0,-9.792C-0.459,-9.792 -0.897,-10.151 -0.897,-10.685L-0.897,-35.72C-0.897,-36.255 -0.459,-36.613 0,-36.613" style="fill:var(--outline);fill-rule:nonzero;"/>
            </g>
        </g>
    </g>
</svg>
