<?xml version="1.0" encoding="UTF-8" standalone="no"?>
<!DOCTYPE svg PUBLIC "-//W3C//DTD SVG 1.1//EN" "http://www.w3.org/Graphics/SVG/1.1/DTD/svg11.dtd">
<svg width="100%" height="100%" viewBox="0 0 48 48" version="1.1" xmlns="http://www.w3.org/2000/svg" xmlns:xlink="http://www.w3.org/1999/xlink" xml:space="preserve" xmlns:serif="http://www.serif.com/" style="fill-rule:evenodd;clip-rule:evenodd;stroke-linecap:round;stroke-linejoin:bevel;stroke-miterlimit:10;">
    <rect id="components-AudioValidatorRoutine" serif:id="components/AudioValidatorRoutine" x="0" y="0" width="48" height="48" style="fill:none;"/>
    <g id="components-AudioValidatorRoutine1" serif:id="components/AudioValidatorRoutine">
        <g id="Sound-Component" serif:id="Sound Component" transform="matrix(0.677278,0,0,0.677278,-0.702262,-0.746235)">
            <g transform="matrix(0.00116851,0.999999,0.999999,-0.00116851,63.8912,32.149)">
                <path d="M-8.976,-15.831C-2.107,-8.979 9.004,-8.979 15.842,-15.831" style="fill:none;fill-rule:nonzero;stroke:rgb(242,84,91);stroke-width:3px;"/>
            </g>
            <g transform="matrix(0.00114852,0.999999,0.999999,-0.00114852,73.2983,31.0041)">
                <path d="M-11.966,-21.106C-2.809,-11.97 12.004,-11.97 21.12,-21.106" style="fill:none;fill-rule:nonzero;stroke:rgb(242,84,91);stroke-width:3px;"/>
            </g>
            <g transform="matrix(1,0,0,1,36.2474,59.7733)">
                <path d="M0,-48.336C-1.408,-48.336 -2.732,-47.833 -3.829,-46.881C-4.966,-45.895 -6.105,-44.912 -7.245,-43.928L-8.182,-43.12L-10.096,-41.471C-11.713,-40.078 -13.331,-38.685 -14.939,-37.281C-16.5,-37.288 -18.066,-37.29 -19.631,-37.29C-21.289,-37.29 -22.947,-37.288 -24.605,-37.284C-28.235,-37.275 -30.773,-34.734 -30.777,-31.103C-30.779,-29.864 -30.778,-28.626 -30.778,-27.388L-30.778,-25.878L-30.777,-23.567C-30.776,-21.469 -30.775,-19.372 -30.781,-17.274C-30.785,-15.489 -30.1,-13.923 -28.8,-12.746C-27.152,-11.255 -25.277,-11.254 -24.66,-11.254L-22.535,-11.253L-19.572,-11.252C-18.108,-11.252 -16.642,-11.253 -15.178,-11.258C-14.937,-11.047 -14.7,-10.847 -14.467,-10.65C-14.303,-10.511 -14.139,-10.372 -13.976,-10.232L-12.001,-8.526L-8.235,-5.272L-6.841,-4.064C-5.82,-3.178 -4.798,-2.291 -3.769,-1.414C-2.699,-0.503 -1.352,0 0.024,0C1.616,0 3.12,-0.647 4.259,-1.821C5.363,-2.959 5.922,-4.428 5.92,-6.187C5.917,-10.905 5.917,-15.623 5.918,-20.341L5.918,-42.023C5.92,-42.257 5.918,-42.492 5.903,-42.725C5.746,-45.153 4.361,-47.096 2.196,-47.921C1.475,-48.196 0.736,-48.336 0,-48.336M0,-44.336C0.251,-44.336 0.509,-44.284 0.771,-44.184C1.541,-43.89 1.861,-43.256 1.912,-42.466C1.923,-42.285 1.918,-42.102 1.918,-41.919L1.918,-24.143C1.918,-18.157 1.916,-12.171 1.92,-6.185C1.921,-5.593 1.82,-5.051 1.388,-4.607C1.001,-4.208 0.514,-4 0.024,-4C-0.393,-4 -0.812,-4.15 -1.175,-4.459C-2.665,-5.729 -4.138,-7.018 -5.619,-8.298C-7.533,-9.952 -9.447,-11.605 -11.361,-13.259C-11.95,-13.767 -12.558,-14.256 -13.12,-14.793C-13.47,-15.128 -13.841,-15.261 -14.319,-15.261L-14.329,-15.261C-16.077,-15.254 -17.825,-15.252 -19.572,-15.252C-21.268,-15.252 -22.963,-15.254 -24.659,-15.254C-25.191,-15.254 -25.691,-15.327 -26.115,-15.712C-26.583,-16.135 -26.782,-16.642 -26.781,-17.264C-26.773,-20.136 -26.778,-23.007 -26.778,-25.878C-26.778,-27.618 -26.779,-29.358 -26.777,-31.098C-26.775,-32.548 -26.055,-33.28 -24.596,-33.284C-22.941,-33.288 -21.286,-33.29 -19.631,-33.29C-17.831,-33.29 -16.03,-33.287 -14.229,-33.278L-14.215,-33.278C-13.675,-33.278 -13.263,-33.432 -12.852,-33.792C-10.437,-35.907 -7.998,-37.995 -5.568,-40.092C-4.114,-41.347 -2.658,-42.601 -1.207,-43.86C-0.832,-44.186 -0.425,-44.336 0,-44.336" style="fill:var(--outline);fill-rule:nonzero;"/>
            </g>
        </g>
        <g id="stopwatch" transform="matrix(1.1,0,0,1.1,-4.6,-4.85)">
            <g transform="matrix(1.1,0,0,1.1,-6.35,-4.65)">
                <path d="M46.248,32.2C47.1,33.583 47.591,35.212 47.591,36.955C47.591,41.972 43.517,46.045 38.5,46.045C33.483,46.045 29.409,41.972 29.409,36.955C29.409,35.212 29.9,33.583 30.752,32.2C30.579,32.167 30.415,32.083 30.281,31.95C29.927,31.595 29.927,31.019 30.281,30.664L32.21,28.736C32.565,28.381 33.141,28.381 33.495,28.736C33.629,28.869 33.712,29.034 33.745,29.206C34.428,28.786 35.171,28.454 35.957,28.225C35.45,28.026 35.091,27.532 35.091,26.955C35.091,26.202 35.702,25.591 36.455,25.591L40.545,25.591C41.298,25.591 41.909,26.202 41.909,26.955C41.909,27.532 41.55,28.026 41.043,28.225C41.829,28.454 42.572,28.786 43.255,29.206C43.288,29.034 43.371,28.869 43.505,28.736C43.859,28.381 44.435,28.381 44.79,28.736L46.719,30.664C47.073,31.019 47.073,31.595 46.719,31.95C46.585,32.083 46.421,32.167 46.248,32.2ZM38.5,30.343C34.851,30.343 31.888,33.306 31.888,36.955C31.888,40.604 34.851,43.566 38.5,43.566C42.149,43.566 45.112,40.604 45.112,36.955C45.112,33.306 42.149,30.343 38.5,30.343Z" style="fill:rgb(107,204,116);"/>
            </g>
            <g transform="matrix(1.33333,0,0,1.33333,-15.3333,-12.6667)">
                <circle cx="38.5" cy="36.5" r="5.455" style="fill:rgb(241,242,242);"/>
            </g>
            <g transform="matrix(2.93391,0,0,2.93391,-71.0083,-77.0349)">
                <path d="M34.884,39.634C35.017,39.501 35.233,39.501 35.366,39.634C35.499,39.767 35.499,39.983 35.366,40.116C35.233,40.249 35.017,40.249 34.884,40.116C34.751,39.983 34.751,39.767 34.884,39.634ZM36.473,36.203C36.661,36.203 36.814,36.356 36.814,36.544C36.814,36.732 36.661,36.885 36.473,36.885C36.285,36.885 36.132,36.732 36.132,36.544C36.132,36.356 36.285,36.203 36.473,36.203ZM38.456,38.186C38.644,38.186 38.797,38.339 38.797,38.527C38.797,38.715 38.644,38.868 38.456,38.868C38.268,38.868 38.115,38.715 38.115,38.527C38.115,38.339 38.268,38.186 38.456,38.186ZM34.49,38.186C34.678,38.186 34.831,38.339 34.831,38.527C34.831,38.715 34.678,38.868 34.49,38.868C34.302,38.868 34.149,38.715 34.149,38.527C34.149,38.339 34.302,38.186 34.49,38.186ZM37.58,36.938C37.713,36.805 37.929,36.805 38.062,36.938C38.195,37.071 38.195,37.287 38.062,37.42C37.929,37.553 37.713,37.553 37.58,37.42C37.447,37.287 37.447,37.071 37.58,36.938ZM36.473,40.169C36.661,40.169 36.814,40.322 36.814,40.51C36.814,40.698 36.661,40.851 36.473,40.851C36.285,40.851 36.132,40.698 36.132,40.51C36.132,40.322 36.285,40.169 36.473,40.169ZM34.884,36.938C35.017,36.805 35.233,36.805 35.366,36.938C35.499,37.071 35.499,37.287 35.366,37.42C35.233,37.553 35.017,37.553 34.884,37.42C34.751,37.287 34.751,37.071 34.884,36.938ZM37.58,39.634C37.713,39.501 37.929,39.501 38.062,39.634C38.195,39.767 38.195,39.983 38.062,40.116C37.929,40.249 37.713,40.249 37.58,40.116C37.447,39.983 37.447,39.767 37.58,39.634Z" style="fill:rgb(107,204,116);"/>
            </g>
            <g transform="matrix(0.663712,0,0,0.663712,13.0695,12.4707)">
                <path d="M36.414,36.414C35.748,37.081 34.366,37.195 33.586,36.414C32.805,35.634 32.919,34.252 33.586,33.586C34.488,32.683 39,31 39,31C39,31 37.317,35.512 36.414,36.414Z" style="fill:rgb(107,204,116);"/>
            </g>
        </g>
    </g>
</svg>
