<?xml version="1.0" encoding="UTF-8" standalone="no"?>
<!DOCTYPE svg PUBLIC "-//W3C//DTD SVG 1.1//EN" "http://www.w3.org/Graphics/SVG/1.1/DTD/svg11.dtd">
<svg width="100%" height="100%" viewBox="0 0 32 32" version="1.1" xmlns="http://www.w3.org/2000/svg" xmlns:xlink="http://www.w3.org/1999/xlink" xml:space="preserve" xmlns:serif="http://www.serif.com/" style="fill-rule:evenodd;clip-rule:evenodd;stroke-linejoin:round;stroke-miterlimit:2;">
    <g id="light-components-MovieComponent" serif:id="light/components/MovieComponent" transform="matrix(0.451519,0,0,0.451519,0,0)">
        <rect x="0" y="0" width="70.872" height="70.866" style="fill:none;"/>
        <g id="Movie-Component" serif:id="Movie Component" transform="matrix(1.04716,0,0,1.04716,-2.02155,-1.4329)">
            <g id="Reel" transform="matrix(1,0,0,1,8.5145,16.0406)">
                <path d="M0,38.33C-0.491,38.33 -0.889,37.932 -0.889,37.441L-0.889,32.199C-0.889,31.708 -0.491,31.31 0,31.31L3.802,31.31C4.293,31.31 4.691,31.708 4.691,32.199L4.691,37.441C4.691,37.932 4.293,38.33 3.802,38.33L0,38.33ZM50.52,38.33C50.029,38.33 49.631,37.932 49.631,37.441L49.631,32.199C49.631,31.708 50.029,31.31 50.52,31.31L54.322,31.31C54.813,31.31 55.211,31.708 55.211,32.199L55.211,37.441C55.211,37.932 54.813,38.33 54.322,38.33L50.52,38.33ZM0,27.66C-0.491,27.66 -0.889,27.262 -0.889,26.771L-0.889,21.529C-0.889,21.038 -0.491,20.64 0,20.64L3.802,20.64C4.293,20.64 4.691,21.038 4.691,21.529L4.691,26.771C4.691,27.262 4.293,27.66 3.802,27.66L0,27.66ZM50.52,27.66C50.029,27.66 49.631,27.262 49.631,26.771L49.631,21.529C49.631,21.038 50.029,20.64 50.52,20.64L54.322,20.64C54.813,20.64 55.211,21.038 55.211,21.529L55.211,26.771C55.211,27.262 54.813,27.66 54.322,27.66L50.52,27.66ZM0,17.05C-0.491,17.05 -0.889,16.652 -0.889,16.161L-0.889,10.929C-0.889,10.438 -0.491,10.04 0,10.04L3.802,10.04C4.293,10.04 4.691,10.438 4.691,10.929L4.691,16.161C4.691,16.652 4.293,17.05 3.802,17.05L0,17.05ZM50.52,17.05C50.029,17.05 49.631,16.652 49.631,16.161L49.631,10.929C49.631,10.438 50.029,10.04 50.52,10.04L54.322,10.04C54.813,10.04 55.211,10.438 55.211,10.929L55.211,16.161C55.211,16.652 54.813,17.05 54.322,17.05L50.52,17.05ZM0,6.45C-0.491,6.45 -0.889,6.052 -0.889,5.561L-0.889,0.319C-0.889,-0.172 -0.491,-0.57 0,-0.57L3.802,-0.57C4.293,-0.57 4.691,-0.172 4.691,0.319L4.691,5.561C4.691,6.052 4.293,6.45 3.802,6.45L0,6.45ZM50.52,6.45C50.029,6.45 49.631,6.052 49.631,5.561L49.631,0.319C49.631,-0.172 50.029,-0.57 50.52,-0.57L54.322,-0.57C54.813,-0.57 55.211,-0.172 55.211,0.319L55.211,5.561C55.211,6.052 54.813,6.45 54.322,6.45L50.52,6.45ZM10.617,42.61C8.504,42.61 6.791,40.897 6.791,38.785L6.791,-0.455C6.791,-2.567 8.504,-4.28 10.617,-4.28L43.896,-4.28C46.009,-4.28 47.721,-2.567 47.721,-0.455L47.721,38.785C47.721,40.897 46.009,42.61 43.896,42.61L10.617,42.61ZM50.112,-7.94L4.4,-7.94C-0.498,-7.94 -4.469,-3.969 -4.469,0.929L-4.469,38.29C-4.469,42.7 -0.889,46.27 3.511,46.27L50.112,46.27C55.011,46.27 58.981,42.299 58.981,37.401L58.981,0.929C58.981,-3.969 55.011,-7.94 50.112,-7.94" style="fill:var(--outline);fill-rule:nonzero;"/>
            </g>
            <g id="Play" transform="matrix(1,0,0,1,44.2728,33.2261)">
                <path d="M0,3.959L-14.615,12.78C-16.156,13.71 -18.122,12.6 -18.122,10.8L-18.122,-6.841C-18.122,-8.641 -16.156,-9.751 -14.615,-8.821L0,0C1.49,0.899 1.49,3.06 0,3.959" style="fill:rgb(242,84,91);fill-rule:nonzero;"/>
            </g>
        </g>
    </g>
</svg>
