<?xml version="1.0" encoding="UTF-8" standalone="no"?>
<!DOCTYPE svg PUBLIC "-//W3C//DTD SVG 1.1//EN" "http://www.w3.org/Graphics/SVG/1.1/DTD/svg11.dtd">
<svg width="100%" height="100%" viewBox="0 0 32 32" version="1.1" xmlns="http://www.w3.org/2000/svg" xmlns:xlink="http://www.w3.org/1999/xlink" xml:space="preserve" xmlns:serif="http://www.serif.com/" style="fill-rule:evenodd;clip-rule:evenodd;stroke-linecap:round;stroke-miterlimit:10;">
    <g id="light-components-ParallelOutComponent" serif:id="light/components/ParallelOutComponent" transform="matrix(0.451519,0,0,0.451519,0,0)">
        <rect x="0" y="0" width="70.872" height="70.866" style="fill:none;"/>
        <clipPath id="_clip1">
            <rect x="0" y="0" width="70.872" height="70.866"/>
        </clipPath>
        <g clip-path="url(#_clip1)">
            <g transform="matrix(0.973831,0,0,0.973831,-309.65,-231.987)">
                <path d="M381.997,263.3L326.712,263.3C323.981,263.3 321.967,266.54 322.656,269.865L325.131,281.96C325.604,284.284 327.28,285.913 329.2,285.913L379.523,285.913C381.443,285.913 383.106,284.284 383.592,281.96L386.067,269.865C386.743,266.54 384.742,263.3 381.997,263.3ZM376.09,278.916C375.22,278.916 374.514,278.21 374.514,277.352C374.514,276.482 375.22,275.776 376.09,275.776C376.948,275.776 377.654,276.482 377.654,277.352C377.654,278.21 376.948,278.916 376.09,278.916ZM372.468,278.916C371.598,278.916 370.893,278.21 370.893,277.352C370.893,276.482 371.598,275.776 372.468,275.776C373.327,275.776 374.032,276.482 374.032,277.352C374.032,278.21 373.327,278.916 372.468,278.916ZM368.847,278.916C367.977,278.916 367.271,278.21 367.271,277.352C367.271,276.482 367.977,275.776 368.847,275.776C369.705,275.776 370.411,276.482 370.411,277.352C370.411,278.21 369.705,278.916 368.847,278.916ZM365.226,278.916C364.355,278.916 363.65,278.21 363.65,277.352C363.65,276.482 364.355,275.776 365.226,275.776C366.084,275.776 366.789,276.482 366.789,277.352C366.789,278.21 366.084,278.916 365.226,278.916ZM361.604,278.916C360.734,278.916 360.029,278.21 360.029,277.352C360.029,276.482 360.734,275.776 361.604,275.776C362.462,275.776 363.168,276.482 363.168,277.352C363.168,278.21 362.462,278.916 361.604,278.916ZM357.983,278.916C357.113,278.916 356.407,278.21 356.407,277.352C356.407,276.482 357.113,275.776 357.983,275.776C358.841,275.776 359.546,276.482 359.546,277.352C359.546,278.21 358.841,278.916 357.983,278.916ZM354.361,278.916C353.491,278.916 352.786,278.21 352.786,277.352C352.786,276.482 353.491,275.776 354.361,275.776C355.22,275.776 355.925,276.482 355.925,277.352C355.925,278.21 355.22,278.916 354.361,278.916ZM350.74,278.916C349.87,278.916 349.176,278.21 349.176,277.352C349.176,276.482 349.87,275.776 350.74,275.776C351.598,275.776 352.304,276.482 352.304,277.352C352.304,278.21 351.598,278.916 350.74,278.916ZM347.118,278.916C346.248,278.916 345.555,278.21 345.555,277.352C345.555,276.482 346.248,275.776 347.118,275.776C347.977,275.776 348.682,276.482 348.682,277.352C348.682,278.21 347.977,278.916 347.118,278.916ZM343.497,278.916C342.627,278.916 341.933,278.21 341.933,277.352C341.933,276.482 342.627,275.776 343.497,275.776C344.367,275.776 345.061,276.482 345.061,277.352C345.061,278.21 344.367,278.916 343.497,278.916ZM339.876,278.916C339.005,278.916 338.312,278.21 338.312,277.352C338.312,276.482 339.005,275.776 339.876,275.776C340.746,275.776 341.439,276.482 341.439,277.352C341.439,278.21 340.746,278.916 339.876,278.916ZM336.254,278.916C335.384,278.916 334.69,278.21 334.69,277.352C334.69,276.482 335.384,275.776 336.254,275.776C337.124,275.776 337.818,276.482 337.818,277.352C337.818,278.21 337.124,278.916 336.254,278.916ZM332.633,278.916C331.763,278.916 331.069,278.21 331.069,277.352C331.069,276.482 331.763,275.776 332.633,275.776C333.503,275.776 334.196,276.482 334.196,277.352C334.196,278.21 333.503,278.916 332.633,278.916ZM377.971,273.213C377.113,273.213 376.407,272.519 376.407,271.649C376.407,270.779 377.113,270.085 377.971,270.085C378.841,270.085 379.547,270.779 379.547,271.649C379.547,272.519 378.841,273.213 377.971,273.213ZM372.786,271.649C372.786,270.779 373.491,270.085 374.35,270.085C375.22,270.085 375.925,270.779 375.925,271.649C375.925,272.519 375.22,273.213 374.35,273.213C373.491,273.213 372.786,272.519 372.786,271.649ZM369.164,271.649C369.164,270.779 369.87,270.085 370.728,270.085C371.598,270.085 372.304,270.779 372.304,271.649C372.304,272.519 371.598,273.213 370.728,273.213C369.87,273.213 369.164,272.519 369.164,271.649ZM365.543,271.649C365.543,270.779 366.248,270.085 367.107,270.085C367.977,270.085 368.682,270.779 368.682,271.649C368.682,272.519 367.977,273.213 367.107,273.213C366.248,273.213 365.543,272.519 365.543,271.649ZM361.922,271.649C361.922,270.779 362.627,270.085 363.497,270.085C364.355,270.085 365.061,270.779 365.061,271.649C365.061,272.519 364.355,273.213 363.497,273.213C362.627,273.213 361.922,272.519 361.922,271.649ZM358.3,271.649C358.3,270.779 359.006,270.085 359.876,270.085C360.734,270.085 361.439,270.779 361.439,271.649C361.439,272.519 360.734,273.213 359.876,273.213C359.006,273.213 358.3,272.519 358.3,271.649ZM354.679,271.649C354.679,270.779 355.384,270.085 356.254,270.085C357.113,270.085 357.818,270.779 357.818,271.649C357.818,272.519 357.113,273.213 356.254,273.213C355.384,273.213 354.679,272.519 354.679,271.649ZM351.057,271.649C351.057,270.779 351.763,270.085 352.633,270.085C353.491,270.085 354.197,270.779 354.197,271.649C354.197,272.519 353.491,273.213 352.633,273.213C351.763,273.213 351.057,272.519 351.057,271.649ZM347.436,271.649C347.436,270.779 348.141,270.085 349.011,270.085C349.87,270.085 350.575,270.779 350.575,271.649C350.575,272.519 349.87,273.213 349.011,273.213C348.141,273.213 347.436,272.519 347.436,271.649ZM343.814,271.649C343.814,270.779 344.52,270.085 345.39,270.085C346.248,270.085 346.954,270.779 346.954,271.649C346.954,272.519 346.248,273.213 345.39,273.213C344.52,273.213 343.814,272.519 343.814,271.649ZM340.193,271.649C340.193,270.779 340.898,270.085 341.769,270.085C342.627,270.085 343.332,270.779 343.332,271.649C343.332,272.519 342.627,273.213 341.769,273.213C340.898,273.213 340.193,272.519 340.193,271.649ZM336.572,271.649C336.572,270.779 337.277,270.085 338.147,270.085C339.005,270.085 339.711,270.779 339.711,271.649C339.711,272.519 339.005,273.213 338.147,273.213C337.277,273.213 336.572,272.519 336.572,271.649ZM332.95,271.649C332.95,270.779 333.656,270.085 334.526,270.085C335.384,270.085 336.089,270.779 336.089,271.649C336.089,272.519 335.384,273.213 334.526,273.213C333.656,273.213 332.95,272.519 332.95,271.649ZM329.329,271.649C329.329,270.779 330.034,270.085 330.904,270.085C331.763,270.085 332.468,270.779 332.468,271.649C332.468,272.519 331.763,273.213 330.904,273.213C330.034,273.213 329.329,272.519 329.329,271.649Z" style="fill:rgb(242,84,91);fill-rule:nonzero;"/>
            </g>
            <g transform="matrix(0.973831,0,0,0.973831,62.3502,46.4437)">
                <path d="M0,-22.613L-55.285,-22.613C-58.016,-22.613 -60.03,-19.373 -59.341,-16.048L-56.866,-3.953C-56.393,-1.629 -54.717,0 -52.797,0L-2.474,0C-0.554,0 1.109,-1.629 1.595,-3.953L4.07,-16.048C4.746,-19.373 2.745,-22.613 0,-22.613Z" style="fill:none;fill-rule:nonzero;stroke:var(--outline);stroke-width:4.55px;"/>
            </g>
        </g>
    </g>
</svg>
