<?xml version="1.0" encoding="UTF-8" standalone="no"?>
<!DOCTYPE svg PUBLIC "-//W3C//DTD SVG 1.1//EN" "http://www.w3.org/Graphics/SVG/1.1/DTD/svg11.dtd">
<svg width="100%" height="100%" viewBox="0 0 32 32" version="1.1" xmlns="http://www.w3.org/2000/svg" xmlns:xlink="http://www.w3.org/1999/xlink" xml:space="preserve" xmlns:serif="http://www.serif.com/" style="fill-rule:evenodd;clip-rule:evenodd;stroke-miterlimit:10;">
    <g id="light-components-TextboxComponent" serif:id="light/components/TextboxComponent" transform="matrix(0.451519,0,0,0.451519,0,0)">
        <rect x="0" y="0" width="70.872" height="70.866" style="fill:none;"/>
        <clipPath id="_clip1">
            <rect x="0" y="0" width="70.872" height="70.866"/>
        </clipPath>
        <g clip-path="url(#_clip1)">
            <g id="Textbox-Component" serif:id="Textbox Component" transform="matrix(1.04844,0,0,1.04844,-1.94521,-1.71651)">
                <g transform="matrix(1,0,0,1,-1.72088,-0.429335)">
                    <path d="M26.343,41.622L28.953,41.622L28.953,25.382L25.895,25.382L25.895,28.64L20.476,28.64L20.476,20.977L43.398,20.977L43.398,28.64L37.946,28.64L37.946,25.382L34.472,25.382L34.472,41.622L37.131,41.622L37.131,46.177L26.343,46.177L26.343,41.622Z" style="fill:rgb(242,84,91);fill-rule:nonzero;"/>
                </g>
                <g transform="matrix(0,-1,-1,0,63.7342,33.1474)">
                    <path d="M-14.963,14.963L14.963,14.963" style="fill:none;fill-rule:nonzero;stroke:var(--outline);stroke-width:4px;"/>
                </g>
                <g transform="matrix(1,0,0,1,0,0.0001)">
                    <rect x="10.305" y="10.084" width="50.698" height="50.698" style="fill:none;stroke:var(--outline);stroke-width:4px;"/>
                </g>
            </g>
        </g>
    </g>
</svg>
