<?xml version="1.0" encoding="UTF-8" standalone="no"?>
<!DOCTYPE svg PUBLIC "-//W3C//DTD SVG 1.1//EN" "http://www.w3.org/Graphics/SVG/1.1/DTD/svg11.dtd">
<svg width="100%" height="100%" viewBox="0 0 32 32" version="1.1" xmlns="http://www.w3.org/2000/svg" xmlns:xlink="http://www.w3.org/1999/xlink" xml:space="preserve" xmlns:serif="http://www.serif.com/" style="fill-rule:evenodd;clip-rule:evenodd;stroke-linejoin:round;stroke-miterlimit:2;">
    <g id="ApertureComponent" transform="matrix(0.451519,0,0,0.451519,0,0)">
        <rect x="0" y="0" width="70.872" height="70.866" style="fill:none;"/>
        <g id="Aperture-Component" serif:id="Aperture Component" transform="matrix(1.17824,0,0,1.17824,-5.83773,-6.17777)">
            <clipPath id="_clip1">
                <path d="M31.361,10.328C19.563,10.328 10,19.892 10,31.69L10,38.155C10,49.952 19.563,59.515 31.361,59.515L38.417,59.515C50.214,59.515 59.778,49.952 59.778,38.155L59.778,31.69C59.778,19.892 50.214,10.328 38.417,10.328L31.361,10.328Z" clip-rule="nonzero"/>
            </clipPath>
            <g clip-path="url(#_clip1)">
                <g opacity="0.8">
                    <path d="M31.361,10.328C19.563,10.328 10,19.892 10,31.69L10,38.155C10,49.952 19.563,59.515 31.361,59.515L38.417,59.515C50.214,59.515 59.778,49.952 59.778,38.155L59.778,31.69C59.778,19.892 50.214,10.328 38.417,10.328L31.361,10.328Z" style="fill:none;fill-rule:nonzero;"/>
                    <clipPath id="_clip2">
                        <path d="M31.361,10.328C19.563,10.328 10,19.892 10,31.69L10,38.155C10,49.952 19.563,59.515 31.361,59.515L38.417,59.515C50.214,59.515 59.778,49.952 59.778,38.155L59.778,31.69C59.778,19.892 50.214,10.328 38.417,10.328L31.361,10.328Z" clip-rule="nonzero"/>
                    </clipPath>
                    <g clip-path="url(#_clip2)">
                        <g id="Image-Component" serif:id="Image Component" transform="matrix(1,0,0,1,13.727,11.555)">
                            <path id="Frame" d="M14.46,10.135C10.354,10.135 7.025,13.464 7.025,17.571L7.025,53.295C7.025,57.402 10.354,60.731 14.46,60.731L56.411,60.731C60.518,60.731 63.847,57.402 63.847,53.295L63.847,17.571C63.847,13.464 60.518,10.135 56.411,10.135L14.46,10.135Z" style="fill:none;fill-rule:nonzero;"/>
                            <clipPath id="_clip3">
                                <path id="Frame1" serif:id="Frame" d="M14.46,10.135C10.354,10.135 7.025,13.464 7.025,17.571L7.025,53.295C7.025,57.402 10.354,60.731 14.46,60.731L56.411,60.731C60.518,60.731 63.847,57.402 63.847,53.295L63.847,17.571C63.847,13.464 60.518,10.135 56.411,10.135L14.46,10.135Z" clip-rule="nonzero"/>
                            </clipPath>
                            <g clip-path="url(#_clip3)">
                                <g id="Sky" transform="matrix(-1,0,0,1,66.724,0.6631)">
                                    <rect x="-6.532" y="1.239" width="79.788" height="67.725" style="fill:rgb(2,169,234);"/>
                                </g>
                                <g id="Sun" transform="matrix(1.05203e-32,0.902339,0.902339,-1.05203e-32,25.8961,11.7453)">
                                    <path d="M10.24,-10.24C4.585,-10.24 0.001,-5.656 0.001,-0.001C0.001,5.655 4.585,10.24 10.24,10.24C15.894,10.24 20.478,5.655 20.478,-0.001C20.478,-5.656 15.894,-10.24 10.24,-10.24" style="fill:var(--mantle);fill-rule:nonzero;"/>
                                </g>
                                <g id="Mountains" transform="matrix(0.856022,0,0,0.856022,-407.995,1.75405)">
                                    <path d="M484,41.774L496.338,27.38C497.941,25.509 500.887,25.688 502.253,27.737L510.432,40.01L527.58,20.004C528.661,18.742 530.648,18.862 531.57,20.245L544,38.899L544,65L484,65L484,41.774Z" style="fill:var(--outline);"/>
                                </g>
                            </g>
                        </g>
                    </g>
                </g>
            </g>
            <g transform="matrix(1,0,0,1,35.0303,63.5159)">
                <path d="M0,-56.393C-15.547,-56.393 -28.196,-43.744 -28.196,-28.197C-28.196,-12.649 -15.547,0 0,0C15.547,0 28.195,-12.649 28.195,-28.197C28.195,-43.744 15.547,-56.393 0,-56.393M0,-52.393C13.341,-52.393 24.195,-41.539 24.195,-28.197C24.195,-14.855 13.341,-4 0,-4C-13.342,-4 -24.196,-14.855 -24.196,-28.197C-24.196,-41.539 -13.342,-52.393 0,-52.393" style="fill:var(--outline);fill-rule:nonzero;"/>
            </g>
        </g>
    </g>
</svg>
