<?xml version="1.0" encoding="UTF-8" standalone="no"?>
<!DOCTYPE svg PUBLIC "-//W3C//DTD SVG 1.1//EN" "http://www.w3.org/Graphics/SVG/1.1/DTD/svg11.dtd">
<svg width="100%" height="100%" viewBox="0 0 16 16" version="1.1" xmlns="http://www.w3.org/2000/svg" xmlns:xlink="http://www.w3.org/1999/xlink" xml:space="preserve" xmlns:serif="http://www.serif.com/" style="fill-rule:evenodd;clip-rule:evenodd;stroke-linejoin:round;stroke-miterlimit:2;">
    <g transform="matrix(1,0,0,1,-160,0)">
        <g id="font" transform="matrix(0.225759,0,0,0.225778,160,0)">
            <rect x="0" y="0" width="70.872" height="70.866" style="fill:none;"/>
            <g transform="matrix(1.32212,0,0,1.32202,-12.9152,-11.0803)">
                <g id="Text-Component" serif:id="Text Component" transform="matrix(1.32918,0,0,1.32918,-7.35691,-7.06242)">
                    <path d="M27.42,44.216L31.1,44.216L31.1,21.318L26.787,21.318L26.787,25.912L19.146,25.912L19.146,15.107L51.467,15.107L51.467,25.912L43.779,25.912L43.779,21.318L38.881,21.318L38.881,44.216L42.631,44.216L42.631,50.638L27.42,50.638L27.42,44.216Z" style="fill:var(--outline);fill-rule:nonzero;"/>
                </g>
                <g id="Text-Component1" serif:id="Text Component" transform="matrix(1.32918,0,0,1.32918,-13.487,-10.0894)">
                    <path d="M27.42,44.216L31.1,44.216L31.1,21.318L26.787,21.318L26.787,25.912L19.146,25.912L19.146,15.107L51.467,15.107L51.467,25.912L43.779,25.912L43.779,21.318L38.881,21.318L38.881,44.216L42.631,44.216L42.631,50.638L27.42,50.638L27.42,44.216Z" style="fill:var(--red);fill-rule:nonzero;"/>
                </g>
            </g>
        </g>
    </g>
</svg>
