<?xml version="1.0" encoding="UTF-8" standalone="no"?>
<!DOCTYPE svg PUBLIC "-//W3C//DTD SVG 1.1//EN" "http://www.w3.org/Graphics/SVG/1.1/DTD/svg11.dtd">
<svg width="100%" height="100%" viewBox="0 0 16 16" version="1.1" xmlns="http://www.w3.org/2000/svg" xmlns:xlink="http://www.w3.org/1999/xlink" xml:space="preserve" xmlns:serif="http://www.serif.com/" style="fill-rule:evenodd;clip-rule:evenodd;stroke-linejoin:round;stroke-miterlimit:2;">
    <g transform="matrix(1,0,0,1,-140,0)">
        <g id="info" transform="matrix(0.225759,0,0,0.225778,140,0)">
            <rect x="0" y="0" width="70.872" height="70.866" style="fill:none;"/>
            <clipPath id="_clip1">
                <rect x="0" y="0" width="70.872" height="70.866"/>
            </clipPath>
            <g clip-path="url(#_clip1)">
                <g id="i" transform="matrix(3.55798,0,0,3.55769,-501.565,13.8859)">
                    <path d="M147.557,0.426C147.557,0.257 147.588,0.1 147.649,-0.046C147.714,-0.196 147.804,-0.326 147.916,-0.435C148.029,-0.545 148.16,-0.631 148.311,-0.695C148.466,-0.759 148.632,-0.791 148.811,-0.791C148.98,-0.791 149.139,-0.759 149.29,-0.695C149.44,-0.631 149.571,-0.545 149.684,-0.435C149.797,-0.326 149.886,-0.196 149.951,-0.046C150.017,0.1 150.05,0.257 150.05,0.426C150.05,0.595 150.017,0.754 149.951,0.905C149.886,1.05 149.797,1.178 149.684,1.287C149.571,1.397 149.44,1.483 149.29,1.547C149.139,1.611 148.98,1.643 148.811,1.643C148.632,1.643 148.466,1.611 148.311,1.547C148.16,1.483 148.029,1.397 147.916,1.287C147.804,1.178 147.714,1.05 147.649,0.905C147.588,0.754 147.557,0.595 147.557,0.426ZM146.571,2.709L149.846,2.709L149.846,7.918L150.86,7.918L150.86,9.791L146.571,9.791L146.571,7.918L147.67,7.918L147.67,4.582L146.571,4.582L146.571,2.709Z" style="fill:var(--red);"/>
                </g>
                <g id="page" transform="matrix(1.28461,0,0,1.2845,58.0888,34.9665)">
                    <path d="M0,0.59L-10.99,0.59C-16.95,0.59 -21.8,5.43 -21.8,11.39L-21.84,21.61L-29.95,21.61C-32.79,21.61 -35.1,19.3 -35.1,16.46L-35.1,-17.09C-35.1,-19.92 -32.79,-22.23 -29.95,-22.23L-5.14,-22.23C-2.31,-22.23 0,-19.92 0,-17.09L0,0.59ZM5.52,6.39L5.52,-16.48C5.52,-22.44 0.67,-27.29 -5.29,-27.29L-30.1,-27.29C-36.06,-27.29 -40.92,-22.44 -40.92,-16.48L-40.92,17.07C-40.92,23.03 -36.06,27.88 -30.1,27.88L-15.97,27.88L5.52,6.39Z" style="fill:var(--outline);fill-rule:nonzero;"/>
                </g>
            </g>
        </g>
    </g>
</svg>
