<?xml version="1.0" encoding="UTF-8" standalone="no"?>
<!DOCTYPE svg PUBLIC "-//W3C//DTD SVG 1.1//EN" "http://www.w3.org/Graphics/SVG/1.1/DTD/svg11.dtd">
<svg width="100%" height="100%" viewBox="0 0 32 32" version="1.1" xmlns="http://www.w3.org/2000/svg" xmlns:xlink="http://www.w3.org/1999/xlink" xml:space="preserve" xmlns:serif="http://www.serif.com/" style="fill-rule:evenodd;clip-rule:evenodd;stroke-linecap:round;stroke-linejoin:round;stroke-miterlimit:1.5;">
    <g id="light-components-ButtonBoxComponent" serif:id="light/components/ButtonBoxComponent" transform="matrix(0.451519,0,0,0.451519,0,0)">
        <rect x="0" y="0" width="70.872" height="70.866" style="fill:none;"/>
        <g transform="matrix(1.40938,0,0,1.51251,1.61072,0.645319)">
            <path d="M46,14.331C46,13.183 45.51,12.081 44.639,11.269C43.767,10.456 42.585,10 41.352,10C32.898,10 15.102,10 6.648,10C5.415,10 4.233,10.456 3.361,11.269C2.49,12.081 2,13.183 2,14.331C2,19.141 2,26.859 2,31.669C2,32.817 2.49,33.919 3.361,34.731C4.233,35.544 5.415,36 6.648,36C15.102,36 32.898,36 41.352,36C42.585,36 43.767,35.544 44.639,34.731C45.51,33.919 46,32.817 46,31.669C46,26.859 46,19.141 46,14.331Z" style="fill:none;stroke:var(--outline);stroke-width:3.03px;"/>
        </g>
        <g transform="matrix(1.03312,0,0,1.01754,-1.35126,-17.6735)">
            <path d="M21.683,46.437C21.683,45.871 21.461,45.328 21.067,44.927C20.673,44.527 20.138,44.302 19.58,44.302C17.966,44.302 15.747,44.302 14.133,44.302C13.575,44.302 13.04,44.527 12.646,44.927C12.252,45.328 12.03,45.871 12.03,46.437C12.03,47.56 12.03,48.933 12.03,50.056C12.03,50.622 12.252,51.165 12.646,51.566C13.04,51.966 13.575,52.191 14.133,52.191C15.747,52.191 17.966,52.191 19.58,52.191C20.138,52.191 20.673,51.966 21.067,51.566C21.461,51.165 21.683,50.622 21.683,50.056C21.683,48.933 21.683,47.56 21.683,46.437Z" style="fill:rgb(242,84,91);"/>
        </g>
        <g transform="matrix(1.03312,0,0,1.01754,-1.35126,-21.0705)">
            <path d="M34.171,46.437C34.171,45.871 33.949,45.328 33.555,44.927C33.161,44.527 32.626,44.302 32.068,44.302C30.454,44.302 28.235,44.302 26.621,44.302C26.063,44.302 25.528,44.527 25.134,44.927C24.74,45.328 24.518,45.871 24.518,46.437C24.518,47.56 24.518,48.933 24.518,50.056C24.518,50.622 24.74,51.165 25.134,51.566C25.528,51.966 26.063,52.191 26.621,52.191C28.235,52.191 30.454,52.191 32.068,52.191C32.626,52.191 33.161,51.966 33.555,51.566C33.949,51.165 34.171,50.622 34.171,50.056C34.171,48.933 34.171,47.56 34.171,46.437Z" style="fill:rgb(2,169,234);"/>
        </g>
        <g transform="matrix(1.03312,0,0,1.01754,-1.35126,-21.0705)">
            <path d="M46.659,46.437C46.659,45.871 46.437,45.328 46.043,44.927C45.649,44.527 45.114,44.302 44.556,44.302C42.942,44.302 40.723,44.302 39.109,44.302C38.551,44.302 38.016,44.527 37.622,44.927C37.228,45.328 37.006,45.871 37.006,46.437C37.006,47.56 37.006,48.933 37.006,50.056C37.006,50.622 37.228,51.165 37.622,51.566C38.016,51.966 38.551,52.191 39.109,52.191C40.723,52.191 42.942,52.191 44.556,52.191C45.114,52.191 45.649,51.966 46.043,51.566C46.437,51.165 46.659,50.622 46.659,50.056C46.659,48.933 46.659,47.56 46.659,46.437Z" style="fill:rgb(242,84,91);"/>
        </g>
        <g transform="matrix(1.03312,0,0,1.01754,-1.35126,-17.6735)">
            <path d="M59.147,46.437C59.147,45.871 58.925,45.328 58.531,44.927C58.137,44.527 57.602,44.302 57.044,44.302C55.43,44.302 53.211,44.302 51.597,44.302C51.039,44.302 50.504,44.527 50.11,44.927C49.716,45.328 49.494,45.871 49.494,46.437C49.494,47.56 49.494,48.933 49.494,50.056C49.494,50.622 49.716,51.165 50.11,51.566C50.504,51.966 51.039,52.191 51.597,52.191C53.211,52.191 55.43,52.191 57.044,52.191C57.602,52.191 58.137,51.966 58.531,51.566C58.925,51.165 59.147,50.622 59.147,50.056C59.147,48.933 59.147,47.56 59.147,46.437Z" style="fill:rgb(2,169,234);"/>
        </g>
    </g>
</svg>
