<?xml version="1.0" encoding="UTF-8" standalone="no"?>
<!DOCTYPE svg PUBLIC "-//W3C//DTD SVG 1.1//EN" "http://www.w3.org/Graphics/SVG/1.1/DTD/svg11.dtd">
<svg width="100%" height="100%" viewBox="0 0 32 32" version="1.1" xmlns="http://www.w3.org/2000/svg" xmlns:xlink="http://www.w3.org/1999/xlink" xml:space="preserve" xmlns:serif="http://www.serif.com/" style="fill-rule:evenodd;clip-rule:evenodd;stroke-linejoin:round;stroke-miterlimit:2;">
    <g id="light-components-MouseComponent" serif:id="light/components/MouseComponent" transform="matrix(0.451519,0,0,0.451519,0,0)">
        <rect x="0" y="0" width="70.872" height="70.866" style="fill:none;"/>
        <g id="Mouse-Component" serif:id="Mouse Component" transform="matrix(0.893614,0,0,0.893614,22.5843,62.01)">
            <path d="M0,-59.482C-2.987,-59.482 -5.416,-57.055 -5.416,-54.072L-5.416,-14.552C-5.416,-11.569 -2.987,-9.142 0,-9.142C1.354,-9.142 2.652,-9.652 3.655,-10.577L7.94,-14.526L13.266,-3.119C14.15,-1.224 16.074,0 18.166,0C18.921,0 19.655,-0.155 20.347,-0.46L25.391,-2.685C28.088,-3.875 29.329,-6.945 28.215,-9.675L23.504,-21.222L28.97,-21.424C31.152,-21.505 33.06,-22.877 33.83,-24.92C34.6,-26.963 34.073,-29.253 32.488,-30.754L3.708,-57.999C2.697,-58.955 1.381,-59.482 0,-59.482M0,-55.482C0.334,-55.482 0.675,-55.362 0.958,-55.094L29.738,-27.849C30.643,-26.992 30.069,-25.467 28.822,-25.421L19.65,-25.082C18.673,-25.046 18.03,-24.05 18.399,-23.145L24.511,-8.164C24.799,-7.458 24.474,-6.652 23.777,-6.345L18.733,-4.12C18.548,-4.038 18.355,-4 18.166,-4C17.635,-4 17.128,-4.301 16.89,-4.812L10.064,-19.432C9.82,-19.956 9.308,-20.244 8.787,-20.244C8.45,-20.244 8.11,-20.124 7.836,-19.871L0.944,-13.518C0.663,-13.259 0.328,-13.142 0,-13.142C-0.725,-13.142 -1.416,-13.708 -1.416,-14.552L-1.416,-54.072C-1.416,-54.917 -0.724,-55.482 0,-55.482" style="fill:var(--outline);fill-rule:nonzero;"/>
        </g>
    </g>
</svg>
